<svg xmlns="http://www.w3.org/2000/svg" width="34" height="36" fill="none" viewBox="0 0 34 36">
    <path fill="#fff" d="M9.536 16.388h-.39v-3.155a.678.678 0 0 0-.678-.677H8.41V6.103a.677.677 0 0 0-.375-.606l-5.248-2.62a.68.68 0 0 0-.982.606v9.073h-.058a.678.678 0 0 0-.678.677v3.155h-.39a.678.678 0 0 0-.679.677v17.77c0 .373.304.676.678.676h8.858a.678.678 0 0 0 .678-.677v-17.77a.677.677 0 0 0-.678-.676zM3.162 4.578l3.892 1.943v6.035H3.162V4.579zm-.737 9.332H7.79v2.478H2.425V13.91zm6.433 20.247H1.357V17.742h7.501v16.415zM33.322 27.464h-22.03a.678.678 0 1 0 0 1.354h20.95l-.155.322a5.174 5.174 0 0 1-4.636 2.908H11.293a.677.677 0 1 0 0 1.354H27.45a6.537 6.537 0 0 0 5.859-3.675l.623-1.293a.675.675 0 0 0-.611-.97zM9.727 4.978a13.62 13.62 0 0 1 9.27-3.624c7.524 0 13.647 6.11 13.647 13.621 0 4.05-1.788 7.862-4.905 10.461a.676.676 0 0 0 .435 1.197.676.676 0 0 0 .434-.158A14.936 14.936 0 0 0 34 14.975C34 6.718 27.27 0 18.996 0c-3.791 0-7.41 1.415-10.191 3.984a.676.676 0 0 0-.037.957.68.68 0 0 0 .959.037z"/>
    <path fill="#fff" d="M18.996 4.17c5.97 0 10.827 4.847 10.827 10.806 0 5.958-4.857 10.806-10.827 10.806-2.684 0-5.258-.987-7.25-2.78a.68.68 0 0 0-.957.05.676.676 0 0 0 .05.956 12.17 12.17 0 0 0 8.157 3.128c6.718 0 12.183-5.455 12.183-12.16s-5.465-12.16-12.183-12.16a12.245 12.245 0 0 0-9.818 4.959.676.676 0 0 0 .144.946.68.68 0 0 0 .948-.144 10.882 10.882 0 0 1 8.726-4.408z"/>
    <path fill="#fff" d="M26.457 9.643L14.08 21.997a.676.676 0 0 0 .48 1.155.677.677 0 0 0 .48-.198L27.417 10.6a.676.676 0 0 0 0-.957.68.68 0 0 0-.96 0zM17.85 22.08a.676.676 0 0 0 .479 1.156.677.677 0 0 0 .48-.199l9.292-9.275a.676.676 0 0 0 0-.957.68.68 0 0 0-.96 0L17.85 22.08z"/>
</svg>
