<svg xmlns="http://www.w3.org/2000/svg" width="32" height="32" fill="none" viewBox="0 0 32 32">
    <path fill="#fff" d="M22.335 5.035V2.586A2.584 2.584 0 0 0 19.749 0h-7.36a2.584 2.584 0 0 0-2.587 2.586v2.45H0v9.057s.777.19 1.156.274V32h29.819V14.328c.294-.065 1.018-.235 1.018-.235V5.035h-9.658zm-11.24-2.449c0-.75.614-1.293 1.294-1.293h7.353c.751 0 1.293.614 1.293 1.293v2.45h-9.94v-2.45zM1.43 6.4h29.14v6.674c-1.58.38-6.524 1.41-10.828 1.881v-1.744H12.46v1.77c-4.538-.51-9.469-1.58-11.03-1.907V6.4zm16.882 8.104v4.356h-4.565v-4.355h4.565zm11.376 16.131H2.456v-15.98c2.298.503 6.315 1.3 10.01 1.645v3.919h7.283v-3.97c3.598-.412 7.673-1.196 9.94-1.66v16.046z"/>
</svg>
