<svg xmlns="http://www.w3.org/2000/svg" width="36" height="36" fill="none" viewBox="0 0 36 36">
    <path fill="#fff" d="M18 0C8.067 0 0 8.067 0 18s8.067 18 18 18 18-8.067 18-18S27.933 0 18 0zm0 34.439C8.935 34.439 1.561 27.065 1.561 18 1.561 8.935 8.935 1.561 18 1.561c9.065 0 16.439 7.374 16.439 16.439 0 9.065-7.374 16.439-16.439 16.439z"/>
    <path fill="#fff" d="M27.369 14.096h-5.465V8.631a.777.777 0 0 0-.781-.78h-6.246a.777.777 0 0 0-.78.78v5.465H8.63a.777.777 0 0 0-.78.781v6.246c0 .434.347.78.78.78h5.465v5.466c0 .433.347.78.781.78h6.246c.434 0 .78-.347.78-.78v-5.465h5.466c.433 0 .78-.347.78-.781v-6.246c-.043-.434-.39-.78-.78-.78zm-.738 6.246h-5.508a.778.778 0 0 0-.78.78v5.466h-4.685v-5.465a.777.777 0 0 0-.78-.78H9.411v-4.685h5.465c.434 0 .78-.347.78-.78V9.411h4.729v5.465c0 .434.347.78.78.78h5.465v4.685z"/>
</svg>
