<svg xmlns="http://www.w3.org/2000/svg" id="prefix__ic_calendar" width="40" height="40" viewBox="0 0 40 40">
    <defs>
        <linearGradient id="prefix__linear-gradient" x1=".5" x2=".5" y2="1" gradientUnits="objectBoundingBox">
            <stop offset="0" stop-color="#fff"/>
            <stop offset="1" stop-color="#fff" stop-opacity=".502"/>
        </linearGradient>
        <style>
            .prefix__cls-1{fill:url(#prefix__linear-gradient)}
        </style>
    </defs>
    <g id="prefix__ic_calendar-2" data-name="ic_calendar">
        <g id="prefix__ic_calendar-3" data-name="ic_calendar">
            <path id="prefix__Path_13427" d="M279 283.8a3.129 3.129 0 0 0 3.125 3.125h3.675a3.129 3.129 0 0 0 3.125-3.125v-3.672A3.129 3.129 0 0 0 285.8 277h-3.672a3.129 3.129 0 0 0-3.128 3.125zm3.125-3.672h3.675v3.672h-3.674z" class="prefix__cls-1" data-name="Path 13427" transform="translate(-257.203 -255.359)"/>
            <circle id="prefix__Ellipse_14" cx="1.563" cy="1.563" r="1.563" class="prefix__cls-1" data-name="Ellipse 14" transform="translate(28.594 14.844)"/>
            <circle id="prefix__Ellipse_15" cx="1.563" cy="1.563" r="1.563" class="prefix__cls-1" data-name="Ellipse 15" transform="translate(21.797 14.844)"/>
            <path id="prefix__Path_13428" d="M38.438 32.188c.862 0 1.562 2.425 1.562 1.562V9.375a6.257 6.257 0 0 0-6.25-6.25h-2.031V1.563a1.562 1.562 0 1 0-3.125 0v1.562h-7.11V1.563a1.562 1.562 0 1 0-3.125 0v1.562h-7.031V1.563a1.563 1.563 0 1 0-3.125 0v1.562H6.25A6.257 6.257 0 0 0 0 9.375V33.75A6.257 6.257 0 0 0 6.25 40h27.5A6.257 6.257 0 0 0 40 33.75a1.562 1.562 0 1 0-3.125 0 3.129 3.129 0 0 1-3.125 3.125H6.25a3.129 3.129 0 0 1-3.125-3.125V9.375A3.129 3.129 0 0 1 6.25 6.25H8.2v1.563a1.563 1.563 0 1 0 3.125 0V6.25h7.031v1.563a1.563 1.563 0 1 0 3.125 0V6.25h7.109v1.563a1.563 1.563 0 1 0 3.125 0V6.25h2.035a3.129 3.129 0 0 1 3.125 3.125V33.75c0 .863.7-1.562 1.563-1.562z" class="prefix__cls-1" data-name="Path 13428"/>
            <circle id="prefix__Ellipse_16" cx="1.563" cy="1.563" r="1.563" class="prefix__cls-1" data-name="Ellipse 16" transform="translate(8.203 28.438)"/>
            <circle id="prefix__Ellipse_17" cx="1.563" cy="1.563" r="1.563" class="prefix__cls-1" data-name="Ellipse 17" transform="translate(8.203 14.844)"/>
            <circle id="prefix__Ellipse_18" cx="1.563" cy="1.563" r="1.563" class="prefix__cls-1" data-name="Ellipse 18" transform="translate(8.203 21.641)"/>
            <circle id="prefix__Ellipse_19" cx="1.563" cy="1.563" r="1.563" class="prefix__cls-1" data-name="Ellipse 19" transform="translate(15 21.641)"/>
            <circle id="prefix__Ellipse_20" cx="1.563" cy="1.563" r="1.563" class="prefix__cls-1" data-name="Ellipse 20" transform="translate(15 14.844)"/>
            <circle id="prefix__Ellipse_21" cx="1.563" cy="1.563" r="1.563" class="prefix__cls-1" data-name="Ellipse 21" transform="translate(15 28.438)"/>
        </g>
    </g>
</svg>
