<svg xmlns="http://www.w3.org/2000/svg" id="prefix__ic_name" width="24" height="24" viewBox="0 0 24 24">
    <defs>
        <style>
            .prefix__cls-2{fill:#4f2da7}
        </style>
    </defs>
    <path id="prefix__Path_13781" d="M12 11a4 4 0 1 0-4-4 4 4 0 0 0 4 4zm0-6a2 2 0 1 1-2 2 2 2 0 0 1 2-2z" class="prefix__cls-2" data-name="Path 13781"/>
    <path id="prefix__Path_13782" d="M12 13a7 7 0 0 0-7 7 1 1 0 0 0 2 0 5 5 0 1 1 10 0 1 1 0 0 0 2 0 7 7 0 0 0-7-7z" class="prefix__cls-2" data-name="Path 13782"/>
</svg>
