<svg id="ill_money" xmlns="http://www.w3.org/2000/svg" xmlns:xlink="http://www.w3.org/1999/xlink" width="220" height="224" viewBox="0 0 220 224">
  <defs>
    <linearGradient id="linear-gradient" x1="0.5" x2="0.5" y2="1" gradientUnits="objectBoundingBox">
      <stop offset="0" stop-color="#fff246"/>
      <stop offset="1" stop-color="#ff5b41"/>
    </linearGradient>
    <linearGradient id="linear-gradient-2" x1="1" y1="0.5" x2="0.024" y2="0.5" xlink:href="#linear-gradient"/>
  </defs>
  <path id="Path_13063" data-name="Path 13063" d="M1.126,108.007A224.473,224.473,0,0,0,53.16,151.765a4.561,4.561,0,0,0,6.309-1.587l15.019-25.695a4.529,4.529,0,0,0-1.543-6.148A185.6,185.6,0,0,1,30.823,82.913a4.558,4.558,0,0,0-6.336-.479q-11.43,9.551-22.859,19.1a4.53,4.53,0,0,0-.5,6.468Zm0,0" transform="translate(0.001 -41.787)" fill="#36b990"/>
  <g id="Group_4214" data-name="Group 4214" transform="translate(4.059 43.647)">
    <path id="Path_13064" data-name="Path 13064" d="M21.253,111.917l12.447-10.4a7.336,7.336,0,0,0,.869.869,7.153,7.153,0,0,0,9.4-.177,189.943,189.943,0,0,0,15.6,14.7,190.517,190.517,0,0,0,17.164,12.849,7.1,7.1,0,0,0,1.412,9.274,7.262,7.262,0,0,0,1.007.71L70.976,153.73a7.133,7.133,0,0,0-9.626,2.35,220.688,220.688,0,0,1-21.442-15.914,220.507,220.507,0,0,1-19.349-18.39,7.1,7.1,0,0,0,.695-9.859Zm0,0" transform="translate(-15.783 -96.944)" fill="#77d9a5"/>
    <path id="Path_13065" data-name="Path 13065" d="M9.445,133.89l2.3-1.925a2.99,2.99,0,0,1,0,3.858,3.028,3.028,0,0,1-.309.313Q10.434,135.021,9.445,133.89Zm0,0" transform="translate(-9.445 -114.345)" fill="#77d9a5"/>
    <path id="Path_13066" data-name="Path 13066" d="M58.516,92.773l2.3-1.925q.992,1.127,2,2.238a3.012,3.012,0,0,1-3.939.054A2.786,2.786,0,0,1,58.516,92.773Zm0,0" transform="translate(-37.431 -90.848)" fill="#77d9a5"/>
    <path id="Path_13067" data-name="Path 13067" d="M158.753,172.66q1.266.8,2.55,1.587l-1.514,2.59a2.9,2.9,0,0,1-.425-.3A2.991,2.991,0,0,1,158.753,172.66Zm0,0" transform="translate(-94.337 -137.602)" fill="#77d9a5"/>
    <path id="Path_13068" data-name="Path 13068" d="M123.841,231.785a3.012,3.012,0,0,1,3.81-.656l-1.512,2.59q-1.282-.778-2.556-1.577A3.259,3.259,0,0,1,123.841,231.785Zm0,0" transform="translate(-74.539 -170.782)" fill="#77d9a5"/>
  </g>
  <path id="Path_13069" data-name="Path 13069" d="M61.684,139.121c-4.945,5.849-4.73,14.138.477,18.517s13.436,3.189,18.381-2.66,4.73-14.136-.478-18.515S66.627,133.274,61.684,139.121Zm0,0" transform="translate(-33.141 -71.76)" fill="#36b990"/>
  <path id="Path_13070" data-name="Path 13070" d="M68.365,159.437c-2.482-2.231-3.456-5.3-2.306-6.659.609-.721,2.145-1.247,2.954-.566.893.752.557,2.611,1.9,4.212l2.905-3.438c-1.329-2.389-2.855-5.234-.559-7.949,2.279-2.7,5.373-2.308,7.9-.73l.5-.594a.946.946,0,0,1,1.292.107c.4.34.576.956.326,1.252l-.45.532c1.284,1.152,3.486,3.584,2.249,5.049-.485.572-1.855,1.418-2.791.631-.7-.591-.532-1.61-1.826-2.879l-2.62,3.1c1.328,2.35,2.739,5.244.317,8.108-2.226,2.631-5.274,2.792-8.1,1.1l-.52.616c-.252.3-.89.233-1.294-.107a.941.941,0,0,1-.324-1.254Zm8.5-9.625L79,147.286c-1.12-.614-1.935-.465-2.367.044C76.114,147.946,76.346,148.793,76.866,149.812Zm-2.128,4.928-2.4,2.844a1.856,1.856,0,0,0,2.429-.246C75.355,156.639,75.2,155.745,74.738,154.74Zm0,0" transform="translate(-37.4 -77.043)" fill="#77d9a5"/>
  <path id="Path_13071" data-name="Path 13071" d="M123.588,189.225a3.837,3.837,0,1,1-3.837-3.827A3.832,3.832,0,0,1,123.588,189.225Zm0,0" transform="translate(-66.107 -101.234)" fill="#36b990"/>
  <path id="Path_13072" data-name="Path 13072" d="M51.744,128.647a3.837,3.837,0,1,1-3.837-3.827A3.832,3.832,0,0,1,51.744,128.647Zm0,0" transform="translate(-25.134 -66.615)" fill="#36b990"/>
  <path id="Path_13073" data-name="Path 13073" d="M158.65,74.362a224.683,224.683,0,0,0,56.729-37.509,4.532,4.532,0,0,0,.247-6.485q-10.255-10.8-20.507-21.6a4.557,4.557,0,0,0-6.35-.251,185.7,185.7,0,0,1-45.923,30.365,4.531,4.531,0,0,0-2.241,5.931l11.961,27.245A4.558,4.558,0,0,0,158.65,74.362Zm0,0" transform="translate(-79.97 0.514)" fill="#36b990"/>
  <path id="Path_13074" data-name="Path 13074" d="M162.94,75.834,156.426,61a7.215,7.215,0,0,0,1.081-.588,7.108,7.108,0,0,0,2.472-9.053,189.975,189.975,0,0,0,18.529-10.8A189.952,189.952,0,0,0,195.7,27.742a7.159,7.159,0,0,0,10.287.49l11.165,11.759a7.107,7.107,0,0,0-1.039,9.1,7.008,7.008,0,0,0,.6.773,220.539,220.539,0,0,1-21.338,16.053A220.9,220.9,0,0,1,172.232,79.27a6.8,6.8,0,0,0-.483-.849A7.148,7.148,0,0,0,162.94,75.834Zm0,0" transform="translate(-89.211 -11.138)" fill="#77d9a5"/>
  <path id="Path_13075" data-name="Path 13075" d="M176.647,151.185l-1.205-2.745a3.009,3.009,0,0,1,3.711,1.088,3.105,3.105,0,0,1,.217.383Q178.012,150.559,176.647,151.185Zm0,0" transform="translate(-100.056 -79.969)" fill="#77d9a5"/>
  <path id="Path_13076" data-name="Path 13076" d="M150.971,91.164l-1.205-2.745q1.365-.63,2.717-1.286a2.993,2.993,0,0,1-1.056,3.785A2.8,2.8,0,0,1,150.971,91.164Zm0,0" transform="translate(-85.413 -45.078)" fill="#77d9a5"/>
  <path id="Path_13077" data-name="Path 13077" d="M255.109,18.826q1.133-.987,2.244-1.994l2.068,2.174a2.964,2.964,0,0,1-.406.323A3.012,3.012,0,0,1,255.109,18.826Zm0,0" transform="translate(-145.492 -4.903)" fill="#77d9a5"/>
  <path id="Path_13078" data-name="Path 13078" d="M302.671,67.144a2.99,2.99,0,0,1,.438-3.832l2.068,2.174q-1.113,1.009-2.237,2A3.231,3.231,0,0,1,302.671,67.144Zm0,0" transform="translate(-172.331 -31.465)" fill="#77d9a5"/>
  <path id="Path_13079" data-name="Path 13079" d="M200.2,76.3c4.238,6.376,12.276,8.5,17.955,4.746s6.843-11.964,2.6-18.339-12.276-8.5-17.953-4.746S195.96,69.929,200.2,76.3Zm0,0" transform="translate(-112.722 -27.348)" fill="#36b990"/>
  <path id="Path_13080" data-name="Path 13080" d="M220.988,82.1c-2.845,1.748-6.073,1.816-7.056.336-.524-.787-.6-2.4.285-2.986.974-.644,2.67.2,4.587-.636l-2.493-3.748c-2.672.6-5.839,1.264-7.808-1.7-1.954-2.939-.71-5.792,1.517-7.765l-.43-.648c-.217-.323-.045-.87.465-1.207.441-.291,1.083-.283,1.3.042l.384.577c1.469-.9,4.429-2.328,5.49-.733.416.624.844,2.173-.176,2.849-.765.506-1.7.057-3.283.937l2.244,3.378c2.635-.609,5.818-1.148,7.894,1.977,1.907,2.867,1.2,5.83-1.219,8.065l.446.671c.215.323-.025.916-.467,1.207a.946.946,0,0,1-1.3-.042Zm-6.875-10.842-1.83-2.754c-.906.9-.992,1.722-.623,2.278C212.106,71.451,212.987,71.469,214.113,71.257Zm4.146,3.421,2.061,3.1a1.846,1.846,0,0,0,.445-2.394C220.258,74.621,219.355,74.519,218.259,74.678Zm0,0" transform="translate(-118.358 -31.237)" fill="#77d9a5"/>
  <path id="Path_13081" data-name="Path 13081" d="M264.955,55.592a3.837,3.837,0,1,1-3.837-3.827A3.833,3.833,0,0,1,264.955,55.592Zm0,0" transform="translate(-146.731 -24.866)" fill="#36b990"/>
  <path id="Path_13082" data-name="Path 13082" d="M186.629,107.522a3.838,3.838,0,1,1-3.839-3.827A3.832,3.832,0,0,1,186.629,107.522Zm0,0" transform="translate(-102.059 -54.543)" fill="#36b990"/>
  <path id="Path_13083" data-name="Path 13083" d="M311.587,238.692a225.025,225.025,0,0,0,64.223-22.481,4.535,4.535,0,0,0,1.833-6.227q-7.284-12.976-14.567-25.951a4.555,4.555,0,0,0-6.094-1.8,185.99,185.99,0,0,1-51.989,18.2,4.538,4.538,0,0,0-3.631,5.2q2.445,14.669,4.891,29.339A4.553,4.553,0,0,0,311.587,238.692Zm0,0" transform="translate(-171.835 -99.126)" fill="#36b990"/>
  <path id="Path_13084" data-name="Path 13084" d="M316.361,237.346,313.7,221.37a7.31,7.31,0,0,0,1.193-.306,7.118,7.118,0,0,0,4.622-8.17,189.856,189.856,0,0,0,40.434-14.155,7.152,7.152,0,0,0,9.853,2.991l7.931,14.133a7.11,7.11,0,0,0-3.244,8.567,6.892,6.892,0,0,0,.386.9,220.815,220.815,0,0,1-24.635,10.34,221.347,221.347,0,0,1-25.712,7.285,6.876,6.876,0,0,0-.258-.941A7.142,7.142,0,0,0,316.361,237.346Zm0,0" transform="translate(-178.904 -108.858)" fill="#77d9a5"/>
  <path id="Path_13085" data-name="Path 13085" d="M321.966,301.217l-.493-2.956a3.007,3.007,0,0,1,3.446,2.387Q323.443,300.945,321.966,301.217Zm0,0" transform="translate(-183.34 -165.709)" fill="#77d9a5"/>
  <path id="Path_13086" data-name="Path 13086" d="M311.466,237.346l-.493-2.954q1.475-.281,2.949-.583a2.994,2.994,0,0,1-1.954,3.41A2.723,2.723,0,0,1,311.466,237.346Zm0,0" transform="translate(-177.352 -128.9)" fill="#77d9a5"/>
  <path id="Path_13087" data-name="Path 13087" d="M429.938,192.615q1.339-.68,2.667-1.384l1.469,2.615a3.005,3.005,0,0,1-4.136-1.23Zm0,0" transform="translate(-245.199 -104.567)" fill="#77d9a5"/>
  <path id="Path_13088" data-name="Path 13088" d="M464.008,250.7a2.993,2.993,0,0,1,1.368-3.607l1.469,2.615q-1.327.706-2.66,1.4A2.993,2.993,0,0,1,464.008,250.7Zm0,0" transform="translate(-264.532 -136.49)" fill="#77d9a5"/>
  <path id="Path_13089" data-name="Path 13089" d="M358.758,237.368c2.54,7.218,9.809,11.245,16.236,9s9.579-9.925,7.039-17.143-9.811-11.244-16.237-8.994S356.217,230.151,358.758,237.368Zm0,0" transform="translate(-204.103 -120.781)" fill="#36b990"/>
  <path id="Path_13090" data-name="Path 13090" d="M379.344,246.65c-3.189,1-6.333.276-6.924-1.4-.314-.891.013-2.476,1.012-2.826,1.1-.385,2.54.847,4.6.507l-1.494-4.243c-2.739-.07-5.97-.2-7.152-3.557-1.17-3.326.737-5.788,3.382-7.156l-.258-.733c-.129-.367.171-.854.749-1.056.5-.174,1.118-.008,1.247.358l.232.654c1.647-.517,4.866-1.175,5.5.633.25.708.284,2.313-.871,2.718-.868.3-1.662-.36-3.414.105l1.346,3.825c2.7.054,5.92.31,7.165,3.847,1.141,3.247-.267,5.947-3.166,7.521l.269.758c.129.367-.25.882-.75,1.058a.947.947,0,0,1-1.247-.358Zm-4-12.193-1.1-3.117c-1.1.649-1.386,1.426-1.165,2.056C373.353,234.156,374.2,234.387,375.347,234.457Zm3.177,4.33,1.235,3.51a1.846,1.846,0,0,0,1.021-2.211C380.477,239.223,379.626,238.9,378.524,238.788Zm0,0" transform="translate(-210.466 -124.503)" fill="#77d9a5"/>
  <path id="Path_13091" data-name="Path 13091" d="M429.822,230.1a3.837,3.837,0,1,1-3.837-3.827A3.832,3.832,0,0,1,429.822,230.1Zm0,0" transform="translate(-240.757 -124.591)" fill="#36b990"/>
  <path id="Path_13092" data-name="Path 13092" d="M341.151,261.221a3.837,3.837,0,1,1-3.837-3.827A3.832,3.832,0,0,1,341.151,261.221Zm0,0" transform="translate(-190.186 -142.378)" fill="#36b990"/>
  <path id="Path_13093" data-name="Path 13093" d="M421.986,285.868q-.592,2.149-1.274,4.26a107.915,107.915,0,0,1-4.564,11.784q-1.569,3.45-3.374,6.771-2.558,4.725-5.564,9.16c-.786,1.163-1.593,2.305-2.424,3.437a224.488,224.488,0,0,1-42.334-37.5,4.53,4.53,0,0,1,.5-6.466q11.428-9.554,22.859-19.1a4.558,4.558,0,0,1,6.336.479A185.315,185.315,0,0,0,421.986,285.868Zm0,0" transform="translate(-206.07 -142.238)" fill="#36b990"/>
  <path id="Path_13094" data-name="Path 13094" d="M432.439,301.638a107.92,107.92,0,0,1-4.564,11.784q-1.569,3.45-3.374,6.771-2.558,4.725-5.564,9.16a219.229,219.229,0,0,1-37.047-31.8,7.464,7.464,0,0,0,.681-.7,7.107,7.107,0,0,0,.013-9.161l12.447-10.4a6.992,6.992,0,0,0,.871.869,7.15,7.15,0,0,0,9.4-.179,189.91,189.91,0,0,0,15.6,14.7Q426.482,297.372,432.439,301.638Zm0,0" transform="translate(-217.797 -153.748)" fill="#77d9a5"/>
  <path id="Path_13095" data-name="Path 13095" d="M370.777,309.663l2.3-1.925a2.99,2.99,0,0,1-.005,3.858,3.2,3.2,0,0,1-.307.313Q371.763,310.792,370.777,309.663Zm0,0" transform="translate(-211.459 -171.149)" fill="#77d9a5"/>
  <path id="Path_13096" data-name="Path 13096" d="M419.844,268.546l2.3-1.925q.992,1.127,2,2.238a3.012,3.012,0,0,1-3.938.054A2.905,2.905,0,0,1,419.844,268.546Zm0,0" transform="translate(-239.442 -147.651)" fill="#77d9a5"/>
  <path id="Path_13097" data-name="Path 13097" d="M423.006,314.9c-4.943,5.849-4.728,14.138.478,18.517s13.436,3.189,18.381-2.658,4.728-14.138-.478-18.517S427.951,309.055,423.006,314.9Zm0,0" transform="translate(-239.209 -172.215)" fill="#36b990"/>
  <path id="Path_13098" data-name="Path 13098" d="M444.16,321.373l.448-.529c.252-.3.081-.912-.322-1.252a.947.947,0,0,0-1.292-.107l-.5.594c-2.526-1.579-5.623-1.969-7.9.73-2.293,2.717-.767,5.559.561,7.948l-2.907,3.437c-1.338-1.6-1.005-3.458-1.9-4.21-.807-.681-2.343-.157-2.952.567-1.15,1.356-.175,4.426,2.306,6.659l-.448.529a.94.94,0,0,0,.322,1.252c.4.342,1.041.408,1.292.109l.52-.614c2.832,1.687,5.88,1.532,8.105-1.1,2.422-2.864,1.009-5.76-.319-8.11l2.62-3.1c1.292,1.271,1.126,2.29,1.826,2.881.938.788,2.306-.059,2.791-.631C447.646,324.957,445.443,322.528,444.16,321.373ZM436.1,333.11a1.864,1.864,0,0,1-2.432.248l2.405-2.847C436.532,331.518,436.688,332.409,436.1,333.11Zm2.1-7.526c-.52-1.021-.75-1.866-.23-2.484.431-.511,1.249-.658,2.365-.04Zm0,0" transform="translate(-243.473 -177.492)" fill="#77d9a5"/>
  <path id="Path_13099" data-name="Path 13099" d="M482.259,361.361q-1.569,3.45-3.374,6.771a3.156,3.156,0,0,1-.274-.206,3.825,3.825,0,0,1,3.647-6.565Zm0,0" transform="translate(-272.18 -201.687)" fill="#36b990"/>
  <path id="Path_13100" data-name="Path 13100" d="M413.072,304.42a3.837,3.837,0,1,1-3.837-3.827A3.832,3.832,0,0,1,413.072,304.42Zm0,0" transform="translate(-231.204 -167.066)" fill="#36b990"/>
  <path id="Path_13101" data-name="Path 13101" d="M226.574,222.132a76.309,76.309,0,0,1-1.845,17.154q-1.38,1.813-2.832,3.567-1.637,1.973-3.36,3.865a109.512,109.512,0,0,1-9.99,9.672q-3.1,2.651-6.393,5.06a108.918,108.918,0,0,1-9.707,6.364Q190.6,268.9,188.7,269.9q-1.616.859-3.266,1.666-2.976,1.456-6.054,2.739a110.276,110.276,0,0,1-129.9-35.028,76.195,76.195,0,0,1-1.84-17.144c0-49.28,40.058-111.163,89.472-111.163S226.574,172.852,226.574,222.132Zm0,0" transform="translate(-27.165 -58.7)" fill="#40649c"/>
  <path id="Path_13102" data-name="Path 13102" d="M218.991,296.693c-12.52-.417-22.745-6.868-22.745-13.527,0-3.537,3.13-8.74,7.095-8.74,4.382,0,7.929,6.138,15.65,7.491V265.06c-9.6-3.641-20.867-8.115-20.867-21.434,0-13.214,9.807-19.561,20.867-21.122V219.59c0-1.456,1.67-2.809,3.965-2.809,1.982,0,3.965,1.353,3.965,2.809v2.6c6.469.209,18.676,1.873,18.676,9.053,0,2.809-1.878,8.532-6.469,8.532-3.443,0-5.425-3.329-12.207-3.85v15.193c9.5,3.537,20.554,8.428,20.554,22.474,0,12.9-8.347,20.706-20.554,22.683v3.018c0,1.456-1.982,2.809-3.965,2.809-2.294,0-3.965-1.353-3.965-2.809Zm1.042-48.072V236.239c-4.695.936-6.677,3.329-6.677,5.827C213.356,245.082,216.069,246.955,220.033,248.621Zm5.843,19.248v13.944c3.548-.834,6.365-2.811,6.365-6.555C232.241,271.825,229.632,269.639,225.876,267.869Zm0,0" transform="translate(-111.921 -119.169)" fill="url(#linear-gradient)"/>
  <path id="Path_13103" data-name="Path 13103" d="M225.007,43.7c3.011-9.454,49.1-42.656-27.233-42.656S167.53,34.248,170.541,43.7" transform="translate(-87.836 -1.047)" fill="#40649c"/>
  <path id="Path_13104" data-name="Path 13104" d="M90.595,222.132c0,28.637,7.031,46.717,17.961,56.831a110.059,110.059,0,0,1-59.079-39.677,76.191,76.191,0,0,1-1.845-17.154c0-49.28,40.058-111.163,89.472-111.163C111.419,110.969,90.595,172.852,90.595,222.132Zm0,0" transform="translate(-27.165 -58.7)" fill="#274b7b"/>
  <path id="Path_13105" data-name="Path 13105" d="M183.62,43.708H170.545c-3-9.42-48.769-42.419,26.412-42.654C158.428,1.514,182.063,34.319,183.62,43.708Zm0,0" transform="translate(-87.837 -1.051)" fill="#274b7b"/>
  <path id="Path_13106" data-name="Path 13106" d="M244.012,96.434a8.957,8.957,0,0,1-8.966,8.942H180.58a8.942,8.942,0,1,1,0-17.884h54.466a8.951,8.951,0,0,1,8.966,8.942Zm0,0" transform="translate(-97.873 -45.283)" fill="url(#linear-gradient-2)"/>
  <path id="Path_13108" data-name="Path 13108" d="M365.55,79.06a224.321,224.321,0,0,0,48.128-48,4.533,4.533,0,0,0-1.051-6.4l-24.4-17.1a4.556,4.556,0,0,0-6.272,1.013,185.488,185.488,0,0,1-38.96,38.855,4.527,4.527,0,0,0-1.015,6.255l17.149,24.334A4.561,4.561,0,0,0,365.55,79.06Zm0,0" transform="translate(-194.563 0.871)" fill="#36b990"/>
  <path id="Path_13109" data-name="Path 13109" d="M369.526,80.942l-9.339-13.251a7.113,7.113,0,0,0,1.561-10.151,190.237,190.237,0,0,0,16.011-14.255A189.718,189.718,0,0,0,392.051,27.32a7.157,7.157,0,0,0,10.18-1.558l13.285,9.315a7.1,7.1,0,0,0,.794,9.123,6.962,6.962,0,0,0,.737.641A220.373,220.373,0,0,1,399.331,64.8a220.868,220.868,0,0,1-20.012,17.67,7.349,7.349,0,0,0-.643-.737A7.152,7.152,0,0,0,369.526,80.942Zm0,0" transform="translate(-205.419 -10.006)" fill="#77d9a5"/>
  <path id="Path_13110" data-name="Path 13110" d="M389.176,164.119l-1.727-2.451A3.007,3.007,0,0,1,391.3,162a2.964,2.964,0,0,1,.287.331Q390.389,163.236,389.176,164.119Zm0,0" transform="translate(-220.967 -87.361)" fill="#77d9a5"/>
  <path id="Path_13111" data-name="Path 13111" d="M352.366,110.074l-1.729-2.451q1.211-.891,2.407-1.8a2.993,2.993,0,0,1-.28,3.919A2.96,2.96,0,0,1,352.366,110.074Zm0,0" transform="translate(-199.972 -55.76)" fill="#77d9a5"/>
  <path id="Path_13112" data-name="Path 13112" d="M440.246,18.617q.911-1.193,1.8-2.4l2.459,1.722a2.855,2.855,0,0,1-.332.4A3.015,3.015,0,0,1,440.246,18.617Zm0,0" transform="translate(-251.078 -4.552)" fill="#77d9a5"/>
  <path id="Path_13113" data-name="Path 13113" d="M496.426,56.871a2.991,2.991,0,0,1-.332-3.843l2.457,1.722q-.886,1.21-1.793,2.407A3.127,3.127,0,0,1,496.426,56.871Zm0,0" transform="translate(-282.616 -25.587)" fill="#77d9a5"/>
  <path id="Path_13114" data-name="Path 13114" d="M400.141,83.1c5.423,5.408,13.725,5.9,18.54,1.095s4.325-13.082-1.1-18.488-13.723-5.9-18.54-1.1S394.718,77.691,400.141,83.1Zm0,0" transform="translate(-225.69 -30.318)" fill="#36b990"/>
  <path id="Path_13115" data-name="Path 13115" d="M420.7,85.781c-2.44,2.278-5.591,2.985-6.85,1.727-.67-.666-1.062-2.236-.316-2.983.827-.825,2.657-.335,4.369-1.532l-3.187-3.179c-2.5,1.118-5.472,2.394-7.991-.119-2.5-2.492-1.85-5.536-.06-7.909l-.551-.551a.941.941,0,0,1,.217-1.276c.374-.373,1-.49,1.281-.216l.492.492c1.259-1.178,3.877-3.16,5.235-1.806.53.529,1.259,1.962.393,2.826-.648.648-1.653.393-3.031,1.57l2.875,2.867c2.459-1.12,5.47-2.278,8.129.372,2.44,2.434,2.341,5.477.413,8.147l.571.569c.275.275.158.9-.217,1.276a.947.947,0,0,1-1.279.216Zm-8.9-9.265-2.343-2.335c-.708,1.06-.629,1.885-.158,2.355C409.87,77.105,410.737,76.948,411.8,76.516Zm4.742,2.533,2.639,2.63a1.846,1.846,0,0,0-.04-2.434C418.491,78.6,417.586,78.676,416.542,79.049Zm0,0" transform="translate(-231.02 -34.13)" fill="#77d9a5"/>
  <path id="Path_13116" data-name="Path 13116" d="M457.658,52.94a3.837,3.837,0,1,1-3.837-3.827A3.831,3.831,0,0,1,457.658,52.94Zm0,0" transform="translate(-256.632 -23.351)" fill="#36b990"/>
  <path id="Path_13117" data-name="Path 13117" d="M391.205,119.393a3.837,3.837,0,1,1-3.837-3.827A3.832,3.832,0,0,1,391.205,119.393Zm0,0" transform="translate(-218.733 -61.327)" fill="#36b990"/>
  <path id="Path_13118" data-name="Path 13118" d="M318.307,392.305a186.226,186.226,0,0,0,48.046,11.157q-1.637,1.974-3.36,3.865A109.51,109.51,0,0,1,353,417q-3.1,2.652-6.393,5.06a108.932,108.932,0,0,1-9.707,6.364q-1.85,1.082-3.751,2.086-1.616.859-3.266,1.665-2.976,1.456-6.054,2.739-10.124-2.815-19.977-6.565a4.538,4.538,0,0,1-2.593-5.952q5.612-13.775,11.227-27.554A4.547,4.547,0,0,1,318.307,392.305Zm0,0" transform="translate(-171.62 -219.308)" fill="#36b990"/>
  <path id="Path_13119" data-name="Path 13119" d="M362.013,425.675q-3.1,2.652-6.393,5.06a108.911,108.911,0,0,1-9.707,6.364q-1.85,1.082-3.751,2.086-1.616.859-3.266,1.666-9.19-2.325-18.161-5.429a6.586,6.586,0,0,0,.274-.941,7.111,7.111,0,0,0-4.285-8.1l6.111-15.005a7.217,7.217,0,0,0,1.177.358,7.138,7.138,0,0,0,8.224-4.548,190.56,190.56,0,0,0,20.687,5.7A188.441,188.441,0,0,0,372,416,109.5,109.5,0,0,1,362.013,425.675Zm0,0" transform="translate(-180.631 -227.984)" fill="#77d9a5"/>
  <path id="Path_13120" data-name="Path 13120" d="M310.469,463.664l1.13-2.777a2.993,2.993,0,0,1,1.808,3.41,2.913,2.913,0,0,1-.124.422Q311.869,464.2,310.469,463.664Zm0,0" transform="translate(-177.064 -258.669)" fill="#77d9a5"/>
  <path id="Path_13121" data-name="Path 13121" d="M334.563,404.353l1.13-2.775q1.407.532,2.82,1.043a3.007,3.007,0,0,1-3.454,1.887A2.833,2.833,0,0,1,334.563,404.353Zm0,0" transform="translate(-190.805 -224.776)" fill="#77d9a5"/>
  <path id="Path_13122" data-name="Path 13122" d="M389.285,434.806q-3.1,2.652-6.393,5.06a108.925,108.925,0,0,1-9.707,6.364q-1.85,1.082-3.751,2.086a13.973,13.973,0,0,1-4.537-13.959c1.625-7.477,8.334-12.374,14.992-10.937C385.107,424.544,388.743,429.234,389.285,434.806Zm0,0" transform="translate(-207.903 -237.115)" fill="#36b990"/>
  <path id="Path_13123" data-name="Path 13123" d="M386.151,431.119l.148-.681c.081-.375-.359-.84-.876-.952a.947.947,0,0,0-1.193.511l-.166.76c-2.969-.219-5.886.885-6.632,4.332-.754,3.473,1.93,5.271,4.226,6.763l-.955,4.394c-1.934-.788-2.513-2.586-3.657-2.832-1.032-.224-2.14.957-2.341,1.88-.342,1.565,1.5,3.557,4.253,4.528a108.946,108.946,0,0,0,9.707-6.364c-.423-2.273-2.383-3.664-4.151-4.8l.861-3.96c1.741.521,2.07,1.5,2.966,1.692,1.2.259,2.011-1.128,2.167-1.861C390.916,432.658,387.824,431.54,386.151,431.119Zm-4.663,4.416c.143-.648.794-1.163,2.073-1.14l-.7,3.226C381.918,436.968,381.317,436.324,381.488,435.535Zm3.046,9.72a1.855,1.855,0,0,1-2.028,1.353l.789-3.639C384.175,443.645,384.732,444.36,384.534,445.256Zm0,0" transform="translate(-213.675 -240.705)" fill="#77d9a5"/>
  <path id="Path_13124" data-name="Path 13124" d="M346.422,439.473a3.838,3.838,0,1,1-3.839-3.828A3.833,3.833,0,0,1,346.422,439.473Zm0,0" transform="translate(-193.191 -244.244)" fill="#36b990"/>
  <path id="Path_13125" data-name="Path 13125" d="M96.163,335.216a224.552,224.552,0,0,1-34.79,37.436q-1.664-1.336-3.271-2.739a110.436,110.436,0,0,1-8.594-8.351q-1.823-1.966-3.54-4.022-1.644-1.961-3.2-4.006c0-.005,0-.005-.005-.01q-2.445-3.209-4.644-6.6-1.166-1.773-2.249-3.6a185.43,185.43,0,0,0,28.571-30.6,4.548,4.548,0,0,1,6.269-1.011q12.2,8.545,24.4,17.1A4.532,4.532,0,0,1,96.163,335.216Zm0,0" transform="translate(-20.457 -172.947)" fill="#36b990"/>
  <path id="Path_13126" data-name="Path 13126" d="M91.659,349a219.61,219.61,0,0,1-17.716,19.96q-6.178,6.157-12.855,11.833a110.429,110.429,0,0,1-8.594-8.351q-1.823-1.966-3.54-4.022-1.644-1.961-3.2-4.006c0-.005,0-.005-.005-.01q-2.445-3.209-4.644-6.6,5.849-4.946,11.268-10.36A190.5,190.5,0,0,0,66.665,331.48a7.149,7.149,0,0,0,9.383-.618,7.422,7.422,0,0,0,.794-.941l13.287,9.314A7.114,7.114,0,0,0,91.659,349Zm0,0" transform="translate(-23.443 -183.826)" fill="#77d9a5"/>
  <path id="Path_13127" data-name="Path 13127" d="M106.492,322.77q.911-1.19,1.8-2.4l2.459,1.722a2.869,2.869,0,0,1-.332.4A3.011,3.011,0,0,1,106.492,322.77Zm0,0" transform="translate(-60.734 -178.368)" fill="#77d9a5"/>
  <path id="Path_13128" data-name="Path 13128" d="M162.672,361.027a2.993,2.993,0,0,1-.334-3.843l2.459,1.722q-.886,1.21-1.793,2.407A3.123,3.123,0,0,1,162.672,361.027Zm0,0" transform="translate(-92.272 -199.406)" fill="#77d9a5"/>
  <path id="Path_13129" data-name="Path 13129" d="M66.386,387.259c5.423,5.408,13.723,5.9,18.54,1.095s4.325-13.082-1.1-18.49-13.725-5.9-18.54-1.095S60.963,381.85,66.386,387.259Zm0,0" transform="translate(-35.344 -204.137)" fill="#36b990"/>
  <path id="Path_13130" data-name="Path 13130" d="M88.357,388.368c1.93-2.672,2.029-5.715-.413-8.15-2.655-2.648-5.666-1.49-8.125-.37l-2.877-2.864c1.378-1.178,2.383-.922,3.033-1.572.866-.864.134-2.295-.394-2.827-1.36-1.353-3.976.629-5.237,1.808l-.488-.492c-.279-.275-.906-.157-1.279.214a.941.941,0,0,0-.22,1.276l.552.551c-1.791,2.375-2.442,5.419.057,7.911,2.523,2.511,5.494,1.235,7.993.117l3.191,3.182c-1.715,1.194-3.545.706-4.371,1.53-.75.747-.356,2.313.314,2.985,1.261,1.254,4.411.546,6.848-1.727l.493.489a.947.947,0,0,0,1.279-.216c.371-.372.493-1,.215-1.276Zm-12.81-7.675c-.472-.475-.552-1.3.156-2.359l2.343,2.335C76.982,381.105,76.116,381.261,75.547,380.693Zm9.881,5.142L82.789,383.2c1.041-.372,1.947-.452,2.6.2A1.847,1.847,0,0,1,85.428,385.836Zm0,0" transform="translate(-40.674 -207.947)" fill="#77d9a5"/>
  <path id="Path_13131" data-name="Path 13131" d="M123.9,357.1a3.837,3.837,0,1,1-3.837-3.827A3.831,3.831,0,0,1,123.9,357.1Zm0,0" transform="translate(-66.287 -197.169)" fill="#36b990"/>
  <path id="Path_13132" data-name="Path 13132" d="M62.911,423.78q-1.823-1.966-3.54-4.022a3.812,3.812,0,0,1,3.54,4.022Zm0,0" transform="translate(-33.86 -235.165)" fill="#36b990"/>
</svg>
