<svg xmlns="http://www.w3.org/2000/svg" xmlns:xlink="http://www.w3.org/1999/xlink" width="299.999" height="200" viewBox="0 0 299.999 200">
  <defs>
    <linearGradient id="linear-gradient" x1="0.5" x2="0.5" y2="1" gradientUnits="objectBoundingBox">
      <stop offset="0" stop-color="#fff"/>
      <stop offset="1" stop-color="#b9b7fd"/>
    </linearGradient>
    <linearGradient id="linear-gradient-3" x1="0.5" x2="0.5" y2="1" gradientUnits="objectBoundingBox">
      <stop offset="0" stop-color="#b9b7fd"/>
      <stop offset="1" stop-color="#fff"/>
    </linearGradient>
    <linearGradient id="linear-gradient-4" y1="1" y2="0" xlink:href="#linear-gradient-3"/>
    <linearGradient id="linear-gradient-5" x1="0.5" x2="0.5" y2="1" gradientUnits="objectBoundingBox">
      <stop offset="0" stop-color="#fff"/>
      <stop offset="1" stop-color="#938cf8"/>
    </linearGradient>
    <linearGradient id="linear-gradient-6" x1="0.5" x2="0.5" y2="1" gradientUnits="objectBoundingBox">
      <stop offset="0" stop-color="#35e7c1"/>
      <stop offset="1" stop-color="#766dfc"/>
    </linearGradient>
    <linearGradient id="linear-gradient-7" x1="0.304" y1="0.079" x2="0.464" y2="0.513" gradientUnits="objectBoundingBox">
      <stop offset="0" stop-color="#fff"/>
      <stop offset="1" stop-color="#4eb6d8"/>
    </linearGradient>
    <linearGradient id="linear-gradient-9" x1="0.527" y1="0.17" x2="0.5" y2="1" gradientUnits="objectBoundingBox">
      <stop offset="0" stop-color="#fff"/>
      <stop offset="1" stop-color="#766dfc" stop-opacity="0"/>
    </linearGradient>
    <linearGradient id="linear-gradient-11" x1="0.398" y1="0.108" x2="0.5" y2="1" gradientUnits="objectBoundingBox">
      <stop offset="0" stop-color="#fff"/>
      <stop offset="1" stop-color="#6291ea"/>
    </linearGradient>
    <linearGradient id="linear-gradient-12" x1="0.5" x2="0.5" y2="1" gradientUnits="objectBoundingBox">
      <stop offset="0" stop-color="#fff"/>
      <stop offset="1" stop-color="#b8b4fa"/>
    </linearGradient>
    <linearGradient id="linear-gradient-14" x1="0.905" y1="-0.02" x2="0.433" y2="0.518" gradientUnits="objectBoundingBox">
      <stop offset="0" stop-color="#fff"/>
      <stop offset="1" stop-color="#50b3da"/>
    </linearGradient>
    <linearGradient id="linear-gradient-16" x1="0.583" y1="0.086" x2="0.5" y2="0.798" gradientUnits="objectBoundingBox">
      <stop offset="0" stop-color="#fff"/>
      <stop offset="1" stop-color="#6095e8"/>
    </linearGradient>
    <linearGradient id="linear-gradient-18" x1="0.601" y1="0.046" x2="0.5" y2="1" gradientUnits="objectBoundingBox">
      <stop offset="0" stop-color="#fff"/>
      <stop offset="1" stop-color="#6886ef"/>
    </linearGradient>
    <linearGradient id="linear-gradient-19" x1="0.5" y1="1" x2="0.5" gradientUnits="objectBoundingBox">
      <stop offset="0" stop-color="#a7a1f8"/>
      <stop offset="1" stop-color="#fff"/>
    </linearGradient>
    <linearGradient id="linear-gradient-20" x1="0.524" x2="0.5" y2="1" gradientUnits="objectBoundingBox">
      <stop offset="0" stop-color="#fff"/>
      <stop offset="1" stop-color="#cbc8fa"/>
    </linearGradient>
  </defs>
  <g id="ill_background" transform="translate(0 0)">
    <g id="g22" transform="translate(199.524 42.808)">
      <path id="path24" d="M-195.986-21.913s4.272-4.766,10.53-3.242c0,0,5.812-8.97,16.541-2.782,0,0,3.422-7.945,11.772-7.945a14.077,14.077,0,0,1,12.226,6.5,11.3,11.3,0,0,1,12.483,3.334s8.155-1.873,13.013,4.131Z" transform="translate(195.986 35.881)" fill="#dee6f9"/>
    </g>
    <g id="g26" transform="translate(250.402 164.977)">
      <path id="path28" d="M-51.406-33.828S-33.054-42.616-28.032-52.6s-12.975,9.737-26.849,13.222-4.709,9.152,3.475,5.549" transform="translate(62.036 55.391)" fill="url(#linear-gradient)"/>
    </g>
    <g id="g30" transform="translate(26.081 107.793)">
      <path id="path32" d="M21.064-97.117S-13.341-121.066-21.086-150.5-35.5-126.353,8.095-91.94s12.97-5.178,12.97-5.178" transform="translate(26.751 159.024)" fill="url(#linear-gradient)"/>
    </g>
    <g id="g34" transform="translate(32.195 1.361)">
      <path id="path36" d="M254.943-214.909c1.779-16.94-28.158,5.676-47.7-6.181-25.336-15.371-13.627-55.889,1.98-82.38,9.888-16.783,46.908-61.569-16.5-44.695-45.5,12.108-142.933,98.178-137.907,44.695,7.455-79.338-85.586-2.878-44.483,78.912,35.7,71.03,236.54,86.514,244.61,9.649" transform="translate(0.194 351.901)" fill="url(#linear-gradient-3)"/>
    </g>
    <g id="g46" transform="translate(52.34 90.096)">
      <path id="path48" d="M-236.911-26.488s5.164-5.761,12.73-3.919c0,0,7.025-10.843,19.994-3.363,0,0,4.137-9.6,14.231-9.6a17.017,17.017,0,0,1,14.779,7.862s8.728-3.5,15.09,4.03c0,0,9.857-2.265,15.73,4.993Z" transform="translate(236.911 43.373)" fill="#fff"/>
    </g>
    <g id="g50" transform="translate(110.816 0)">
      <path id="path52" d="M-203.326-22.733s4.432-4.945,10.925-3.363c0,0,6.029-9.306,17.16-2.886,0,0,3.55-8.242,12.213-8.242a14.605,14.605,0,0,1,12.684,6.747s7.491-3,12.95,3.458c0,0,8.46-1.943,13.5,4.285Z" transform="translate(203.326 37.224)" fill="#dee6f9"/>
    </g>
    <g id="g54" transform="translate(230.593 106.12)">
      <path id="path56" d="M69.319-19.839s-3.868-4.315-9.534-2.935c0,0-5.261-8.121-14.976-2.518,0,0-3.1-7.193-10.658-7.193A12.745,12.745,0,0,0,23.083-26.6a10.234,10.234,0,0,0-11.3,3.018S4.4-25.275,0-19.839Z" transform="translate(0 32.485)" fill="#dee6f9"/>
    </g>
    <g id="g66" transform="translate(0.185 70.895)">
      <path id="path68" d="M-195.986-21.913s4.272-4.766,10.53-3.242c0,0,5.812-8.97,16.541-2.782,0,0,3.422-7.945,11.772-7.945a14.077,14.077,0,0,1,12.226,6.5,11.3,11.3,0,0,1,12.483,3.334s8.155-1.873,13.013,4.131Z" transform="translate(195.986 35.881)" fill="#fff"/>
    </g>
    <g id="g252" transform="translate(0 180.07)">
      <path id="path254" d="M-25.988-24.188c-82.617,0-150,4.477-150,9.964s67.383,9.965,150,9.965,150-4.477,150-9.965-67.383-9.964-150-9.964" transform="translate(175.988 24.188)" fill-rule="evenodd" fill="url(#linear-gradient-4)"/>
    </g>
    <g id="Group_10451" data-name="Group 10451" transform="translate(30 120)">
      <g id="g74" transform="translate(27.869 43.537)">
        <path id="path76" d="M-34.482,0A22.108,22.108,0,0,0-56.591,22.108h44.216A22.108,22.108,0,0,0-34.482,0" transform="translate(56.591)" fill="url(#linear-gradient-5)"/>
      </g>
      <g id="g82" transform="translate(16.256 1.868)">
        <path id="path84" d="M65.175-104.63s7.195-50.2-65.676-67.083c0,0,16.625,8.278,28.264,32.3s25.846,32.6,37.411,34.785" transform="translate(0.501 171.713)" fill="url(#linear-gradient-6)"/>
      </g>
      <g id="g86" transform="translate(23.819 5.486)">
        <path id="path88" d="M53.444-88.875l-.312-.837c-.216-.541-.519-1.342-.97-2.333s-1-2.193-1.68-3.55-1.468-2.878-2.4-4.5-1.972-3.359-3.129-5.163c-1.176-1.79-2.425-3.677-3.826-5.551-1.38-1.889-2.863-3.8-4.431-5.691-1.586-1.876-3.222-3.763-4.936-5.578l-1.291-1.355-1.321-1.321c-.872-.887-1.769-1.74-2.665-2.58-.881-.857-1.8-1.66-2.7-2.455s-1.815-1.561-2.712-2.311-1.792-1.473-2.685-2.157l-1.319-1.023-1.315-.961c-1.712-1.289-3.408-2.4-4.956-3.444-1.58-1-3.019-1.925-4.342-2.67S4-143.786,3.034-144.283c-.958-.515-1.724-.9-2.24-1.165L0-145.857l.752.482c.492.312,1.2.783,2.127,1.353s2,1.328,3.263,2.159c.632.412,1.283.882,1.97,1.378l2.173,1.539c1.481,1.118,3.1,2.3,4.759,3.633l1.267,1,1.268,1.061c.854.716,1.74,1.43,2.6,2.2,1.756,1.507,3.507,3.136,5.266,4.811.879.838,1.761,1.687,2.615,2.57l1.3,1.315,1.267,1.348c1.707,1.781,3.338,3.634,4.92,5.477,1.554,1.866,3.089,3.7,4.487,5.546,1.416,1.831,2.73,3.643,3.959,5.375,1.2,1.75,2.337,3.408,3.328,4.976,2,3.127,3.558,5.8,4.571,7.721.508.958.905,1.713,1.165,2.234l.389.8" transform="translate(0 145.857)" fill="url(#linear-gradient-7)"/>
      </g>
      <g id="g90" transform="translate(44.118)">
        <path id="path92" d="M31.248-107.39s17.133-38.8-37.73-68.852c0,0,11.517,10.421,15.463,32.391S22.429-111.76,31.248-107.39" transform="translate(6.482 176.242)" fill="url(#linear-gradient-6)"/>
      </g>
      <g id="g94" transform="translate(49.391 4.622)">
        <path id="path96" d="M30.162-90.394s-.011-.259-.058-.745-.114-1.2-.232-2.1c-.135-.9-.28-2-.529-3.245q-.183-.935-.388-1.986c-.152-.7-.336-1.422-.515-2.184-.334-1.53-.84-3.148-1.324-4.877l-.858-2.623-.451-1.355c-.16-.453-.343-.9-.516-1.361l-1.071-2.784c-.367-.939-.8-1.863-1.215-2.8-.432-.933-.815-1.9-1.3-2.822l-1.412-2.8-.718-1.393-.783-1.353-1.563-2.685c-.267-.44-.5-.9-.791-1.316l-.846-1.264-1.66-2.478c-.529-.824-1.108-1.594-1.689-2.336l-1.684-2.187c-.558-.7-1.051-1.423-1.63-2.04l-1.619-1.827-1.49-1.676c-.474-.531-.923-1.035-1.39-1.467l-2.362-2.285L0-148.349l1.85,2.179L3.993-143.7c.428.463.834,1,1.264,1.562l1.37,1.755c.95,1.226,2.018,2.52,3.008,4l1.568,2.234L12.017-133c.28.384.517.8.781,1.207l1.572,2.489c.529.842,1.083,1.682,1.569,2.574l1.517,2.661.761,1.341.7,1.379,1.416,2.743c.482.907.867,1.856,1.3,2.772.411.927.862,1.829,1.251,2.744l1.129,2.719c.182.447.376.887.545,1.33l.493,1.322.962,2.554.823,2.45.4,1.165.345,1.134.647,2.129.537,1.935c.335,1.216.588,2.287.8,3.168.195.885.365,1.579.453,2.058s.142.733.142.733" transform="translate(0 148.349)" fill="url(#linear-gradient-9)"/>
      </g>
      <g id="g98" transform="translate(0 23.764)">
        <path id="path100" d="M82.468-70.569S74.617-120.67,0-115.43c0,0,18.323,3.036,36.5,22.583S70.772-69.262,82.468-70.569" transform="translate(0 115.814)" fill="url(#linear-gradient-6)"/>
      </g>
      <g id="g102" transform="translate(11.292 24.388)">
        <path id="path104" d="M67.811-60.506l-.544-.708c-.365-.454-.89-1.131-1.612-1.945s-1.6-1.8-2.648-2.9-2.248-2.322-3.612-3.6-2.871-2.633-4.506-4.018c-1.65-1.366-3.4-2.8-5.286-4.184C47.729-79.26,45.75-80.651,43.7-82c-2.067-1.328-4.184-2.652-6.356-3.884L35.709-86.8l-1.651-.875c-1.093-.592-2.2-1.144-3.305-1.685-1.093-.56-2.206-1.059-3.3-1.554-1.091-.51-2.192-.959-3.27-1.414s-2.145-.882-3.2-1.275l-1.561-.591-1.539-.532c-2.015-.73-3.962-1.294-5.749-1.838-1.8-.49-3.451-.955-4.934-1.278s-2.762-.65-3.834-.841c-1.067-.21-1.911-.351-2.483-.456L0-99.3l.861.241c.562.154,1.381.395,2.43.669s2.3.681,3.752,1.107c.726.208,1.486.467,2.288.739l2.529.833c1.744.635,3.643,1.291,5.616,2.077l1.5.583,1.523.642c1.026.434,2.083.856,3.134,1.343,2.121.926,4.273,1.969,6.445,3.055,1.087.543,2.178,1.1,3.255,1.689l1.625.877,1.606.917c2.155,1.2,4.257,2.495,6.311,3.792,2.033,1.328,4.039,2.632,5.917,3.985,1.891,1.335,3.679,2.682,5.362,3.976,1.662,1.321,3.234,2.573,4.642,3.78,2.825,2.4,5.1,4.5,6.636,6.04.767.766,1.368,1.371,1.769,1.793l.608.653" transform="translate(0 99.298)" fill="url(#linear-gradient-11)"/>
      </g>
      <g id="g78" transform="translate(58.384 54.914)">
        <path id="path80" d="M-24.535,0a15.73,15.73,0,0,0-15.73,15.73H-8.8A15.73,15.73,0,0,0-24.535,0" transform="translate(40.265)" fill="url(#linear-gradient-12)"/>
      </g>
    </g>
    <g id="Group_10452" data-name="Group 10452" transform="translate(204 138)">
      <g id="Group_10462" data-name="Group 10462" transform="translate(0 0)">
        <g id="g114" transform="translate(1.088 1.439)">
          <path id="path116" d="M-121.919-75.969s-5.223-36.448,47.685-48.707c0,0-12.071,6.011-20.522,23.45s-18.767,23.672-27.163,25.256" transform="translate(122.061 124.676)" fill="url(#linear-gradient-6)"/>
        </g>
        <g id="g118" transform="translate(4.619 4.066)">
          <path id="path120" d="M-99.328-64.53s.382-.818,1.134-2.2,1.871-3.335,3.324-5.6c.721-1.137,1.547-2.34,2.42-3.61.893-1.256,1.848-2.571,2.876-3.9s2.13-2.67,3.259-4.025c1.149-1.338,2.332-2.683,3.572-3.975l.919-.979.941-.955c.62-.641,1.26-1.257,1.9-1.866,1.277-1.216,2.547-2.4,3.822-3.494.625-.562,1.268-1.08,1.888-1.6l.92-.771.919-.726c1.2-.967,2.378-1.827,3.453-2.641l1.577-1.117c.5-.359.973-.7,1.432-1,.917-.6,1.693-1.162,2.365-1.574l2.087-1.338-2.206,1.137c-.705.358-1.529.85-2.486,1.394s-2,1.218-3.152,1.94c-1.125.757-2.358,1.563-3.6,2.5l-.956.7-.958.742c-.65.5-1.3,1.016-1.951,1.566s-1.321,1.091-1.969,1.677-1.324,1.16-1.963,1.782-1.3,1.23-1.936,1.874l-.959.959-.937.984c-1.245,1.318-2.433,2.689-3.585,4.051S-89.4-81.837-90.4-80.465c-1.017,1.361-1.923,2.732-2.776,4.033s-1.605,2.566-2.269,3.751A63.236,63.236,0,0,0-98.4-66.834c-.322.721-.544,1.3-.7,1.7l-.226.608" transform="translate(99.328 105.902)" fill="url(#linear-gradient-14)"/>
        </g>
        <g id="g122" transform="translate(0)">
          <path id="path124" d="M-68.284-77.973s-12.44-28.169,27.395-49.992c0,0-8.362,7.567-11.228,23.519s-9.764,23.3-16.167,26.473" transform="translate(70.122 127.965)" fill="url(#linear-gradient-6)"/>
        </g>
        <g id="g126" transform="translate(3.505 3.357)">
          <path id="path128" d="M-56.059-65.632s.03-.186.1-.532.19-.851.332-1.493c.158-.639.344-1.416.588-2.3l.392-1.4q.224-.736.471-1.545.123-.4.251-.823l.291-.846.6-1.778.7-1.853.359-.959c.123-.322.264-.641.4-.966l.82-1.973c.282-.665.61-1.318.909-1.992.315-.665.595-1.354.945-2.012l1.028-1.991.506-1,.552-.974,1.1-1.931c.353-.647.755-1.257,1.138-1.868l1.141-1.807c.191-.294.363-.6.566-.877l.591-.836,1.137-1.623c.717-1.072,1.492-2.012,2.18-2.9l.993-1.276c.311-.409.606-.8.916-1.135l1.552-1.8,1.341-1.585-1.51,1.423-1.718,1.656c-.34.314-.666.679-1.011,1.064l-1.083,1.216-1.177,1.326c-.421.447-.779.971-1.185,1.48l-1.224,1.588c-.423.539-.843,1.1-1.228,1.7l-1.206,1.8-.615.918c-.211.3-.38.637-.574.956l-1.136,1.95-.569.983-.521,1.011-1.025,2.03c-.348.671-.627,1.373-.94,2.05s-.616,1.354-.882,2.037l-.777,2.022c-.126.333-.258.659-.375.989l-.327.984-.622,1.905c-.35,1.256-.716,2.431-.957,3.543-.129.553-.263,1.081-.372,1.587l-.28,1.443c-.18.9-.283,1.7-.38,2.357s-.138,1.173-.166,1.527-.041.541-.041.541" transform="translate(56.059 107.712)" fill="url(#linear-gradient-16)"/>
        </g>
        <g id="g130" transform="translate(1.662 16.611)">
          <path id="path132" d="M-153.27-51.238s5.7-36.377,59.878-32.572c0,0-13.3,2.2-26.5,16.4s-24.886,17.124-33.378,16.175" transform="translate(153.27 84.089)" fill="url(#linear-gradient-6)"/>
        </g>
        <g id="g134" transform="translate(6.283 17.79)">
          <path id="path136" d="M-126.029-43.931s.605-.67,1.731-1.772,2.766-2.639,4.821-4.381c1.023-.876,2.165-1.784,3.372-2.741,1.223-.939,2.521-1.916,3.894-2.885s2.82-1.927,4.3-2.891c1.49-.942,3.016-1.88,4.581-2.752l1.166-.666,1.179-.637c.781-.431,1.574-.832,2.362-1.227,1.577-.788,3.139-1.547,4.679-2.219.762-.354,1.529-.66,2.274-.976l1.105-.467,1.092-.425c1.432-.571,2.809-1.049,4.075-1.511l1.836-.606c.582-.2,1.135-.384,1.662-.534,1.052-.3,1.96-.614,2.722-.811l2.388-.667-2.442.439c-.779.135-1.711.364-2.786.6s-2.272.577-3.582.93c-1.3.394-2.712.8-4.176,1.331l-1.118.386-1.133.428c-.767.284-1.544.589-2.325.925s-1.583.656-2.375,1.026-1.605.72-2.4,1.128-1.606.793-2.4,1.223l-1.2.635-1.185.666c-1.577.895-3.115,1.856-4.616,2.821-1.491.98-2.928,1.991-4.288,3.009-1.371,1-2.639,2.048-3.837,3.04s-2.288,1.983-3.27,2.92a63.411,63.411,0,0,0-4.543,4.723c-.52.6-.9,1.086-1.166,1.416l-.394.515" transform="translate(126.029 72.097)" fill="url(#linear-gradient-18)"/>
        </g>
      </g>
      <g id="Group_10461" data-name="Group 10461" transform="translate(0.299 28.732)">
        <g id="g106" transform="translate(0)">
          <path id="path108" d="M-34.482,0A22.108,22.108,0,0,1-12.374,22.108H-56.591A22.108,22.108,0,0,1-34.482,0" transform="translate(56.591)" fill="url(#linear-gradient-19)"/>
        </g>
        <g id="g110" transform="translate(24.24 8.377)">
          <path id="path112" d="M-24.535,0A15.73,15.73,0,0,1-8.8,15.73H-40.265A15.73,15.73,0,0,1-24.535,0" transform="translate(40.265)" fill="url(#linear-gradient-20)"/>
        </g>
      </g>
    </g>
  </g>
</svg>
