<svg xmlns="http://www.w3.org/2000/svg" xmlns:xlink="http://www.w3.org/1999/xlink" width="184" height="220" viewBox="0 0 184 220">
  <defs>
    <linearGradient id="linear-gradient" x1="1" x2="0" y2="1" gradientUnits="objectBoundingBox">
      <stop offset="0" stop-color="#766dfc"/>
      <stop offset="1" stop-color="#4f2da7"/>
    </linearGradient>
    <linearGradient id="linear-gradient-2" x1="0.5" x2="0.5" y2="1" gradientUnits="objectBoundingBox">
      <stop offset="0" stop-color="#ffda00"/>
      <stop offset="1" stop-color="#ff5b41"/>
    </linearGradient>
    <linearGradient id="linear-gradient-3" x1="0.5" x2="0.5" y2="1" gradientUnits="objectBoundingBox">
      <stop offset="0" stop-color="#766dfc"/>
      <stop offset="1" stop-color="#2a1462"/>
    </linearGradient>
  </defs>
  <g id="ill_appointments_" data-name="ill_appointments " transform="translate(-22 0)">
    <g id="calendar" transform="translate(22 0)">
      <path id="Path_8418" data-name="Path 8418" d="M217.673,238.577H60.1a9,9,0,0,1-9-8.991V129.58a9,9,0,0,1,9-8.99H217.673a9,9,0,0,1,9,8.99V229.587A9,9,0,0,1,217.673,238.577Zm0,0" transform="translate(-51.045 -67.552)" fill="#fff"/>
      <path id="Path_8420" data-name="Path 8420" d="M226.61,70.817v26.52H51.031c-.117-2.084,0-8.989,0-8.989V70.817a9,9,0,0,1,9-8.989H217.607A9,9,0,0,1,226.61,70.817Zm0,0" transform="translate(-50.979 -34.635)" fill="url(#linear-gradient)"/>
      <path id="Path_8422" data-name="Path 8422" d="M121.639,11.238v33.71a4.5,4.5,0,0,1-4.5,4.494H103.631a4.5,4.5,0,0,1-4.5-4.494V11.238a11.255,11.255,0,0,1,22.51,0ZM221.134,0A11.245,11.245,0,0,0,209.88,11.238v33.71a4.5,4.5,0,0,0,4.5,4.494h13.507a4.5,4.5,0,0,0,4.5-4.494V11.238A11.246,11.246,0,0,0,221.134,0Zm0,0" transform="translate(-77.918 0)" fill="url(#linear-gradient-2)"/>
      <path id="Path_8424" data-name="Path 8424" d="M142.714,186.2v13.483a2.25,2.25,0,0,1-2.251,2.249H104.446a2.25,2.25,0,0,1-2.251-2.249V186.2a2.25,2.25,0,0,1,2.251-2.247h36.017A2.25,2.25,0,0,1,142.714,186.2Zm96.793-2.247H203.492a2.249,2.249,0,0,0-2.251,2.247v13.483a2.249,2.249,0,0,0,2.251,2.249h36.015a2.251,2.251,0,0,0,2.253-2.249V186.2A2.25,2.25,0,0,0,239.507,183.954Zm-99.044,26.968H104.446a2.25,2.25,0,0,0-2.251,2.247v13.485a2.25,2.25,0,0,0,2.251,2.247h36.017a2.25,2.25,0,0,0,2.251-2.247V213.169A2.25,2.25,0,0,0,140.463,210.922Zm49.522,0H153.968a2.25,2.25,0,0,0-2.251,2.247v13.485a2.25,2.25,0,0,0,2.251,2.247h36.017a2.25,2.25,0,0,0,2.251-2.247V213.169A2.25,2.25,0,0,0,189.985,210.922Zm49.522,0H203.492a2.249,2.249,0,0,0-2.251,2.247v13.485a2.249,2.249,0,0,0,2.251,2.247h36.015a2.25,2.25,0,0,0,2.253-2.247V213.169A2.25,2.25,0,0,0,239.507,210.922Zm0,0" transform="translate(-79.633 -103.048)" fill="#e1dfff"/>
      <path id="Path_8425" data-name="Path 8425" d="M142.714,240.136v13.485a2.25,2.25,0,0,1-2.251,2.247H104.446a2.25,2.25,0,0,1-2.251-2.247V240.136a2.25,2.25,0,0,1,2.251-2.247h36.017A2.25,2.25,0,0,1,142.714,240.136Zm47.271-56.183H153.968a2.25,2.25,0,0,0-2.251,2.247v13.483a2.25,2.25,0,0,0,2.251,2.249h36.017a2.25,2.25,0,0,0,2.251-2.249V186.2A2.25,2.25,0,0,0,189.985,183.953Zm0,0" transform="translate(-79.633 -103.047)" fill="#837bfc"/>
    </g>
    <g id="clock" transform="translate(89.624 103.557)">
      <path id="Path_8426" data-name="Path 8426" d="M319.747,293.271a58.188,58.188,0,1,1-58.189-58.221A58.205,58.205,0,0,1,319.747,293.271Zm0,0" transform="translate(-203.371 -235.05)" fill="#331b72"/>
      <path id="Path_8427" data-name="Path 8427" d="M338.318,293.844a58.221,58.221,0,0,1-50.952,57.776,58.232,58.232,0,0,1,0-115.55A58.22,58.22,0,0,1,338.318,293.844Zm0,0" transform="translate(-221.942 -235.623)" fill="url(#linear-gradient-3)"/>
      <path id="Path_8428" data-name="Path 8428" d="M324.815,316.235a40.285,40.285,0,1,1-40.285-40.306A40.3,40.3,0,0,1,324.815,316.235Zm0,0" transform="translate(-226.343 -258.014)" fill="#fff"/>
      <path id="Path_8429" data-name="Path 8429" d="M334.955,253.618v47.409a.9.9,0,0,1-.895.9H326.9a.9.9,0,0,1-.895-.9V253.618a13.134,13.134,0,0,1,3.843-9.283.893.893,0,0,1,1.266,0A13.127,13.127,0,0,1,334.955,253.618Zm0,0" transform="translate(-272.292 -240.118)" fill="#ef487d"/>
      <path id="Path_8430" data-name="Path 8430" d="M340.89,366.642H313.941a.817.817,0,0,1-.7-.9v-7.164a.817.817,0,0,1,.7-.9H340.89a9.252,9.252,0,0,1,7.239,3.847,1.077,1.077,0,0,1,0,1.265A9.251,9.251,0,0,1,340.89,366.642Zm0,0" transform="translate(-259.535 -303.941)" fill="#ef487d"/>
      <path id="Path_8432" data-name="Path 8432" d="M334.324,359.291a6.714,6.714,0,1,1-6.715-6.717A6.718,6.718,0,0,1,334.324,359.291Zm0,0" transform="translate(-269.421 -301.07)" fill="#3a1c7d"/>
    </g>
  </g>
</svg>
