<svg xmlns="http://www.w3.org/2000/svg" width="33" height="22" fill="none" viewBox="0 0 33 22">
    <path fill="#fff" d="M22.243 4.211l-8.346-2.879a3.232 3.232 0 0 0-2.433.149l-.42.203a2.362 2.362 0 0 1-1.83.1l-.717-.256c-.034-.02-.067-.04-.101-.054L4.125.021a.413.413 0 0 0-.311.02.4.4 0 0 0-.203.23L.023 10.74c-.075.21.04.44.25.514l4.277 1.466c.048.02.088.027.136.027a.4.4 0 0 0 .378-.27l3.453-10.07.433.156c.797.284 1.696.23 2.46-.142l.419-.203a2.374 2.374 0 0 1 1.81-.114l8.036 2.77c-.06.352-.23.933-.67 1.237-.391.27-.959.284-1.675.034l-3.507-1.196a.417.417 0 0 0-.325.027.429.429 0 0 0-.202.256c-.007.02-.528 1.94-2.15 2.805-1.027.554-2.297.574-3.777.068a.405.405 0 0 0-.514.25c-.074.21.04.439.25.513.791.27 1.541.406 2.237.406.798 0 1.527-.176 2.19-.534 1.446-.777 2.142-2.197 2.405-2.9l3.116 1.068c.98.338 1.784.291 2.406-.135 1-.689 1.047-2.108 1.054-2.169a.402.402 0 0 0-.27-.392zm-17.807 7.61L.92 10.616 4.246.92l3.42 1.169.08.04.014.007-3.324 9.684z"/>
    <path fill="#fff" d="M32.96 10.205L28.082.291a.4.4 0 0 0-.54-.182l-4.062 1.987a.407.407 0 0 0-.189.54l4.73 9.664-1.587 1.453a19.006 19.006 0 0 1-4.508 3.075l-7.778 3.805a.873.873 0 0 1-.69.04.918.918 0 0 1-.52-.46.873.873 0 0 1-.04-.689.918.918 0 0 1 .459-.52l4.345-2.129a.407.407 0 0 0 .19-.54.409.409 0 0 0-.541-.19l-6.393 3.13a.908.908 0 0 1-1.21-.413.91.91 0 0 1 .412-1.21l6.245-3.054a.407.407 0 0 0 .189-.54.409.409 0 0 0-.54-.19l-4.623 2.264-2.386 1.162a.908.908 0 0 1-1.21-.412.908.908 0 0 1 .413-1.21l.77-.378 5.59-2.737a.407.407 0 0 0 .188-.54.409.409 0 0 0-.54-.19l-5.589 2.737a.874.874 0 0 1-.69.04.918.918 0 0 1-.52-.459.873.873 0 0 1-.04-.69.917.917 0 0 1 .46-.52l2.966-1.453a.407.407 0 0 0 .19-.54.409.409 0 0 0-.541-.19l-2.967 1.454a1.718 1.718 0 0 0-.79 2.297c.155.325.412.582.722.75a1.713 1.713 0 0 0 1.426 2.92 1.71 1.71 0 0 0 2.44 1.818l.736-.365c-.033.317.02.635.17.926a1.719 1.719 0 0 0 2.297.79l7.778-3.804A19.746 19.746 0 0 0 27 14.328l1.764-1.622 4.007-1.96a.407.407 0 0 0 .19-.54zm-4.257 1.65l-4.507-9.212 3.338-1.628 4.5 9.21-3.33 1.63z"/>
</svg>
