<svg xmlns="http://www.w3.org/2000/svg" width="160" height="160" viewBox="0 0 160 160">
    <defs>
        <linearGradient id="prefix__linear-gradient" x1=".136" x2=".823" y1=".157" y2=".883" gradientUnits="objectBoundingBox">
            <stop offset="0" stop-color="#3fefa2"/>
            <stop offset="1" stop-color="#0c9b94"/>
        </linearGradient>
    </defs>
    <g id="prefix__send_success" transform="translate(-100 -180)">
        <circle id="prefix__ellipse_3" cx="80" cy="80" r="80" fill="#27d792" opacity="0.1" transform="translate(100 180)"/>
        <circle id="prefix__ellipse_2" cx="65" cy="65" r="65" fill="#27d792" opacity="0.2" transform="translate(115 195)"/>
        <circle id="prefix__ellipse_1" cx="50" cy="50" r="50" fill="url(#prefix__linear-gradient)" transform="translate(130 210)"/>
        <g id="prefix__ic_check_mark" transform="translate(158 244)">
            <path id="prefix__ic_check_mark-2" fill="#fff" stroke="#fff" stroke-width="4px" d="M4.173 15.49a2.432 2.432 0 0 0-3.457 0 2.474 2.474 0 0 0 0 3.481l12.222 12.308a2.432 2.432 0 0 0 3.457 0L43.284 4.2a2.474 2.474 0 0 0 0-3.481 2.432 2.432 0 0 0-3.457 0l-25.16 25.338z" data-name="ic_check_mark"/>
        </g>
    </g>
</svg>
