<svg xmlns="http://www.w3.org/2000/svg" width="25" height="31" fill="none" viewBox="0 0 25 31">
    <path fill="#fff" d="M21.958 9.042c-.53 0-1.025.161-1.436.436a2.59 2.59 0 0 0-2.439-1.728c-.53 0-1.025.161-1.436.437a2.59 2.59 0 0 0-2.439-1.729c-.47 0-.912.127-1.291.348V2.583A2.586 2.586 0 0 0 10.333 0 2.586 2.586 0 0 0 7.75 2.583v15.101L4.2 15.908a3.893 3.893 0 0 0-1.733-.408 2.471 2.471 0 0 0-1.744 4.22l8.352 8.352A9.931 9.931 0 0 0 16.145 31c4.63 0 8.397-3.767 8.397-8.396V11.625a2.586 2.586 0 0 0-2.584-2.583zm1.292 13.562c0 3.918-3.188 7.104-7.105 7.104a8.639 8.639 0 0 1-6.155-2.55l-8.353-8.353a1.17 1.17 0 0 1-.345-.838c0-.648.527-1.175 1.175-1.175.4 0 .797.094 1.155.272l4.486 2.243a.646.646 0 0 0 .934-.578V2.583c0-.711.578-1.291 1.291-1.291s1.292.58 1.292 1.291v12.271a.646.646 0 0 0 1.292 0V9.042c0-.712.578-1.292 1.291-1.292s1.292.58 1.292 1.292v5.812a.646.646 0 0 0 1.292 0v-4.52c0-.712.578-1.292 1.291-1.292s1.292.58 1.292 1.291v4.521a.646.646 0 0 0 1.292 0v-3.229c0-.712.578-1.292 1.291-1.292s1.292.58 1.292 1.292v10.98z"/>
</svg>
