<svg xmlns="http://www.w3.org/2000/svg" width="37" height="36" fill="none" viewBox="0 0 37 36">
    <path fill="#fff" d="M36.921 27.465a6.44 6.44 0 0 0-1.626-2.696 6.398 6.398 0 0 0-4.554-1.886c-.873 0-1.737.178-2.54.52l-6.335-6.334 8.41-8.347 1.993-.056a.704.704 0 0 0 .584-.345l2.85-4.793a.704.704 0 0 0-.105-.859L33.134.206A.704.704 0 0 0 32.276.1l-4.793 2.85a.704.704 0 0 0-.345.585L27.08 5.52l-8.39 8.375-5.757-5.757a6.44 6.44 0 0 0-9.917-6.454.704.704 0 0 0 .05 1.196l3.195 1.78c.704.402.845 1.599.275 2.612-.57 1.014-1.661 1.534-2.372 1.14L1.202 6.808a.704.704 0 0 0-1.042.661 6.44 6.44 0 0 0 8.96 5.518l5.236 5.237-2.266 2.266-.514-.507a1.471 1.471 0 0 0-2.034 0l-.704.704a1.408 1.408 0 0 0-.077 1.936L.434 30.935a1.408 1.408 0 0 0 0 2.034l2.38 2.379a1.408 1.408 0 0 0 2.033 0l8.334-8.326a1.408 1.408 0 0 0 1.935-.078l.704-.704a1.408 1.408 0 0 0 0-2.034l-.514-.514 2.253-2.301 6.827 6.827a6.44 6.44 0 0 0 10.951 5.574.704.704 0 0 0-.316-1.14l-3.963-1.063a1.302 1.302 0 0 1-.83-.809 2.583 2.583 0 0 1-.07-1.661c.295-1.105 1.231-1.893 2.02-1.682l3.92 1.056c.063.009.127.009.19 0a.704.704 0 0 0 .633-1.028zM28.257 6.301a.704.704 0 0 0 .204-.479l.056-1.88 3.991-2.371 1.69 1.69-2.323 3.983-1.915.07a.704.704 0 0 0-.479.204l-8.586 8.58-1.21-1.21L28.256 6.3zM3.847 34.348l-2.413-2.4 8.368-8.347 1.21 1.21 1.155 1.197-8.32 8.34zm10.298-8.445l-.93-.937-.358-.358-2.956-2.978.704-.704 4.223 4.28-.683.697zm.134-3.21l-1.21-1.21 2.265-2.267 1.211 1.21-2.266 2.267zm18.243 3.385a2.461 2.461 0 0 0-.64-.084 3.449 3.449 0 0 0-3.104 2.759c-.24.848-.194 1.75.133 2.569a2.682 2.682 0 0 0 1.767 1.619l2.618.704a5.033 5.033 0 0 1-7.474-5.476.704.704 0 0 0-.19-.655L9.767 11.636a.704.704 0 0 0-.83-.099 5.054 5.054 0 0 1-2.358.584 5.025 5.025 0 0 1-4.73-3.315l1.605.894c.374.21.796.319 1.224.317A3.674 3.674 0 0 0 7.74 8.018c.957-1.71.584-3.744-.823-4.533l-2.049-1.16A5.032 5.032 0 0 1 11.463 8.2a.704.704 0 0 0 .19.655l15.9 15.892c.217.218.55.27.823.127a5.063 5.063 0 0 1 2.358-.584 5.026 5.026 0 0 1 4.336 2.477l-2.548-.69z"/>
</svg>
