<svg xmlns="http://www.w3.org/2000/svg" width="360" height="320" viewBox="0 0 360 320">
    <defs>
        <clipPath id="clip-path">
            <path id="mask" fill="#7534f8" d="M0 0H360V320H0z" opacity="0.3"/>
        </clipPath>
        <clipPath id="clip-path-2">
            <path id="path574" d="M2092.117-369.182H-42.923V728.6h2135.04z" transform="translate(42.923 369.182)"/>
        </clipPath>
        <clipPath id="clip-path-3">
            <path id="path578" d="M2092.117-182.882H-42.923v590.23h2135.04z" transform="translate(42.923 182.882)"/>
        </clipPath>
        <clipPath id="clip-path-4">
            <path id="path582" d="M2053.96-191.718H-42.207v612.841H2053.96z" transform="translate(42.207 191.718)"/>
        </clipPath>
        <clipPath id="clip-path-5">
            <path id="path586" d="M2015.807-206.5H-41.488v651.652h2057.3z" transform="translate(41.488 206.501)"/>
        </clipPath>
        <clipPath id="clip-path-6">
            <path id="path590" d="M1977.647-221.285H-40.766v690.469h2018.413z" transform="translate(40.766 221.285)"/>
        </clipPath>
        <clipPath id="clip-path-7">
            <path id="path594" d="M1939.492-236.069H-40.043v729.284h1979.535z" transform="translate(40.043 236.069)"/>
        </clipPath>
        <clipPath id="clip-path-8">
            <path id="path598" d="M1901.324-250.854H-39.316v768.1h1940.64z" transform="translate(39.316 250.854)"/>
        </clipPath>
        <clipPath id="clip-path-9">
            <path id="path602" d="M1863.159-265.638H-38.586v806.915h1901.745z" transform="translate(38.586 265.638)"/>
        </clipPath>
        <clipPath id="clip-path-10">
            <path id="path606" d="M1824.99-280.426H-37.856v845.741H1824.99z" transform="translate(37.856 280.426)"/>
        </clipPath>
        <clipPath id="clip-path-11">
            <path id="path610" d="M1786.82-295.214H-37.122V589.35H1786.82z" transform="translate(37.122 295.214)"/>
        </clipPath>
        <clipPath id="clip-path-12">
            <path id="path614" d="M1748.644-310.006H-36.386V613.4h1785.03z" transform="translate(36.386 310.006)"/>
        </clipPath>
        <clipPath id="clip-path-13">
            <path id="path618" d="M1710.47-324.8H-35.648v962.236H1710.47z" transform="translate(35.648 324.798)"/>
        </clipPath>
        <clipPath id="clip-path-14">
            <path id="path622" d="M1672.3-339.591H-34.908V661.484H1672.3z" transform="translate(34.908 339.591)"/>
        </clipPath>
        <clipPath id="clip-path-15">
            <path id="path626" d="M1634.119-354.386H-34.167V685.527h1668.286z" transform="translate(34.167 354.386)"/>
        </clipPath>
        <clipPath id="clip-path-16">
            <path id="path630" d="M1595.939-369.182H-33.424V709.575h1629.363z" transform="translate(33.424 369.182)"/>
        </clipPath>
    </defs>
    <g id="wave" clip-path="url(#clip-path)" opacity="0.35">
        <g id="wave-2" data-name="wave" transform="translate(-1211.814 -438)">
            <g id="wave-3" clip-path="url(#clip-path-2)" data-name="wave" opacity="0.4">
                <g id="g644" transform="translate(0 507.547)">
                    <g id="g642">
                        <g id="g640" clip-path="url(#clip-path-3)">
                            <g id="g638" transform="translate(1.057 1.815)">
                                <path id="path636" fill="none" stroke="#fff" stroke-miterlimit="10" stroke-width="1.333px" d="M-1022.632 371.685C-212.342-863.356 295.752 317.2 1110.743-199.532" transform="translate(1022.632 215.549)"/>
                            </g>
                        </g>
                    </g>
                </g>
                <g id="g656" transform="translate(37.379 483.475)">
                    <g id="g654">
                        <g id="g652" clip-path="url(#clip-path-4)">
                            <g id="g650" transform="translate(.99 1.515)">
                                <path id="path648" fill="none" stroke="#fff" stroke-miterlimit="10" stroke-width="1.256px" d="M-1004.028 386.226C-225.772-793 287.528 328.666 1090.537-223.982" transform="translate(1004.028 223.982)"/>
                            </g>
                        </g>
                    </g>
                </g>
                <g id="g668" transform="translate(74.751 443.202)">
                    <g id="g666">
                        <g id="g664" clip-path="url(#clip-path-5)">
                            <g id="g662" transform="translate(.93 1.397)">
                                <path id="path660" fill="none" stroke="#fff" stroke-miterlimit="10" stroke-width="1.18px" d="M-985.426 410.908C-239.2-712.508 279.305 350.274 1070.331-238.3" transform="translate(985.426 238.295)"/>
                            </g>
                        </g>
                    </g>
                </g>
                <g id="g680" transform="translate(112.127 402.925)">
                    <g id="g678">
                        <g id="g676" clip-path="url(#clip-path-6)">
                            <g id="g674" transform="translate(.866 1.281)">
                                <path id="path672" fill="none" stroke="#fff" stroke-miterlimit="10" stroke-width="1.103px" d="M-966.822 435.589c714.188-1067.6 1237.9-63.706 2016.945-688.2" transform="translate(966.822 252.609)"/>
                            </g>
                        </g>
                    </g>
                </g>
                <g id="g692" transform="translate(149.497 362.648)">
                    <g id="g690">
                        <g id="g688" clip-path="url(#clip-path-7)">
                            <g id="g686" transform="translate(.805 1.169)">
                                <path id="path684" fill="none" stroke="#fff" stroke-miterlimit="10" stroke-width="1.025px" d="M-948.22 460.27c682.156-1011.789 1211.077-66.783 1978.14-727.192" transform="translate(948.22 266.922)"/>
                            </g>
                        </g>
                    </g>
                </g>
                <g id="g704" transform="translate(186.875 322.367)">
                    <g id="g702">
                        <g id="g700" clip-path="url(#clip-path-8)">
                            <g id="g698" transform="translate(.738 1.057)">
                                <path id="path696" fill="none" stroke="#fff" stroke-miterlimit="10" stroke-width="0.949px" d="M-929.618 484.951c650.124-955.976 1184.25-69.851 1939.333-766.186" transform="translate(929.618 281.235)"/>
                            </g>
                        </g>
                    </g>
                </g>
                <g id="g716" transform="translate(224.248 282.091)">
                    <g id="g714">
                        <g id="g712" clip-path="url(#clip-path-9)">
                            <g id="g710" transform="translate(.677 .946)">
                                <path id="path708" fill="none" stroke="#fff" stroke-miterlimit="10" stroke-width="0.872px" d="M-911.014 509.63C-292.925-390.533 246.408 436.7 989.508-295.547" transform="translate(911.014 295.547)"/>
                            </g>
                        </g>
                    </g>
                </g>
                <g id="g728" transform="translate(261.623 241.803)">
                    <g id="g726">
                        <g id="g724" clip-path="url(#clip-path-10)">
                            <g id="g722" transform="translate(.613 .841)">
                                <path id="path720" fill="none" stroke="#fff" stroke-miterlimit="10" stroke-width="0.795px" d="M-892.411 534.312c586.054-844.347 1130.594-76 1861.714-844.172" transform="translate(892.411 309.861)"/>
                            </g>
                        </g>
                    </g>
                </g>
                <g id="g740" transform="translate(298.996 201.515)">
                    <g id="g738">
                        <g id="g736" clip-path="url(#clip-path-11)">
                            <g id="g734" transform="translate(.552 .741)">
                                <path id="path732" fill="none" stroke="#fff" stroke-miterlimit="10" stroke-width="0.717px" d="M-873.807 558.991c554.022-788.53 1103.766-79.075 1822.9-883.163" transform="translate(873.807 324.173)"/>
                            </g>
                        </g>
                    </g>
                </g>
                <g id="g752" transform="translate(336.372 161.216)">
                    <g id="g750">
                        <g id="g748" clip-path="url(#clip-path-12)">
                            <g id="g746" transform="translate(.488 .647)">
                                <path id="path744" fill="none" stroke="#fff" stroke-miterlimit="10" stroke-width="0.641px" d="M-855.2 583.674c521.987-732.721 1076.94-82.148 1784.092-922.161" transform="translate(855.203 338.487)"/>
                            </g>
                        </g>
                    </g>
                </g>
                <g id="g764" transform="translate(373.745 120.918)">
                    <g id="g762">
                        <g id="g760" clip-path="url(#clip-path-13)">
                            <g id="g758" transform="translate(.427 .553)">
                                <path id="path756" fill="none" stroke="#fff" stroke-miterlimit="10" stroke-width="0.564px" d="M-836.6 608.353C-346.646-68.551 213.509 523.132 908.683-352.8" transform="translate(836.601 352.799)"/>
                            </g>
                        </g>
                    </g>
                </g>
                <g id="g776" transform="translate(411.115 80.616)">
                    <g id="g774">
                        <g id="g772" clip-path="url(#clip-path-14)">
                            <g id="g770" transform="translate(.367 .467)">
                                <path id="path768" fill="none" stroke="#fff" stroke-miterlimit="10" stroke-width="0.487px" d="M-818 633.035C-360.076 11.943 205.289 544.733 888.478-367.112" transform="translate(817.998 367.112)"/>
                            </g>
                        </g>
                    </g>
                </g>
                <g id="g788" transform="translate(448.487 40.31)">
                    <g id="g786">
                        <g id="g784" clip-path="url(#clip-path-15)">
                            <g id="g782" transform="translate(.306 .381)">
                                <path id="path780" fill="none" stroke="#fff" stroke-miterlimit="10" stroke-width="0.411px" d="M-799.4 657.716C-373.508 92.438 197.064 566.345 868.272-381.426" transform="translate(799.395 381.426)"/>
                            </g>
                        </g>
                    </g>
                </g>
                <g id="g800" transform="translate(485.86)">
                    <g id="g798">
                        <g id="g796" clip-path="url(#clip-path-16)">
                            <g id="g794" transform="translate(.245 .298)">
                                <path id="path792" fill="none" stroke="#fff" stroke-miterlimit="10" stroke-width="0.333px" d="M-780.791 682.4C-386.936 172.932 188.84 587.953 848.065-395.739" transform="translate(780.791 395.739)"/>
                            </g>
                        </g>
                    </g>
                </g>
            </g>
        </g>
    </g>
</svg>
