<svg width="41" height="42" viewBox="0 0 41 42" fill="none" xmlns="http://www.w3.org/2000/svg">
<path d="M4.68049 11.2867C4.62856 11.2867 4.5757 11.282 4.5244 11.2714C4.4731 11.2611 4.42273 11.2451 4.37456 11.226C4.32576 11.206 4.27947 11.181 4.23599 11.1522C4.1922 11.1228 4.15122 11.089 4.11431 11.0521C4.0774 11.0152 4.04393 10.9745 4.01515 10.9304C3.98637 10.8873 3.96135 10.8407 3.94133 10.7928C3.92131 10.744 3.90535 10.6933 3.89566 10.643C3.88533 10.591 3.8797 10.5382 3.8797 10.4859C3.8797 10.434 3.88533 10.3811 3.89566 10.3298C3.90535 10.2785 3.92131 10.2282 3.94133 10.18C3.96135 10.1312 3.98637 10.0849 4.01515 10.0418C4.04393 9.99765 4.0774 9.95667 4.11431 9.91976C4.15122 9.88316 4.1922 9.84938 4.23599 9.8206C4.27947 9.79182 4.32576 9.76711 4.37456 9.74709C4.42273 9.72707 4.4731 9.71174 4.5244 9.70142C4.62762 9.68046 4.73335 9.68046 4.83658 9.70142C4.88788 9.71174 4.93824 9.72707 4.98641 9.74709C5.03521 9.76711 5.08181 9.79182 5.12498 9.8206C5.16909 9.84938 5.20975 9.88316 5.24666 9.91976C5.28357 9.95667 5.31704 9.99765 5.34676 10.0418C5.37554 10.0849 5.40056 10.1312 5.42058 10.18C5.4406 10.2282 5.45562 10.2785 5.46594 10.3298C5.47657 10.3811 5.48127 10.434 5.48127 10.4859C5.48127 10.5382 5.47657 10.5907 5.46594 10.643C5.45562 10.6933 5.4406 10.744 5.42058 10.7928C5.40056 10.8407 5.37554 10.8873 5.34676 10.9304C5.31704 10.9745 5.28357 11.0152 5.24666 11.0521C5.20975 11.089 5.16909 11.1228 5.12498 11.1522C5.08181 11.181 5.03521 11.206 4.98641 11.226C4.93824 11.2451 4.88788 11.2611 4.83658 11.2714C4.78528 11.282 4.73272 11.2867 4.68049 11.2867Z" fill="white"/>
<path d="M34.3017 33.7758H13.609C13.1667 33.7758 12.8082 33.4174 12.8082 32.9751V29.8426C12.8082 29.4003 13.1667 29.0418 13.609 29.0418H34.3017C34.744 29.0418 35.1025 29.4003 35.1025 29.8426V32.9751C35.1025 33.4174 34.744 33.7758 34.3017 33.7758ZM14.4098 32.1743H33.5009V30.6434H14.4098V32.1743Z" fill="white"/>
<path d="M34.3017 36.7294C34.2494 36.7294 34.1966 36.7237 34.1453 36.7134C34.094 36.7028 34.0436 36.6878 33.9957 36.6677C33.9466 36.6477 33.9003 36.6227 33.8572 36.5939C33.8131 36.5645 33.7721 36.5317 33.7355 36.4948C33.6986 36.4569 33.6648 36.4162 33.636 36.3731C33.6072 36.329 33.5825 36.2824 33.5625 36.2345C33.5425 36.1857 33.5272 36.136 33.5168 36.0847C33.5062 36.0327 33.5009 35.9799 33.5009 35.9276C33.5009 35.8757 33.5062 35.8228 33.5168 35.7715C33.5272 35.7202 33.5425 35.6699 33.5625 35.6217C33.5825 35.5732 33.6072 35.5266 33.636 35.4834C33.6648 35.4393 33.6986 35.3984 33.7355 35.3615C33.7721 35.3249 33.8131 35.2911 33.8572 35.2623C33.9003 35.2335 33.9466 35.2088 33.9957 35.1888C34.0436 35.1688 34.094 35.1534 34.1453 35.1431C34.2488 35.1222 34.3552 35.1222 34.4584 35.1431C34.5091 35.1534 34.5594 35.1688 34.6082 35.1888C34.6564 35.2088 34.7027 35.2335 34.7458 35.2623C34.79 35.2911 34.8309 35.3249 34.8675 35.3615C35.0174 35.5113 35.1024 35.7171 35.1024 35.9276C35.1024 35.9799 35.0974 36.0327 35.0871 36.0847C35.0768 36.136 35.0615 36.1857 35.0414 36.2345C35.0214 36.2824 34.9967 36.329 34.9676 36.3731C34.9382 36.4162 34.9044 36.4569 34.8675 36.4948C34.8309 36.5317 34.79 36.5645 34.7458 36.5939C34.7027 36.6227 34.6564 36.6477 34.6082 36.6677C34.5594 36.6878 34.5091 36.7028 34.4584 36.7134C34.4065 36.7237 34.3536 36.7294 34.3017 36.7294Z" fill="white"/>
<path d="M30.8583 36.7287H13.609C13.1667 36.7287 12.8082 36.3703 12.8082 35.928C12.8082 35.486 13.1667 35.1272 13.609 35.1272H30.8583C31.3006 35.1272 31.6591 35.486 31.6591 35.928C31.6591 36.3703 31.3006 36.7287 30.8583 36.7287Z" fill="white"/>
<path d="M40.1117 7.72723H28.4131C28.2567 6.17666 27.374 4.83754 26.1118 4.05552V0.88086C26.1118 0.438553 25.7533 0.0800781 25.311 0.0800781H21.766C21.3237 0.0800781 20.9652 0.438553 20.9652 0.88086V4.05552C19.7027 4.83754 18.8203 6.17666 18.6636 7.72723H8.7042C7.90498 6.28958 6.37036 5.31456 4.61208 5.31456C3.36211 5.31456 2.1478 5.8285 1.28008 6.72438C0.419861 7.61275 -0.0337064 8.77732 0.00195345 10.0051V36.0705C-0.000548994 36.1587 -0.000236188 36.2473 0.00226626 36.3364C-0.0230709 37.5629 0.444886 38.7313 1.32043 39.6268C2.22256 40.549 3.47879 41.0779 4.7666 41.0779H40.1993C40.6416 41.0779 41.0001 40.7194 41.0001 40.2771V8.6156C41.0001 8.12575 40.6016 7.72723 40.1117 7.72723ZM32.8196 23.4701C32.7314 23.7266 32.5969 23.9587 32.4236 24.157L26.4816 12.1381C26.8378 11.8694 27.1563 11.5535 27.4278 11.1997L32.7217 21.8948C32.9638 22.3897 32.9985 22.949 32.8196 23.4701ZM23.5384 15.9396C22.3438 15.9396 21.3719 16.9115 21.3719 18.1061V18.1662H19.4037L22.015 12.8804C22.4948 13.0377 23.0069 13.1228 23.5384 13.1228C24.0701 13.1228 24.5822 13.0374 25.0617 12.8804L27.6733 18.1662H25.7049V18.1061C25.7049 16.9112 24.733 15.9396 23.5384 15.9396ZM24.1033 18.1058V19.8281C24.1033 20.1397 23.8499 20.393 23.5384 20.393C23.2268 20.393 22.9734 20.1397 22.9734 19.8281V18.1058C22.9734 17.7942 23.2268 17.5409 23.5384 17.5409C23.8499 17.5412 24.1033 17.7946 24.1033 18.1058ZM14.6531 24.157C14.4801 23.9587 14.3453 23.7266 14.2571 23.4701C14.0785 22.949 14.1132 22.3897 14.3535 21.8983L19.6493 11.1997C19.9208 11.5535 20.2392 11.8694 20.5955 12.1381L14.6531 24.157ZM22.5668 1.68164H24.5103V3.42053C24.1959 3.35703 23.8712 3.32356 23.5384 3.32356C23.2059 3.32356 22.8808 3.35703 22.5668 3.42053V1.68164ZM23.5384 4.92512C25.357 4.92512 26.8366 6.40469 26.8366 8.22334C26.8366 10.0417 25.357 11.5212 23.5384 11.5212C21.72 11.5212 20.2405 10.0417 20.2405 8.22334C20.2401 6.40469 21.7197 4.92512 23.5384 4.92512ZM2.43057 7.83859C3.00676 7.24363 3.78158 6.91613 4.61208 6.91613C6.30873 6.91613 7.68914 8.29622 7.68914 9.99288V32.8067C7.07386 32.2681 6.31624 31.888 5.48136 31.7307V13.6671C5.48136 13.2251 5.12289 12.8663 4.68058 12.8663C4.23828 12.8663 3.8798 13.2251 3.8798 13.6671V31.7085C3.04273 31.8436 2.25071 32.2068 1.60352 32.7564V9.99288C1.60352 9.98444 1.60352 9.97599 1.6032 9.96723C1.57755 9.17208 1.87159 8.41603 2.43057 7.83859ZM39.3985 39.4764H4.7666C3.9067 39.4764 3.06807 39.1232 2.46561 38.507C1.89192 37.9205 1.58569 37.1597 1.60352 36.3649C1.60352 36.3564 1.60352 36.3477 1.6032 36.3389C1.60352 36.3355 1.60352 36.3317 1.60352 36.328V36.0996C1.62979 35.3792 1.91914 34.7017 2.43057 34.1737C3.00676 33.5787 3.78127 33.2512 4.61208 33.2512C6.30873 33.2512 7.68914 34.6313 7.68914 36.328C7.68914 36.7703 8.04762 37.1287 8.48993 37.1287C8.93223 37.1287 9.29071 36.7703 9.29071 36.328V9.99288C9.29071 9.76766 9.27413 9.54588 9.24316 9.3288H18.7643C18.7668 9.33943 18.7696 9.35007 18.7722 9.3607L12.9161 21.1913C12.4863 22.0706 12.4247 23.0644 12.7425 23.99C12.9718 24.6578 13.3788 25.2321 13.9177 25.6619L13.0979 27.3386C12.9036 27.7358 13.0681 28.2157 13.4657 28.4096C13.579 28.465 13.6988 28.4913 13.8167 28.4913C14.1129 28.4913 14.3979 28.3261 14.5368 28.0421L18.6126 19.7677H21.3719V19.8281C21.3719 21.0227 22.3438 21.9946 23.5384 21.9946C24.733 21.9946 25.7052 21.0227 25.7052 19.8281V19.7677H28.4644L32.5403 28.0421C32.6792 28.3261 32.9641 28.4913 33.2604 28.4913C33.3783 28.4913 33.4981 28.465 33.6113 28.4096C34.0086 28.2157 34.1734 27.7358 33.9792 27.3386L33.1593 25.6619C33.6983 25.2321 34.1052 24.6578 34.3345 23.99C34.6523 23.0644 34.5907 22.0706 34.159 21.1879L28.3046 9.3607C28.3074 9.35007 28.3102 9.33943 28.3127 9.3288H39.3985V39.4764Z" fill="white"/>
<path d="M22.5793 9.02419H22.7376V9.18215C22.7376 9.62446 23.0961 9.98293 23.5384 9.98293C23.9807 9.98293 24.3391 9.62446 24.3391 9.18215V9.02419H24.4974C24.9397 9.02419 25.2982 8.6654 25.2982 8.2234C25.2982 7.7811 24.9397 7.42262 24.4974 7.42262H24.3391V7.26434C24.3391 6.82203 23.9807 6.46356 23.5384 6.46356C23.0961 6.46356 22.7376 6.82203 22.7376 7.26434V7.42262H22.5793C22.1373 7.42262 21.7785 7.7811 21.7785 8.2234C21.7785 8.6654 22.1373 9.02419 22.5793 9.02419Z" fill="white"/>
</svg>
