<svg width="39" height="39" viewBox="0 0 39 39" fill="none" xmlns="http://www.w3.org/2000/svg">
<path d="M33.9477 28.6168L31.6112 28.0722L32.9467 23.2051L33.6424 23.3794C33.6938 23.3924 33.7468 23.3994 33.8001 23.4C34.0927 23.4 34.3492 23.2045 34.4269 22.9223L36.3769 15.8041C36.4229 15.6365 36.3997 15.4578 36.3128 15.3074C36.2261 15.1569 36.0827 15.0474 35.9148 15.0033L33.305 14.3209C32.9597 14.2308 32.6065 14.4355 32.5131 14.7799L30.573 21.9299C30.5273 22.0984 30.5511 22.2781 30.6397 22.4288C30.7279 22.5792 30.8729 22.6881 31.0424 22.7306L31.6851 22.8912L30.3442 27.7764L25.1672 26.5681L26.4468 21.9051L27.1425 22.0794C27.1939 22.0924 27.2469 22.0994 27.3002 22.1C27.5929 22.1 27.8493 21.9045 27.9271 21.6223L29.877 14.5041C29.923 14.3365 29.8999 14.1578 29.8129 14.0074C29.7263 13.8569 29.5828 13.7474 29.4149 13.7033L26.8051 13.0209C26.4598 12.9308 26.1066 13.1355 26.0133 13.4799L24.0732 20.6299C24.0275 20.7984 24.0513 20.9781 24.1398 21.1288C24.228 21.2792 24.3731 21.3881 24.5426 21.4306L25.1853 21.5912L23.9002 26.271L18.7206 25.0647L19.947 20.6051L20.6426 20.7794C20.6941 20.7924 20.7471 20.7994 20.8004 20.8C21.093 20.8 21.3494 20.6045 21.4272 20.3223L23.3772 13.2041C23.4232 13.0365 23.4 12.8578 23.313 12.7074C23.2264 12.5569 23.083 12.4474 22.9151 12.4033L20.3053 11.7209C19.96 11.6308 19.6067 11.8355 19.5134 12.1799L17.5733 19.3299C17.5276 19.4984 17.5514 19.6781 17.64 19.8288C17.7282 19.9792 17.8732 20.0881 18.0427 20.1306L18.6854 20.2912L17.4562 24.7689L14.4481 24.0668C14.4211 24.0608 14.3935 24.0563 14.3656 24.0532C13.5207 23.9688 13.0005 22.9744 13.0005 22.1V18.9522C15.0851 17.4253 16.9005 15.0728 16.9005 12.35V8.45C16.9005 3.7832 13.1173 0 8.45064 0C3.78394 0 0.000820104 3.7832 0.000820104 8.45V12.35C0.000820104 15.0728 1.81621 17.4253 3.90074 18.9522V22.1C3.90074 22.8474 3.64081 23.4435 2.35067 24.0982L0.445464 24.734C0.104602 24.8473 -0.0801108 25.2157 0.0335098 25.5566C0.146813 25.8978 0.515287 26.0822 0.856466 25.9689L2.80643 25.3189C2.83562 25.3097 2.86419 25.2983 2.89148 25.2843C3.9658 24.7435 5.20071 23.8967 5.20071 22.1V19.7822C6.18839 20.3738 7.30238 20.7226 8.45064 20.8C9.59923 20.7226 10.7132 20.3738 11.7006 19.7822V22.1C11.7006 23.5574 12.6314 25.1551 14.1907 25.3417L17.1156 26.0235L16.2771 29.0786C16.1822 29.4246 16.386 29.7822 16.7323 29.8775C16.7872 29.8921 16.8437 29.8997 16.9005 29.9C17.1931 29.9 17.4495 29.7045 17.5273 29.4223L18.3794 26.3193L23.5565 27.5269L22.7764 30.3777C22.6815 30.7239 22.8852 31.0816 23.2315 31.1765C23.2864 31.1917 23.3432 31.1997 23.4003 31.2C23.6929 31.2 23.9494 31.0045 24.0271 30.7223L24.8231 27.8202L30.0005 29.0278L29.2737 31.6751C29.1788 32.0214 29.3826 32.3791 29.7288 32.474C29.7847 32.4902 29.8421 32.499 29.9002 32.5C30.1928 32.5 30.4493 32.3045 30.527 32.0223L31.2652 29.3262L33.6405 29.8806C35.9938 30.4681 37.7 32.3902 37.7 34.45V38.35C37.7 38.709 37.9911 39 38.35 39C38.709 39 39 38.709 39 38.35V34.45C39 31.7589 36.9266 29.3617 33.9477 28.6168ZM33.5995 15.7419L34.9493 16.0954L33.3415 21.9654L32.0012 21.6303L33.5995 15.7419ZM27.0997 14.4419L28.4495 14.7954L26.8416 20.6654L25.5014 20.3303L27.0997 14.4419ZM20.5998 13.1419L21.9496 13.4954L20.3418 19.3654L19.0015 19.0303L20.5998 13.1419ZM1.30079 12.35V8.45C1.30079 4.50112 4.50217 1.3 8.45064 1.3C12.3994 1.3 15.6005 4.50112 15.6005 8.45V12.35C15.6005 16.1903 10.8049 19.5 8.45064 19.5C6.09666 19.5 1.30079 16.1903 1.30079 12.35Z" fill="white"/>
</svg>
