<svg width="51" height="51" viewBox="0 0 51 51" fill="none" xmlns="http://www.w3.org/2000/svg">
<path d="M49.5289 44.1636L43.1254 39.168L33.9148 25.3054L37.0105 23.2622C37.0105 23.2622 37.9844 22.6511 37.3321 21.6686C36.4926 20.4041 25.0247 3.14521 25.0247 3.14521C24.0526 1.68236 22.068 1.27957 20.6007 2.24825L18.1096 3.89247V3.18654C18.1096 1.42949 16.6769 0 14.9158 0H8.52199C6.7609 0 5.32812 1.42949 5.32812 3.18654V24.7326C2.25122 25.6441 0 28.4967 0 31.8651V47.7934C0 49.5509 1.42991 50.9807 3.1875 50.9807H20.2502C22.0078 50.9807 23.4377 49.5509 23.4377 47.7934V31.865C23.4377 28.4966 21.1865 25.644 18.1096 24.7325V15.8136L26.7256 28.7813L26.8729 28.9582C27.5039 29.579 28.194 29.0813 28.194 29.0813L32.1414 26.476L41.3554 40.3438L43.4706 48.1689C43.7943 49.3672 44.6474 50.3069 45.8106 50.747C46.2582 50.9164 46.7202 51 47.1786 51C47.9149 51 48.6418 50.7841 49.2829 50.361C50.323 49.6745 50.9477 48.5679 50.9969 47.3248C51.0461 46.0821 50.511 44.9298 49.5289 44.1636ZM7.45312 3.18654C7.45312 2.601 7.93263 2.12479 8.52199 2.12479H14.9158C15.5052 2.12479 15.9847 2.60111 15.9847 3.18654V5.29497L15.2698 5.76672C14.5574 6.23698 14.0716 6.95598 13.9019 7.79121C13.7323 8.62548 13.8985 9.47569 14.3699 10.1852L15.9913 12.6255C15.9868 12.6648 15.9846 12.7048 15.9846 12.7453V24.428H7.45312V3.18654ZM21.3127 31.8651V47.7935C21.3127 48.3792 20.8361 48.8559 20.2502 48.8559H3.1875C2.60164 48.8559 2.125 48.3792 2.125 47.7935V31.8651C2.125 28.9359 4.50819 26.5529 7.4375 26.5529H16.0002C18.9296 26.5529 21.3127 28.9359 21.3127 31.8651ZM27.9093 26.7232L16.1398 9.00926C15.9832 8.77349 15.9279 8.49118 15.9841 8.2144C16.0407 7.93645 16.2027 7.69696 16.4404 7.54014L21.7714 4.02178C21.9532 3.90182 22.1584 3.84444 22.3616 3.84444C22.7086 3.84444 23.0493 4.01211 23.2548 4.32129L35.0206 22.0297L27.9093 26.7232ZM48.8735 47.2409C48.8517 47.7919 48.5743 48.2828 48.1122 48.5877C47.648 48.894 47.083 48.9565 46.5626 48.7597C46.045 48.5638 45.6657 48.1464 45.5219 47.6144L44.1922 42.6955L48.2218 45.839C48.6578 46.1792 48.8954 46.6901 48.8735 47.2409Z" fill="white"/>
<path d="M13.8532 29.7388C13.8532 30.3256 14.329 30.8012 14.9157 30.8012C16.0926 30.8012 17.0502 31.754 17.0502 32.9251V45.685C17.0502 46.2717 17.5259 46.7473 18.1127 46.7473C18.6994 46.7473 19.1752 46.2717 19.1752 45.685V32.9251C19.1752 30.5823 17.2644 28.6763 14.9157 28.6763C14.329 28.6763 13.8532 29.152 13.8532 29.7388Z" fill="white"/>
</svg>
