<svg width="56" height="28" viewBox="0 0 56 28" fill="none" xmlns="http://www.w3.org/2000/svg">
<mask id="path-1-inside-1" fill="white">
<path d="M46.8387 7.14646H44.5617V1.74295C44.5617 1.08591 44.0293 0.564819 43.3836 0.564819H1.42422C0.767187 0.564819 0.246094 1.09724 0.246094 1.74295V21.8164C0.246094 22.4734 0.778516 22.9945 1.42422 22.9945H4.53945C5.0832 25.532 7.3375 27.4351 10.0336 27.4351C12.7297 27.4351 14.984 25.532 15.5277 22.9945H37.8668C38.4105 25.532 40.6648 27.4351 43.3609 27.4351C46.057 27.4351 48.3113 25.532 48.8551 22.9945H54.5418C55.1988 22.9945 55.7199 22.4621 55.7199 21.8164V16.0617C55.7539 11.1453 51.7551 7.14646 46.8387 7.14646ZM10.0449 25.0789C8.24375 25.0789 6.78242 23.6176 6.78242 21.8164C6.78242 20.0152 8.24375 18.5539 10.0449 18.5539C11.8461 18.5539 13.3074 20.0152 13.3074 21.8164C13.3074 23.6176 11.8461 25.0789 10.0449 25.0789ZM37.8781 20.6383H15.5391C15.5391 20.6269 15.5391 20.6383 15.5391 20.6496C14.9953 18.1121 12.741 16.1976 10.0336 16.1976C7.3375 16.1976 5.07187 18.1121 4.53945 20.6496C4.53945 20.6383 4.53945 20.6383 4.53945 20.6383H2.61367V2.92107H42.2055V16.3222C38.5805 17.1832 37.9688 20.3097 37.8781 20.6383ZM43.3836 25.0789C41.5824 25.0789 40.1211 23.6176 40.1211 21.8164C40.1211 20.0152 41.5824 18.5539 43.3836 18.5539C45.1848 18.5539 46.6461 20.0152 46.6461 21.8164C46.6461 23.6176 45.1848 25.0789 43.3836 25.0789ZM48.8777 20.6383C48.8664 20.5703 48.2207 17.1605 44.5617 16.3222V9.50271H46.8387C50.4523 9.50271 53.3977 12.448 53.3977 16.0617V20.6383H48.8777Z"/>
<path d="M19.5039 5.00546C18.8469 5.00546 18.3258 5.53788 18.3258 6.18358V17.3758C18.3258 18.0328 18.8582 18.5539 19.5039 18.5539C20.1609 18.5539 20.682 18.0215 20.682 17.3758V6.18358C20.6934 5.52655 20.1609 5.00546 19.5039 5.00546Z"/>
<path d="M30.6281 5.00546C29.9711 5.00546 29.45 5.53788 29.45 6.18358V17.3758C29.45 18.0328 29.9824 18.5539 30.6281 18.5539C31.2852 18.5539 31.8063 18.0215 31.8063 17.3758V6.18358C31.8176 5.52655 31.2852 5.00546 30.6281 5.00546Z"/>
</mask>
<path d="M46.8387 7.14646H44.5617V1.74295C44.5617 1.08591 44.0293 0.564819 43.3836 0.564819H1.42422C0.767187 0.564819 0.246094 1.09724 0.246094 1.74295V21.8164C0.246094 22.4734 0.778516 22.9945 1.42422 22.9945H4.53945C5.0832 25.532 7.3375 27.4351 10.0336 27.4351C12.7297 27.4351 14.984 25.532 15.5277 22.9945H37.8668C38.4105 25.532 40.6648 27.4351 43.3609 27.4351C46.057 27.4351 48.3113 25.532 48.8551 22.9945H54.5418C55.1988 22.9945 55.7199 22.4621 55.7199 21.8164V16.0617C55.7539 11.1453 51.7551 7.14646 46.8387 7.14646ZM10.0449 25.0789C8.24375 25.0789 6.78242 23.6176 6.78242 21.8164C6.78242 20.0152 8.24375 18.5539 10.0449 18.5539C11.8461 18.5539 13.3074 20.0152 13.3074 21.8164C13.3074 23.6176 11.8461 25.0789 10.0449 25.0789ZM37.8781 20.6383H15.5391C15.5391 20.6269 15.5391 20.6383 15.5391 20.6496C14.9953 18.1121 12.741 16.1976 10.0336 16.1976C7.3375 16.1976 5.07187 18.1121 4.53945 20.6496C4.53945 20.6383 4.53945 20.6383 4.53945 20.6383H2.61367V2.92107H42.2055V16.3222C38.5805 17.1832 37.9688 20.3097 37.8781 20.6383ZM43.3836 25.0789C41.5824 25.0789 40.1211 23.6176 40.1211 21.8164C40.1211 20.0152 41.5824 18.5539 43.3836 18.5539C45.1848 18.5539 46.6461 20.0152 46.6461 21.8164C46.6461 23.6176 45.1848 25.0789 43.3836 25.0789ZM48.8777 20.6383C48.8664 20.5703 48.2207 17.1605 44.5617 16.3222V9.50271H46.8387C50.4523 9.50271 53.3977 12.448 53.3977 16.0617V20.6383H48.8777Z" fill="white"/>
<path d="M19.5039 5.00546C18.8469 5.00546 18.3258 5.53788 18.3258 6.18358V17.3758C18.3258 18.0328 18.8582 18.5539 19.5039 18.5539C20.1609 18.5539 20.682 18.0215 20.682 17.3758V6.18358C20.6934 5.52655 20.1609 5.00546 19.5039 5.00546Z" fill="white"/>
<path d="M30.6281 5.00546C29.9711 5.00546 29.45 5.53788 29.45 6.18358V17.3758C29.45 18.0328 29.9824 18.5539 30.6281 18.5539C31.2852 18.5539 31.8063 18.0215 31.8063 17.3758V6.18358C31.8176 5.52655 31.2852 5.00546 30.6281 5.00546Z" fill="white"/>
</svg>
