<svg width="42" height="42" viewBox="0 0 42 42" fill="none" xmlns="http://www.w3.org/2000/svg">
<path d="M21.0001 18.5378C20.5473 18.5378 20.1798 18.9053 20.1798 19.3581C20.1798 19.8109 20.5472 20.1784 21.0001 20.1784C21.4529 20.1784 21.8204 19.8109 21.8204 19.3581C21.8204 18.9053 21.453 18.5378 21.0001 18.5378Z" fill="white"/>
<path d="M41.4163 16.1277C40.9478 15.5748 40.2638 15.2577 39.5394 15.2577H32.4174L37.1983 9.83996C38.456 9.80977 39.6626 9.29896 40.5593 8.40211C42.4775 6.48283 42.4775 3.36014 40.559 1.4406C38.6397 -0.477705 35.517 -0.477705 33.5976 1.44076C32.7012 2.3372 32.1906 3.54323 32.1601 4.80053L20.2673 15.2577H2.46049C1.73623 15.2577 1.05217 15.5749 0.583611 16.1277C0.114965 16.6808 -0.0855196 17.4082 0.0336721 18.1237L0.29929 19.7174C1.47464 26.7719 6.62982 32.4476 13.1098 35.0438L11.5999 38.4583C11.2258 39.2221 11.269 40.1082 11.7168 40.833C12.1686 41.5641 12.9513 42.0005 13.8107 42.0005H28.1894C29.0488 42.0005 29.8315 41.5641 30.2832 40.833C30.7311 40.1082 30.7742 39.2221 30.4001 38.4583L28.8902 35.0436C35.4009 32.4345 40.5304 26.7421 41.701 19.7162L41.9665 18.1234C42.0854 17.4083 41.885 16.6809 41.4163 16.1277ZM34.7577 2.60102C36.0368 1.32256 38.1191 1.32157 39.3989 2.60077C40.6779 3.88046 40.6779 5.96258 39.3991 7.24211C38.1209 8.52024 36.0393 8.5236 34.7578 7.24211C33.4698 5.95397 33.4867 3.87218 34.7577 2.60102ZM32.4883 6.69693C32.7332 7.33119 33.1084 7.91296 33.5977 8.40228C34.0865 8.89102 34.6675 9.26599 35.3007 9.51093L30.2294 15.2577H22.7521L32.4883 6.69693ZM28.9233 39.1733C29.1078 39.542 28.9597 39.8537 28.8874 39.9707C28.8151 40.0877 28.6023 40.36 28.1893 40.36H13.8106C13.3977 40.36 13.1849 40.0877 13.1125 39.9707C13.0402 39.8538 12.8921 39.542 13.0766 39.1733C13.0941 39.1381 12.9879 39.3753 14.6586 35.598C16.7305 36.2535 18.8599 36.5865 20.9999 36.5865C23.1393 36.5865 25.2687 36.2535 27.3412 35.5979C29.0059 39.3613 28.9058 39.1377 28.9233 39.1733ZM40.348 17.8535L40.2337 18.5391H24.2813C23.8283 18.5391 23.4609 18.9063 23.4609 19.3594C23.4609 19.8124 23.8283 20.1715 24.2813 20.1715H39.943C38.6332 26.344 33.9332 31.5334 27.5156 33.81C27.5157 33.81 27.5154 33.81 27.5156 33.81C25.3937 34.5635 23.2013 34.9456 20.9999 34.9456C18.797 34.9456 16.6042 34.5632 14.4819 33.8091C8.06545 31.5327 3.36628 26.3513 2.05681 20.1796H17.7186C18.1716 20.1796 18.5389 19.8124 18.5389 19.3593C18.5389 18.9062 18.1716 18.539 17.7186 18.539H1.76618L1.65199 17.8538C1.61171 17.6119 1.67684 17.3755 1.83541 17.1883C1.99381 17.0014 2.21579 16.8984 2.46041 16.8984H39.5395C39.7841 16.8984 40.0061 17.0014 40.1645 17.1883C40.3232 17.3755 40.3883 17.6119 40.348 17.8535Z" fill="white"/>
<path d="M24.2814 26.7411H21.8205V24.2801C21.8205 23.827 21.4532 23.4598 21.0002 23.4598C20.5472 23.4598 20.1799 23.827 20.1799 24.2801V26.7411H17.7188C17.2659 26.7411 16.8985 27.1084 16.8985 27.5614C16.8985 28.0145 17.2659 28.3817 17.7188 28.3817H20.1799V30.8428C20.1799 31.2958 20.5472 31.6631 21.0002 31.6631C21.4532 31.6631 21.8205 31.2958 21.8205 30.8428V28.3817H24.2814C24.7344 28.3817 25.1017 28.0145 25.1017 27.5614C25.1017 27.1084 24.7345 26.7411 24.2814 26.7411Z" fill="white"/>
</svg>
