<svg width="45" height="46" viewBox="0 0 45 46" fill="none" xmlns="http://www.w3.org/2000/svg">
<path d="M24.0002 15.7503C23.586 15.7503 23.2502 16.0858 23.2502 16.5003V18.7503H21.7502V18.0003C21.7502 15.5149 19.7353 13.5004 17.2502 13.5004C14.7648 13.5004 12.7503 15.5149 12.7503 18.0003V18.7503H11.2503V16.5003C11.2503 16.0858 10.9145 15.7503 10.5003 15.7503C10.0861 15.7503 9.75031 16.0858 9.75031 16.5003V19.5003C9.75031 19.9145 10.0861 20.2503 10.5003 20.2503H12.7503V21.7503H10.5003C10.0861 21.7503 9.75031 22.0857 9.75031 22.5003C9.75031 22.9145 10.0861 23.2503 10.5003 23.2503H12.7503V24.7503H10.5003C10.0861 24.7503 9.75031 25.0857 9.75031 25.5003V28.5002C9.75031 28.9144 10.0861 29.2502 10.5003 29.2502C10.9145 29.2502 11.2503 28.9144 11.2503 28.5002V26.2503H13.0681C13.664 27.6151 15.0109 28.498 16.5002 28.5002H18.0002C19.4892 28.498 20.8365 27.6151 21.432 26.2503H23.2502V28.5002C23.2502 28.9144 23.586 29.2502 24.0002 29.2502C24.4144 29.2502 24.7502 28.9144 24.7502 28.5002V25.5003C24.7502 25.0857 24.4144 24.7503 24.0002 24.7503H21.7502V23.2503H24.0002C24.4144 23.2503 24.7502 22.9145 24.7502 22.5003C24.7502 22.0857 24.4144 21.7503 24.0002 21.7503H21.7502V20.2503H24.0002C24.4144 20.2503 24.7502 19.9145 24.7502 19.5003V16.5003C24.7502 16.0858 24.4144 15.7503 24.0002 15.7503ZM17.2502 15.0004C18.907 15.0004 20.2502 16.3432 20.2502 18.0003H14.2503C14.2503 16.3432 15.5932 15.0004 17.2502 15.0004ZM18.0002 27.0003H16.5002C15.2573 27.0003 14.2503 25.9928 14.2503 24.7503V19.5003H20.2502V24.7503C20.2502 25.9928 19.2428 27.0003 18.0002 27.0003Z" fill="white"/>
<path d="M11.2502 14.2505C11.6644 14.2505 12.0002 13.9147 12.0002 13.5005C12.0002 13.4822 12.0295 11.7002 13.0853 11.1714C13.4559 10.9865 13.6064 10.5357 13.4215 10.1651C13.2362 9.79445 12.7858 9.64394 12.4148 9.82924C10.5218 10.7763 10.5002 13.3892 10.5002 13.5005C10.5002 13.9147 10.836 14.2505 11.2502 14.2505Z" fill="white"/>
<path d="M10.4252 8.66501C10.2403 8.29404 9.78945 8.14352 9.41884 8.32919C7.52187 9.27621 7.50026 11.8891 7.50026 12.0005C7.50026 12.4146 7.83608 12.7505 8.25026 12.7505C8.66445 12.7505 9.00026 12.4146 9.00026 12.0005C9.00026 11.9821 9.02956 10.2002 10.0853 9.67135C10.2641 9.58346 10.4003 9.42746 10.4644 9.23886C10.5281 9.04989 10.5138 8.84335 10.4252 8.66501Z" fill="white"/>
<path d="M21.4147 11.1754C22.4536 11.6907 22.5001 13.4679 22.5001 13.5005C22.5001 13.9147 22.8359 14.2505 23.2501 14.2505C23.6643 14.2505 24.0001 13.9147 24.0001 13.5005C24.0001 13.3892 23.9782 10.7763 22.0852 9.82924C21.7146 9.64394 21.2638 9.79445 21.0789 10.1651C20.8936 10.5357 21.0441 10.9865 21.4147 11.1714V11.1754Z" fill="white"/>
<path d="M25.0852 8.32918C24.7146 8.14388 24.2638 8.29439 24.0788 8.665C23.8935 9.0356 24.044 9.48641 24.4146 9.67134C25.4536 10.1906 25.5001 11.9679 25.5001 12.0004C25.5001 12.4146 25.8359 12.7504 26.2501 12.7504C26.6643 12.7504 27.0001 12.4146 27.0001 12.0004C27.0001 11.8891 26.9781 9.2762 25.0852 8.32918Z" fill="white"/>
<path d="M30.7501 38.2502C29.5072 38.2502 28.5001 39.2573 28.5001 40.5002C28.5001 41.7427 29.5072 42.7502 30.7501 42.7502C31.9926 42.7502 33.0001 41.7427 33.0001 40.5002C33.0001 39.2573 31.9926 38.2502 30.7501 38.2502ZM30.7501 41.2502C30.3359 41.2502 30.0001 40.9144 30.0001 40.5002C30.0001 40.0856 30.3359 39.7502 30.7501 39.7502C31.1643 39.7502 31.5001 40.0856 31.5001 40.5002C31.5001 40.9144 31.1643 41.2502 30.7501 41.2502Z" fill="white"/>
<path d="M28.6912 29.3927C28.2712 29.953 28.1445 30.6807 28.3499 31.3501L30.0345 36.9652C30.1293 37.2828 30.4216 37.5003 30.753 37.5003C31.0844 37.5003 31.3763 37.2828 31.4715 36.9652L33.1498 31.3501C33.3509 30.6803 33.2235 29.9552 32.8067 29.3938C32.3896 28.8324 31.7319 28.501 31.0328 28.5003H30.4674C29.7668 28.497 29.1069 28.8288 28.6912 29.3927ZM31.6055 30.2881C31.741 30.469 31.782 30.7034 31.7161 30.9195L30.7501 34.1399L29.784 30.9151C29.7203 30.6994 29.762 30.4668 29.8964 30.2867C30.0312 30.1065 30.2425 30.0003 30.4674 30.0003H31.0328C31.2587 29.9992 31.4715 30.1061 31.6055 30.2881Z" fill="white"/>
<path d="M4.06981 38.0261L12.4779 43.5687C13.8937 44.504 15.5534 45.002 17.2504 45.0013H44.2502C44.5222 45.0013 44.7731 44.8537 44.9053 44.616C45.0379 44.378 45.0309 44.0872 44.8877 43.8558L34.5002 27.1205V8.66467C34.5211 6.41249 33.1211 4.39138 31.0051 3.61942C26.314 1.96928 20.1189 0.00164795 17.2504 0.00164795C14.3815 0.00164795 8.18672 1.96928 3.49523 3.61942C1.37965 4.39138 -0.0207304 6.41249 0.00050963 8.66467V30.3552C-0.0229277 33.4346 1.50672 36.3189 4.06981 38.0261ZM18.6002 43.5013L30.7503 23.9264L42.8999 43.5013H18.6002ZM30.0003 22.2876L18.8456 40.2589C17.2361 40.7551 15.4878 40.4783 14.1109 39.5089L7.23202 34.7262C5.46946 33.446 4.44811 31.3816 4.50047 29.2038V10.5763C4.46056 9.25536 5.24058 8.04724 6.46078 7.53967C11.665 5.60756 15.6002 4.50161 17.2504 4.50161C18.9001 4.50161 22.8354 5.60756 28.0396 7.53674C29.2609 8.04467 30.0413 9.25426 30.0003 10.5763V22.2876ZM1.5005 8.66467C1.47889 7.04896 2.47754 5.59474 3.99327 5.03481C7.74324 3.71536 14.4529 1.50164 17.2504 1.50164C20.0478 1.50164 26.7571 3.71536 30.5071 5.03481C32.0228 5.59474 33.0215 7.04896 33.0002 8.66467V24.7038L31.5003 22.2876V10.5763C31.5391 8.62841 30.369 6.85963 28.5611 6.13344C24.7097 4.70303 19.6219 3.00162 17.2504 3.00162C14.8788 3.00162 9.79071 4.70303 5.93967 6.13051C4.1306 6.8567 2.9602 8.62731 3.00049 10.5763V29.2716C2.9635 31.9189 4.22399 34.4168 6.37546 35.96L13.255 40.739C14.4258 41.5593 15.8207 41.9999 17.2504 42.0013C17.4309 42.0013 17.6118 41.9742 17.7924 41.9599L16.8549 43.4705C15.5911 43.4065 14.3665 43.0077 13.3074 42.3148L4.89561 36.773C2.75439 35.3426 1.47816 32.93 1.5005 30.3552V8.66467Z" fill="white"/>
</svg>
