<svg width="44" height="44" viewBox="0 0 44 44" fill="none" xmlns="http://www.w3.org/2000/svg">
<path d="M4.49669 31.9C4.1866 32.4457 1.46668 37.2726 1.46668 39.6C1.46668 41.6249 3.10844 43.2667 5.13335 43.2667C7.15825 43.2667 8.80001 41.6249 8.80001 39.6C8.80001 37.2726 6.08009 32.4457 5.77 31.9C5.62856 31.6863 5.38973 31.5574 5.13335 31.5574C4.87696 31.5574 4.63813 31.6863 4.49669 31.9ZM5.13335 41.8C3.9184 41.8 2.93335 40.815 2.93335 39.6C2.93335 38.3035 4.20773 35.5749 5.13335 33.8025C6.05896 35.5749 7.33334 38.3035 7.33334 39.6C7.33334 40.815 6.34829 41.8 5.13335 41.8Z" fill="white"/>
<path d="M43.2667 9.53334H38.8667C38.4617 9.53334 38.1333 9.86169 38.1333 10.2667V12.4667H28.2781L27.1878 8.60127C27.0986 8.2851 26.81 8.06667 26.4813 8.06667H24.2V5.13334H29.3333C30.5483 5.13334 31.5333 4.14828 31.5333 2.93334C31.5333 1.7184 30.5483 0.733337 29.3333 0.733337H14.6667C13.4517 0.733337 12.4667 1.7184 12.4667 2.93334C12.4667 4.14828 13.4517 5.13334 14.6667 5.13334H19.8V8.06667H17.5187C17.19 8.06667 16.9014 8.2851 16.8122 8.60127L15.7219 12.4667H9.53333C4.27074 12.4728 0.00608723 16.7374 0 22V27.8667C0 28.2717 0.328353 28.6 0.733333 28.6H9.53333C9.93831 28.6 10.2667 28.2717 10.2667 27.8667V24.9333C10.2667 23.7184 11.2517 22.7333 12.4667 22.7333H13.326C13.9752 26.0606 17.2129 28.6 21.1037 28.6H22.8963C26.7885 28.6 30.0248 26.0606 30.674 22.7333H38.1333V24.9333C38.1333 25.3383 38.4617 25.6667 38.8667 25.6667H43.2667C43.6716 25.6667 44 25.3383 44 24.9333V10.2667C44 9.86169 43.6716 9.53334 43.2667 9.53334ZM13.9333 2.93334C13.9333 2.52836 14.2617 2.2 14.6667 2.2H29.3333C29.7383 2.2 30.0667 2.52836 30.0667 2.93334C30.0667 3.33832 29.7383 3.66667 29.3333 3.66667H14.6667C14.2617 3.66667 13.9333 3.33832 13.9333 2.93334ZM21.2667 5.13334H22.7333V8.06667H21.2667V5.13334ZM8.8 24.9333V27.1333H1.46667V22C1.47204 17.547 5.08034 13.9387 9.53333 13.9333H15.3083L13.2405 21.2667H12.4667C10.4425 21.2692 8.80251 22.9092 8.8 24.9333ZM22.8963 27.1333H21.1037C17.5918 27.1333 14.7275 24.6641 14.6674 21.609L18.0737 9.53334H25.9263L29.3333 21.609C29.2725 24.6641 26.4082 27.1333 22.8963 27.1333ZM30.7595 21.2667L28.6917 13.9333H38.1333V21.2667H30.7595ZM42.5333 24.2H39.6V11H42.5333V24.2Z" fill="white"/>
</svg>
