<svg width="39" height="39" viewBox="0 0 39 39" fill="none" xmlns="http://www.w3.org/2000/svg">
<mask id="path-1-inside-1" fill="white">
<path d="M7.80049 0C4.57463 0.000685527 1.95067 2.62465 1.95067 5.85051C1.95067 9.07637 4.57463 11.6997 7.80049 11.6997C11.0264 11.6997 13.6503 9.07577 13.6503 5.8499C13.6503 2.62397 11.0264 0 7.80049 0ZM7.80049 9.7504C5.64649 9.7504 3.90061 8.00451 3.90061 5.85051C3.90061 3.69651 5.64649 1.95063 7.80049 1.95063C9.95449 1.95063 11.7004 3.69651 11.7004 5.85051C11.7004 8.00451 9.95457 9.7504 7.80049 9.7504Z"/>
<path d="M37.0496 9.74969H17.5502C16.4732 9.74969 15.6003 10.6226 15.6003 11.6996V13.1888L17.5502 14.1637V11.6996H37.0496V27.2985H17.5502V24.9807L15.6003 24.4939V27.2985C15.6003 28.3755 16.4732 29.2484 17.5502 29.2484H25.5788L20.6142 37.5221C20.336 37.9829 20.4868 38.5828 20.9496 38.8591C21.4065 39.1392 22.0084 38.9884 22.2866 38.5237L26.325 31.7925V38.0226C26.325 38.5614 26.7611 38.9976 27.2999 38.9976C27.8387 38.9976 28.2749 38.5614 28.2749 38.0226V31.7925L32.3139 38.5231C32.4965 38.8279 32.8202 38.9969 33.1498 38.9969C33.3214 38.9969 33.4943 38.9534 33.6509 38.8579C34.1137 38.5816 34.2638 37.9817 33.9863 37.5208L29.0217 29.2472H37.0496C38.1266 29.2472 38.9995 28.3743 38.9995 27.2973V11.6996C38.9996 10.6226 38.1267 9.74969 37.0496 9.74969Z"/>
<path d="M34.0864 15.3311C33.9395 14.8131 33.4007 14.5082 32.8813 14.6629L20.8495 18.1007C20.7091 17.9649 20.5518 17.8459 20.3724 17.7556L12.5727 13.8557C12.3017 13.7205 12.0033 13.6497 11.7004 13.6497H3.90061C2.95816 13.6497 2.15084 14.3237 1.98189 15.2506L0.031952 25.9746C-0.0714102 26.5434 0.0826809 27.1289 0.45317 27.5729C0.823659 28.0168 1.37223 28.2735 1.95074 28.2735H3.19672L3.90716 37.2023C3.98775 38.2163 4.83338 38.9975 5.85063 38.9975H9.75051C10.7443 38.9975 11.5789 38.2507 11.6887 37.2634L13.3923 21.9323L19.0277 23.3408C19.1837 23.3798 19.3423 23.3986 19.5002 23.3986C19.9305 23.3986 20.3536 23.2563 20.7001 22.9858C21.1733 22.6167 21.4502 22.0492 21.4502 21.4487V19.9557L33.4182 16.5361C33.9363 16.3893 34.2352 15.8484 34.0864 15.3311ZM19.5002 21.4494L11.7004 19.4994L9.75044 37.0483H5.85055L4.99776 26.3236H1.95067L3.90061 15.5996H6.82552V21.5313C6.82552 22.0701 7.26167 22.5063 7.80049 22.5063C8.33932 22.5063 8.77547 22.0701 8.77547 21.5313V15.5995H11.7004L19.5002 19.4994V21.4494Z"/>
</mask>
<path d="M7.80049 0C4.57463 0.000685527 1.95067 2.62465 1.95067 5.85051C1.95067 9.07637 4.57463 11.6997 7.80049 11.6997C11.0264 11.6997 13.6503 9.07577 13.6503 5.8499C13.6503 2.62397 11.0264 0 7.80049 0ZM7.80049 9.7504C5.64649 9.7504 3.90061 8.00451 3.90061 5.85051C3.90061 3.69651 5.64649 1.95063 7.80049 1.95063C9.95449 1.95063 11.7004 3.69651 11.7004 5.85051C11.7004 8.00451 9.95457 9.7504 7.80049 9.7504Z" fill="white"/>
<path d="M37.0496 9.74969H17.5502C16.4732 9.74969 15.6003 10.6226 15.6003 11.6996V13.1888L17.5502 14.1637V11.6996H37.0496V27.2985H17.5502V24.9807L15.6003 24.4939V27.2985C15.6003 28.3755 16.4732 29.2484 17.5502 29.2484H25.5788L20.6142 37.5221C20.336 37.9829 20.4868 38.5828 20.9496 38.8591C21.4065 39.1392 22.0084 38.9884 22.2866 38.5237L26.325 31.7925V38.0226C26.325 38.5614 26.7611 38.9976 27.2999 38.9976C27.8387 38.9976 28.2749 38.5614 28.2749 38.0226V31.7925L32.3139 38.5231C32.4965 38.8279 32.8202 38.9969 33.1498 38.9969C33.3214 38.9969 33.4943 38.9534 33.6509 38.8579C34.1137 38.5816 34.2638 37.9817 33.9863 37.5208L29.0217 29.2472H37.0496C38.1266 29.2472 38.9995 28.3743 38.9995 27.2973V11.6996C38.9996 10.6226 38.1267 9.74969 37.0496 9.74969Z" fill="white"/>
<path d="M34.0864 15.3311C33.9395 14.8131 33.4007 14.5082 32.8813 14.6629L20.8495 18.1007C20.7091 17.9649 20.5518 17.8459 20.3724 17.7556L12.5727 13.8557C12.3017 13.7205 12.0033 13.6497 11.7004 13.6497H3.90061C2.95816 13.6497 2.15084 14.3237 1.98189 15.2506L0.031952 25.9746C-0.0714102 26.5434 0.0826809 27.1289 0.45317 27.5729C0.823659 28.0168 1.37223 28.2735 1.95074 28.2735H3.19672L3.90716 37.2023C3.98775 38.2163 4.83338 38.9975 5.85063 38.9975H9.75051C10.7443 38.9975 11.5789 38.2507 11.6887 37.2634L13.3923 21.9323L19.0277 23.3408C19.1837 23.3798 19.3423 23.3986 19.5002 23.3986C19.9305 23.3986 20.3536 23.2563 20.7001 22.9858C21.1733 22.6167 21.4502 22.0492 21.4502 21.4487V19.9557L33.4182 16.5361C33.9363 16.3893 34.2352 15.8484 34.0864 15.3311ZM19.5002 21.4494L11.7004 19.4994L9.75044 37.0483H5.85055L4.99776 26.3236H1.95067L3.90061 15.5996H6.82552V21.5313C6.82552 22.0701 7.26167 22.5063 7.80049 22.5063C8.33932 22.5063 8.77547 22.0701 8.77547 21.5313V15.5995H11.7004L19.5002 19.4994V21.4494Z" fill="white"/>
</svg>
