<svg width="36" height="44" viewBox="0 0 36 44" fill="none" xmlns="http://www.w3.org/2000/svg">
<path d="M19.2993 19.9359C18.9433 19.9359 18.6548 20.2244 18.6548 20.5804V21.3243C18.6548 21.6853 18.361 21.9791 18 21.9791C17.6391 21.9791 17.3453 21.6853 17.3453 21.3243V20.5804C17.3453 20.2244 17.0568 19.9359 16.7008 19.9359C16.3448 19.9359 16.0563 20.2244 16.0563 20.5804V21.3243C16.0563 22.3962 16.9282 23.2682 18.0001 23.2682C19.072 23.2682 19.944 22.3963 19.944 21.3243V20.5804C19.9439 20.2244 19.6552 19.9359 19.2993 19.9359Z" fill="white"/>
<path d="M25.84 17.7436C25.6116 17.4706 25.2049 17.4345 24.9321 17.663C23.914 18.5152 22.4278 18.5141 21.4109 17.663C21.138 17.4345 20.7315 17.4706 20.503 17.7436C20.2745 18.0166 20.3106 18.423 20.5836 18.6515C22.0806 19.9046 24.2645 19.903 25.7596 18.6515C26.0324 18.423 26.0685 18.0166 25.84 17.7436Z" fill="white"/>
<path d="M15.497 17.7436C15.2685 17.4706 14.8618 17.4345 14.5891 17.663C13.5709 18.5152 12.0847 18.5141 11.0679 17.663C10.7951 17.4345 10.3884 17.4706 10.16 17.7436C9.9315 18.0166 9.9676 18.423 10.2406 18.6515C10.9646 19.2575 11.8836 19.5912 12.8285 19.5912C13.7735 19.5912 14.6925 19.2575 15.4165 18.6515C15.6894 18.423 15.7255 18.0165 15.497 17.7436Z" fill="white"/>
<path d="M18.043 24.2712C17.1556 24.2712 16.4334 24.9931 16.4334 25.8807V26.5585C16.4334 27.4459 17.1554 28.1679 18.043 28.1679C18.9304 28.1679 19.6524 27.446 19.6524 26.5585V25.8807C19.6523 24.9932 18.9304 24.2712 18.043 24.2712ZM18.3633 26.5584C18.3633 26.7351 18.2196 26.8788 18.0429 26.8788C17.8662 26.8788 17.7225 26.7351 17.7225 26.5584V25.8806C17.7225 25.7039 17.8662 25.5602 18.0429 25.5602C18.2196 25.5602 18.3633 25.7039 18.3633 25.8806V26.5584Z" fill="white"/>
<path d="M34.132 37.6872C33.7601 36.3404 32.8335 35.1895 31.5896 34.5301C31.1044 34.2727 30.6086 34.033 30.1114 33.8099C32.3407 28.6993 34.1755 21.7331 33.7578 16.1963C34.4172 14.7893 35.323 13.8987 35.2403 12.2064C35.2398 12.1978 35.0412 8.12524 35.0406 8.11665C35.0038 7.24627 34.7094 6.41749 34.1889 5.71933C34.0444 5.52546 33.9649 5.27375 33.9649 5.01061V1.48665C33.9649 0.667841 33.2987 0.00165366 32.4799 0.00165366H28.9398C28.0158 0.00165366 27.264 0.753435 27.264 1.67743V3.25172C26.5606 2.69382 25.8144 2.19925 25.0323 1.77669C24.7193 1.60757 24.3281 1.72418 24.1589 2.03743C23.9897 2.35058 24.1065 2.7416 24.4196 2.91081C25.4397 3.46193 26.3954 4.1453 27.2639 4.94452V6.10004C26.5841 7.03375 26.6641 7.62766 26.4661 8.01584C26.0092 8.91122 24.9696 9.71379 24.2076 10.25C22.9687 11.144 23.1261 12.5209 23.9815 13.2964C21.0487 11.9976 17.7592 9.8867 15.5663 7.51104C15.1846 7.09897 14.5082 7.17417 14.2301 7.66822C13.9576 8.15291 13.2367 9.31272 12.0247 10.4398C11.6704 10.119 9.63228 8.86198 9.39724 7.57335C9.3009 7.04707 9.04627 6.52577 8.73629 6.09995V4.94461C12.3923 1.5817 17.3102 0.541599 21.7397 1.81519C22.0815 1.91368 22.4389 1.71602 22.5372 1.37382C22.6356 1.03179 22.438 0.67463 22.0958 0.576318C17.5828 -0.721339 12.6208 0.173357 8.73629 3.25061V1.67743C8.73629 0.753435 7.98451 0.00165366 7.06051 0.00165366H3.52006C2.70125 0.00165366 2.03506 0.667841 2.03506 1.48665C1.96863 4.85712 2.19525 5.20405 1.81093 5.71933C1.28843 6.42041 0.993754 7.25306 0.958949 8.12713C0.94477 8.48283 1.22166 8.78266 1.57727 8.79684C1.93185 8.8105 2.23272 8.53413 2.24698 8.17852C2.311 6.57115 3.32412 6.48349 3.32412 5.01069V1.48665C3.32412 1.37854 3.41195 1.29072 3.52006 1.29072H7.06017C7.26977 1.29072 7.44689 1.46783 7.44689 1.67743C7.44689 7.49583 7.29632 6.16449 7.83661 7.07508C8.25384 7.77754 8.04071 7.92612 8.38558 8.60194C9.04704 9.89822 10.5859 10.9935 11.0417 11.2983C11.0845 11.3362 11.2652 11.4483 11.357 11.6367C11.4807 11.904 11.2946 12.1695 11.2968 12.1609C11.2112 12.3069 11.0932 12.4017 10.9608 12.4573C10.5779 12.6176 10.2454 12.4527 9.90564 12.274C8.6666 11.5957 8.09064 10.8902 7.35433 10.1591C6.65532 9.45065 5.46379 9.76802 5.18183 10.5955L4.69268 12.0393C4.21555 13.112 4.73264 13.7032 5.88196 17.1556C6.01508 17.5363 5.83882 17.9501 5.47557 18.1194C5.14918 18.2715 4.75945 18.1427 4.58826 17.8259L3.46575 15.7491C2.65157 14.0761 1.98753 13.4878 2.04718 12.2693L2.09599 11.2724C2.11335 10.9168 1.83929 10.6146 1.48377 10.5971C1.12876 10.5815 0.825918 10.8538 0.808472 11.2094L0.75966 12.2063C0.677074 13.8992 1.58354 14.7908 2.24217 16.1962C1.82477 21.7321 3.65713 28.6948 5.88858 33.81C5.391 34.0331 4.89506 34.2728 4.41028 34.5299C3.1666 35.1894 2.23993 36.3402 1.86791 37.687L0.862957 41.3257C0.685926 41.9668 0.815434 42.638 1.21822 43.1671C1.62101 43.6965 2.23332 43.9999 2.89847 43.9999H23.1716C23.5277 43.9999 23.8162 43.7114 23.8162 43.3554C23.8162 42.9994 23.5277 42.7109 23.1716 42.7109H7.57511V39.5541C7.57511 39.1981 7.28661 38.9096 6.93057 38.9096C6.57454 38.9096 6.28604 39.1981 6.28604 39.5541V42.7109H2.89839C2.35475 42.7109 1.96064 42.1935 2.10544 41.6692L3.11039 38.0305C3.3884 37.0239 4.08235 36.163 5.01408 35.6689C7.96775 34.1024 11.4291 33.1898 12.9365 32.8389C12.9365 32.8477 12.9365 33.384 12.9365 33.3725C12.9365 33.7747 13.0361 34.1695 13.207 34.5068C13.5503 35.1815 14.982 36.8855 16.5701 38.02C17.4252 38.6306 18.5743 38.6309 19.4296 38.02C20.6405 37.1549 21.7498 36.0066 22.5869 34.8445C23.0537 34.1969 23.0797 33.612 23.0632 32.8386C25.6368 33.4368 28.6249 34.4166 30.9856 35.6688C31.9175 36.163 32.6114 37.0237 32.8894 38.0304L33.8943 41.6691C34.0391 42.1931 33.6455 42.7108 33.1013 42.7108H29.7141V39.554C29.7141 39.198 29.4256 38.9095 29.0695 38.9095C28.7135 38.9095 28.425 39.198 28.425 39.554V42.7109H26.1795C25.8234 42.7109 25.5349 42.9994 25.5349 43.3554C25.5349 43.7114 25.8234 43.9999 26.1795 43.9999H33.1015C34.4969 43.9999 35.5088 42.6722 35.1372 41.3259L34.132 37.6872ZM24.9581 11.2982C26.1103 10.529 27.5811 9.2365 27.8559 7.87559C28.0544 6.89221 28.5529 6.78762 28.5529 6.31969V1.67743C28.5529 1.46783 28.73 1.29072 28.9396 1.29072H32.4796C32.5877 1.29072 32.6756 1.37854 32.6756 1.48665V5.01061C32.6756 6.5219 33.6308 6.41199 33.7541 8.20052C33.7604 8.28654 33.7615 8.28104 33.761 8.25715C33.7695 8.45911 33.8075 9.30387 33.9526 12.2696C33.9778 12.7827 33.8618 13.2927 33.6176 13.7446L31.4114 17.8259C31.2401 18.1428 30.8501 18.2713 30.5242 18.1195C30.1598 17.9494 29.985 17.5351 30.1177 17.1556L31.3698 13.5728C31.5508 13.055 31.5144 12.5056 31.307 12.0393C31.3041 12.0307 30.8106 10.5707 30.7915 10.5297C30.4035 9.69858 29.2979 9.49792 28.6453 10.1592C28.1616 10.6497 28.184 10.6259 28.1661 10.6458C27.1064 11.8202 25.8629 12.395 25.81 12.4191C25.3946 12.6087 24.8811 12.5557 24.6531 12.067C24.5496 11.8445 24.9241 11.3439 24.9581 11.2982ZM29.4572 15.1382C29.1696 14.9207 27.958 14.8718 25.2158 13.8088C25.6089 13.8365 25.9937 13.7523 26.3451 13.5917C26.501 13.5207 27.8997 12.8604 29.1134 11.5202C29.4756 11.1844 29.5574 11.0088 29.615 11.0626L30.0964 12.4834C30.1231 12.5618 30.2712 12.8088 30.153 13.1475L29.4572 15.1382ZM5.90345 12.4834L6.38479 11.0627C6.48731 10.9666 6.96443 11.7823 8.1783 12.6892C7.40125 12.9204 7.03929 12.9244 6.87832 12.9941C6.09664 13.3331 6.32497 14.2127 6.28716 14.4066C5.72444 12.7924 5.72788 12.9983 5.90345 12.4834ZM12.9365 31.5157C11.9131 31.7423 9.56585 32.3183 7.07564 33.309C4.94464 28.43 3.59491 22.8645 3.47614 18.4782C4.01136 19.4183 5.27138 19.804 6.2863 19.1369C6.39819 19.811 5.52893 24.5558 9.70661 28.5761C10.6617 29.4953 11.7534 30.2369 12.9366 30.7827L12.9365 31.5157ZM21.2599 34.4654C20.5289 35.4033 19.6443 36.2826 18.6804 36.9711C18.2989 37.2435 17.7944 37.2607 17.3973 37.0222C16.4574 36.4572 14.7292 34.6169 14.3716 33.9501C14.177 33.5871 14.2256 33.5221 14.2256 31.2879C16.6106 32.0654 19.3122 32.0904 21.7742 31.2878C21.7742 33.9032 21.8935 33.6526 21.2599 34.4654ZM17.7736 30.5884C17.7728 30.5884 17.7645 30.5883 17.7638 30.5883C17.7593 30.5882 17.7547 30.5882 17.7503 30.5881C12.212 30.4719 7.57519 26.145 7.57519 20.6297C7.5764 13.1433 7.57622 14.3249 7.57622 14.1624C8.25968 14.0307 8.93111 13.8276 9.5796 13.5564C11.4103 14.44 12.8642 12.9019 12.676 11.5899C13.8103 10.5847 14.5892 9.52508 15.0358 8.82769C17.8728 11.7476 22.881 14.8205 28.4244 16.1641L28.4252 20.6296C28.4249 26.3498 23.4241 30.7623 17.7736 30.5884ZM23.0633 31.5154V30.7827C24.2467 30.2369 25.3384 29.4953 26.2935 28.576C30.4732 24.5538 29.6013 19.8147 29.7138 19.137C30.7152 19.7961 31.9801 19.4308 32.5237 18.4781C32.4049 22.8642 31.0554 28.4293 28.9244 33.3082C26.4269 32.3139 24.0799 31.74 23.0633 31.5154Z" fill="white"/>
</svg>
