<svg width="25" height="31" viewBox="0 0 25 31" fill="none" xmlns="http://www.w3.org/2000/svg">
<path d="M21.697 9.08255C21.1725 9.08255 20.6836 9.2421 20.2778 9.51396C19.9281 8.52102 18.9798 7.80627 17.8682 7.80627C17.3436 7.80627 16.8548 7.96583 16.4489 8.23768C16.0992 7.24474 15.1509 6.53 14.0393 6.53C13.5747 6.53 13.1382 6.65509 12.763 6.87334V2.70111C12.763 1.29334 11.6182 0.148499 10.2104 0.148499C8.80261 0.148499 7.65777 1.29334 7.65777 2.70111V17.6223L4.14926 15.8674C3.62087 15.6031 3.02865 15.464 2.43774 15.464C1.09255 15.464 0 16.5578 0 17.9094C0 18.5616 0.253963 19.173 0.714745 19.6337L8.96725 27.8862C10.8319 29.7522 13.3144 30.7796 15.9537 30.7796C20.528 30.7796 24.2497 27.0579 24.2497 22.4836V11.6352C24.2497 10.2274 23.1048 9.08255 21.697 9.08255ZM22.9733 22.4836C22.9733 26.3547 19.8234 29.5033 15.9524 29.5033C13.6538 29.5033 11.4943 28.6085 9.87087 26.9826L1.61711 18.7301C1.3976 18.5118 1.27634 18.2196 1.27634 17.9018C1.27634 17.2611 1.79706 16.7404 2.43774 16.7404C2.83212 16.7404 3.22524 16.8335 3.57875 17.0097L8.01135 19.2253C8.20919 19.3236 8.44527 19.3134 8.63163 19.1973C8.81924 19.0811 8.93411 18.8756 8.93411 18.6548V2.70111C8.93411 1.99785 9.50587 1.42483 10.2104 1.42483C10.9149 1.42483 11.4867 1.99791 11.4867 2.70111V14.8259C11.4867 15.1782 11.7726 15.4641 12.1248 15.4641C12.4771 15.4641 12.763 15.1782 12.763 14.8259V9.08261C12.763 8.37935 13.3348 7.80633 14.0393 7.80633C14.7438 7.80633 15.3155 8.37941 15.3155 9.08261V14.8259C15.3155 15.1782 15.6015 15.4641 15.9537 15.4641C16.306 15.4641 16.5919 15.1782 16.5919 14.8259V10.3589C16.5919 9.65562 17.1636 9.08261 17.8682 9.08261C18.5727 9.08261 19.1444 9.65568 19.1444 10.3589V14.8259C19.1444 15.1782 19.4303 15.4641 19.7826 15.4641C20.1349 15.4641 20.4208 15.1782 20.4208 14.8259V11.6352C20.4208 10.9319 20.9925 10.3589 21.697 10.3589C22.4016 10.3589 22.9733 10.932 22.9733 11.6352V22.4836Z" fill="#4f2da7"/>
</svg>
