<svg width="35" height="23" viewBox="0 0 35 23" fill="none" xmlns="http://www.w3.org/2000/svg">
<path d="M23.1566 5.3265L14.8429 2.45877C14.0553 2.1895 13.1734 2.24336 12.4195 2.60687L12.0021 2.80882C11.4366 3.08483 10.7702 3.12522 10.1778 2.9098L9.46422 2.65399C9.43056 2.6338 9.3969 2.6136 9.36324 2.60014L5.10877 1.15281C5.00779 1.11915 4.89335 1.12588 4.79911 1.17301C4.70486 1.22013 4.63081 1.30091 4.59715 1.40189L1.02259 11.8294C0.948542 12.0381 1.06298 12.2669 1.27167 12.341L5.53287 13.8018C5.57999 13.822 5.62038 13.8287 5.6675 13.8287C5.72809 13.8287 5.78868 13.8153 5.84253 13.7883C5.93677 13.7412 6.01082 13.6604 6.04448 13.5594L9.48441 3.52912L9.91524 3.68395C10.7096 3.96669 11.6049 3.91283 12.3656 3.54259L12.783 3.34063C13.3417 3.06463 14.0014 3.02424 14.5871 3.22619L22.5911 5.98622C22.5306 6.33627 22.3623 6.9152 21.9247 7.21813C21.5343 7.4874 20.9688 7.50086 20.2552 7.25179L16.7614 6.06026C16.6537 6.02661 16.5393 6.03334 16.4383 6.08719C16.3373 6.14105 16.27 6.23529 16.2364 6.343C16.2296 6.36319 15.7113 8.27501 14.0957 9.13668C13.0724 9.68868 11.8069 9.70888 10.3326 9.204C10.1239 9.12995 9.89505 9.24439 9.821 9.45307C9.74695 9.66176 9.86139 9.89063 10.0701 9.96468C10.8577 10.234 11.6049 10.3686 12.2983 10.3686C13.0926 10.3686 13.8197 10.1936 14.4794 9.83678C15.92 9.06263 16.6133 7.64896 16.8759 6.94886L19.9792 8.01247C20.9553 8.34906 21.7564 8.30194 22.3757 7.87784C23.372 7.1912 23.4191 5.77753 23.4259 5.71694C23.4326 5.54192 23.3182 5.38036 23.1566 5.3265ZM5.41843 12.9065L1.91791 11.7082L5.22994 2.04814L8.63621 3.21273C8.66314 3.22619 8.69006 3.23966 8.71699 3.25312L8.73045 3.25985L5.41843 12.9065Z" fill="#4f2da7"/>
<path d="M33.8332 11.2976L28.9729 1.42208C28.9257 1.32784 28.845 1.25379 28.744 1.22013C28.643 1.18647 28.5286 1.1932 28.4343 1.24032L24.3885 3.21946C24.1866 3.32044 24.1058 3.55605 24.2001 3.758L28.9123 13.3844L27.3303 14.8317C25.9907 16.0637 24.4761 17.0936 22.8402 17.8947L15.092 21.6847C14.8766 21.7924 14.6342 21.8058 14.4053 21.7251C14.1765 21.6443 13.9947 21.4827 13.887 21.2673C13.7793 21.0519 13.7658 20.8095 13.8466 20.5807C13.9274 20.3518 14.0889 20.17 14.3044 20.0623L18.6329 17.9418C18.8348 17.8408 18.9156 17.6052 18.8214 17.4033C18.7204 17.2013 18.4781 17.1205 18.2828 17.2148L11.9146 20.3316C11.4703 20.547 10.925 20.3652 10.7096 19.921C10.4942 19.4767 10.6759 18.9381 11.1202 18.716L17.3404 15.6732C17.5423 15.5722 17.6231 15.3366 17.5289 15.1347C17.4279 14.9327 17.1856 14.8519 16.9903 14.9462L12.3858 17.2013L10.0095 18.3592C9.56521 18.5746 9.01993 18.3928 8.80452 17.9486C8.5891 17.5043 8.77086 16.959 9.21515 16.7436L9.98258 16.3666L15.5497 13.6402C15.7517 13.5392 15.8325 13.3036 15.7382 13.1017C15.6373 12.8997 15.3949 12.8189 15.1997 12.9132L9.63252 15.6396C9.41711 15.7473 9.17476 15.7607 8.94589 15.6799C8.71701 15.5992 8.53525 15.4376 8.42754 15.2222C8.31983 15.0068 8.30637 14.7644 8.38715 14.5355C8.46793 14.3067 8.62949 14.1249 8.84491 14.0172L11.8002 12.5699C12.0021 12.4689 12.0829 12.2333 11.9886 12.0313C11.8877 11.8294 11.6453 11.7486 11.4501 11.8428L8.49486 13.2902C8.08422 13.4921 7.77456 13.8422 7.62646 14.273C7.47836 14.7038 7.50529 15.1683 7.70724 15.579C7.86207 15.9021 8.11788 16.1579 8.42754 16.3262C7.91593 16.8311 7.76109 17.6187 8.09095 18.2919C8.38715 18.8977 8.99301 19.2478 9.62579 19.2478C9.69984 19.2478 9.77389 19.241 9.84794 19.2343C9.79409 19.5709 9.83448 19.9277 9.99604 20.2643C10.2922 20.8701 10.8981 21.2202 11.5309 21.2202C11.78 21.2202 12.0358 21.1663 12.2781 21.0452L13.0119 20.6816C12.9782 20.998 13.0321 21.3144 13.1802 21.6039C13.3821 22.0145 13.7322 22.3242 14.163 22.4723C14.3448 22.5329 14.5332 22.5665 14.7217 22.5665C14.9775 22.5665 15.2333 22.506 15.469 22.3915L23.2172 18.6015C24.9271 17.7668 26.4956 16.6897 27.8958 15.4039L29.6528 13.7883L33.6447 11.8361C33.8467 11.7351 33.9274 11.4995 33.8332 11.2976ZM29.5922 12.9401L25.1021 3.76473L28.4276 2.14238L32.9109 11.3178L29.5922 12.9401Z" fill="#4f2da7"/>
</svg>
