<svg width="34" height="36" viewBox="0 0 34 36" fill="none" xmlns="http://www.w3.org/2000/svg">
<path d="M9.42962 16.6406H9.04423V13.5215C9.04423 13.1518 8.74406 12.8521 8.3736 12.8521H8.31601V6.47078C8.31601 6.21731 8.17259 5.98553 7.94529 5.87209L2.75549 3.28135C2.54769 3.17764 2.3008 3.18862 2.10301 3.31062C1.90522 3.43254 1.78486 3.64799 1.78486 3.88004V12.8521H1.72728C1.35682 12.8521 1.05665 13.1518 1.05665 13.5215V16.6406H0.670632C0.300175 16.6406 0 16.9403 0 17.31V34.8805C0 35.2501 0.300175 35.5498 0.670632 35.5498H9.42944C9.7999 35.5498 10.1001 35.2501 10.1001 34.8805V17.31C10.1003 16.9403 9.80008 16.6406 9.42962 16.6406ZM3.12631 4.96326L6.97484 6.88445V12.8521H3.12631V4.96326ZM2.39818 14.1909H7.70306V16.6406H2.39818V14.1909ZM8.75899 34.2111H1.34144V17.9793H8.75899V34.2111Z" fill="#4f2da7"/>
<path d="M32.9487 27.5927H11.1662C10.7957 27.5927 10.4956 27.8924 10.4956 28.2621C10.4956 28.6317 10.7957 28.9314 11.1662 28.9314H31.8817L31.7283 29.2496C30.8859 30.9968 29.0864 32.1258 27.1438 32.1258H11.1662C10.7957 32.1258 10.4956 32.4255 10.4956 32.7952C10.4956 33.1648 10.7957 33.4645 11.1662 33.4645H27.1438C29.5986 33.4645 31.8725 32.038 32.9369 29.8301L33.553 28.5523C33.653 28.3449 33.6393 28.1007 33.5165 27.9059C33.3937 27.711 33.1793 27.5927 32.9487 27.5927Z" fill="#4f2da7"/>
<path d="M9.61775 5.35819C12.1183 3.04751 15.3735 1.7749 18.7838 1.7749C26.2246 1.7749 32.2781 7.81711 32.2781 15.2439C32.2781 19.2479 30.5104 23.0181 27.4285 25.5877C27.1441 25.8248 27.1062 26.2468 27.3437 26.5305C27.4763 26.689 27.6668 26.7708 27.8588 26.7708C28.0103 26.7708 28.1629 26.7197 28.2883 26.6151C31.6764 23.7905 33.6195 19.6458 33.6195 15.2438C33.6194 7.07892 26.9641 0.436157 18.7838 0.436157C15.0346 0.436157 11.4558 1.83533 8.7065 4.37591C8.43476 4.62706 8.4184 5.05055 8.67002 5.32186C8.92155 5.59301 9.34584 5.60934 9.61775 5.35819Z" fill="#4f2da7"/>
<path d="M18.7834 4.55896C24.6864 4.55896 29.4888 9.35238 29.4888 15.2443C29.4888 21.1362 24.6864 25.9296 18.7834 25.9296C16.1296 25.9296 13.5841 24.9534 11.6154 23.181C11.3406 22.9334 10.9165 22.9551 10.6682 23.2296C10.4202 23.5041 10.442 23.9274 10.7171 24.175C12.9325 26.1698 15.7971 27.2684 18.7834 27.2684C25.426 27.2684 30.8301 21.8744 30.8301 15.2443C30.8301 8.6142 25.426 3.22021 18.7834 3.22021C14.9684 3.22021 11.3391 5.0534 9.07517 8.12404C8.85556 8.42177 8.91949 8.8408 9.21779 9.05991C9.51609 9.27893 9.93572 9.21529 10.1554 8.91756C12.1677 6.18839 15.3931 4.55896 18.7834 4.55896Z" fill="#4f2da7"/>
<path d="M26.1612 9.97106L13.9228 22.1865C13.6609 22.4479 13.6609 22.8717 13.9228 23.1331C14.0538 23.2637 14.2254 23.3292 14.397 23.3292C14.5686 23.3292 14.7403 23.2638 14.8713 23.1331L27.1096 10.9176C27.3715 10.6562 27.3715 10.2324 27.1096 9.97106C26.8476 9.70965 26.4231 9.70965 26.1612 9.97106Z" fill="#4f2da7"/>
<path d="M17.6495 22.2691C17.3876 22.5305 17.3876 22.9544 17.6495 23.2157C17.7805 23.3464 17.9522 23.4118 18.1238 23.4118C18.2954 23.4118 18.4671 23.3465 18.5981 23.2157L27.7866 14.0444C28.0485 13.783 28.0485 13.3592 27.7866 13.0978C27.5246 12.8364 27.1001 12.8364 26.8382 13.0978L17.6495 22.2691Z" fill="#4f2da7"/>
</svg>
