<svg width="51" height="41" viewBox="0 0 51 41" fill="none" xmlns="http://www.w3.org/2000/svg">
<path d="M2.7549 40.1693C2.04938 40.1693 1.34408 39.9007 0.80691 39.3635C0.286368 38.8432 0 38.1513 0 37.4155C0 36.6795 0.286368 35.9876 0.80691 35.4673L35.0138 1.26068C36.6941 -0.420112 39.4291 -0.420343 41.1099 1.26068L50.797 10.9475C51.0677 11.218 51.0677 11.6567 50.797 11.9272C50.5263 12.1978 50.088 12.1978 49.8173 11.9272L40.9783 3.08835L39.3596 4.70702L48.1984 13.5458C48.4691 13.8163 48.4691 14.2551 48.1984 14.5255C47.9278 14.7962 47.4895 14.7959 47.2188 14.5255L38.3797 5.68668L36.7613 7.30512L45.6001 16.1439C45.8708 16.4146 45.8708 16.8532 45.6001 17.1238C45.3295 17.3945 44.8911 17.3945 44.6205 17.1238L35.7814 8.285L34.163 9.90344L43.0016 18.7425C43.2722 19.0129 43.2722 19.4517 43.0016 19.7224C42.7309 19.9928 42.2926 19.9928 42.0219 19.7224L33.1831 10.8836L31.5644 12.5022L40.4032 21.3413C40.6739 21.6117 40.6739 22.0505 40.4032 22.3212C40.1326 22.5916 39.6942 22.5916 39.4236 22.3212L30.5848 13.4823L28.9661 15.101L37.8049 23.9401C38.0756 24.2105 38.0756 24.6493 37.8049 24.9197C37.5343 25.1904 37.0959 25.1902 36.8253 24.9197L27.9862 16.0807L26.3678 17.6991L35.2066 26.5382C35.4773 26.8086 35.4773 27.2474 35.2066 27.5178C34.9359 27.7885 34.4976 27.7885 34.2269 27.5178L25.3879 18.679L23.7692 20.2977L32.608 29.1367C32.8787 29.4072 32.8787 29.8459 32.608 30.1164C32.3374 30.387 31.899 30.387 31.6284 30.1164L22.7896 21.2775L21.1709 22.8962L30.0097 31.735C30.2804 32.0057 30.2804 32.4443 30.0097 32.7149C29.739 32.9856 29.3007 32.9856 29.0301 32.7149L20.1912 23.8754L18.5728 25.4938L27.4116 34.3329C27.6823 34.6033 27.6823 35.0421 27.4116 35.3126C27.141 35.5832 26.7026 35.5832 26.432 35.3126L17.5929 26.4737L4.70313 39.3635C4.16596 39.9007 3.46043 40.1693 2.7549 40.1693ZM38.062 1.38493C37.313 1.38493 36.5641 1.66991 35.9936 2.24034L1.78656 36.4472C1.25263 36.9811 1.25263 37.8499 1.78656 38.3839C2.32073 38.918 3.1893 38.9176 3.72324 38.3839L17.0985 25.0086C17.0998 25.007 17.1015 25.0056 17.1031 25.004C17.1045 25.0024 17.1061 25.001 17.1077 24.9994L19.6924 22.4147C19.6954 22.4115 19.6982 22.4085 19.7014 22.4055C19.7044 22.4025 19.7074 22.3995 19.7104 22.3965L24.8925 17.2144C24.8944 17.2125 24.8962 17.2104 24.898 17.2088C24.8999 17.207 24.902 17.2049 24.9036 17.203L27.4901 14.6165C27.4922 14.6144 27.4943 14.6123 27.4961 14.6105C27.498 14.6086 27.5003 14.6063 27.5021 14.6045L32.6861 9.42031C32.6884 9.418 32.6907 9.41569 32.6928 9.41361C32.6951 9.41153 32.6974 9.40922 32.6995 9.40691L35.2842 6.82222C35.2865 6.81991 35.2888 6.8176 35.2909 6.81552C35.293 6.81344 35.2955 6.8109 35.2976 6.80882L37.8788 4.22759C37.8823 4.22412 37.8855 4.22066 37.8892 4.2172C37.8927 4.21373 37.8961 4.21027 37.8996 4.20703L39.9935 2.11309C39.4437 1.62765 38.7529 1.38493 38.062 1.38493Z" fill="#4f2da7"/>
</svg>
