<svg width="38" height="36" viewBox="0 0 38 36" fill="none" xmlns="http://www.w3.org/2000/svg">
<path d="M37.402 27.7183C37.0947 26.7099 36.542 25.7934 35.7934 25.0512C34.6011 23.8523 32.9787 23.1803 31.2879 23.1849C30.4238 23.1853 29.5686 23.3607 28.774 23.7002L22.5066 17.4329L30.8283 9.17388L32.799 9.11817C33.0374 9.11095 33.2555 8.98212 33.377 8.77695L36.1973 4.03465C36.3612 3.76097 36.3181 3.41087 36.0928 3.18507L33.6555 0.747768C33.4297 0.522491 33.0796 0.479403 32.806 0.643312L28.0637 3.46362C27.8585 3.58514 27.7297 3.80319 27.7224 4.04161L27.6667 6.00538L19.366 14.2922L13.6696 8.59589C14.2677 5.12804 11.9413 1.83193 8.47347 1.23384C6.86667 0.95668 5.2147 1.30609 3.85773 2.21015C3.53914 2.42559 3.45549 2.85847 3.67093 3.17707C3.73152 3.26664 3.81212 3.34089 3.90648 3.39399L7.06801 5.15581C7.76439 5.55274 7.90366 6.73658 7.3396 7.73935C6.77554 8.74213 5.69616 9.25745 4.99282 8.86748L2.06109 7.27975C1.72413 7.09434 1.30065 7.21725 1.11533 7.5542C1.05144 7.67024 1.02202 7.80211 1.03055 7.93434C1.25086 11.4465 4.27669 14.115 7.78885 13.8947C8.51447 13.8492 9.22694 13.6798 9.89538 13.3939L15.0764 18.5749L12.8341 20.8172L12.3257 20.3158C11.763 19.7773 10.876 19.7773 10.3132 20.3158L9.61683 21.0122C9.08628 21.5288 9.05268 22.3701 9.54023 22.9272L1.30213 31.1514C0.746425 31.6832 0.727014 32.5649 1.25878 33.1206C1.27288 33.1354 1.28733 33.1498 1.30213 33.1639L3.65587 35.5177C4.18764 36.0734 5.06934 36.0928 5.62504 35.561C5.63984 35.5469 5.65429 35.5325 5.66839 35.5177L13.9134 27.2796C14.4706 27.7671 15.3119 27.7335 15.8285 27.203L16.5248 26.5066C17.0806 25.9748 17.1 25.0931 16.5682 24.5374C16.5541 24.5226 16.5396 24.5082 16.5248 24.4941L16.0165 23.9857L18.2449 21.7086L24.9997 28.4634C24.4161 31.9338 26.7563 35.2201 30.2267 35.8036C32.2822 36.1493 34.3768 35.4677 35.8353 33.9787C36.091 33.6914 36.0656 33.2513 35.7783 32.9955C35.7042 32.9294 35.6167 32.88 35.5219 32.8506L31.6013 31.799C31.2171 31.6755 30.913 31.3791 30.7796 30.9982C30.5759 30.4731 30.5515 29.8953 30.71 29.3548C31.0024 28.2615 31.9286 27.4815 32.7086 27.6904L36.5874 28.735C36.6497 28.7441 36.7131 28.7441 36.7754 28.735C37.16 28.7397 37.4755 28.4317 37.4801 28.0472C37.4814 27.9328 37.4547 27.8198 37.402 27.7183ZM28.8297 6.77836C28.955 6.65214 29.0273 6.48266 29.0316 6.30482L29.0873 4.44551L33.0358 2.09873L34.7071 3.77003L32.409 7.7115L30.5149 7.78114C30.3371 7.78549 30.1676 7.85774 30.0414 7.98308L21.5456 16.4719L20.3478 15.2741L28.8297 6.77836ZM4.67945 34.5288L2.29089 32.1542L10.5708 23.8952L11.7685 25.093L12.9106 26.2768L4.67945 34.5288ZM14.8674 26.1723L13.9482 25.2462L13.593 24.891L10.6683 21.9454L11.3646 21.249L15.5429 25.4829L14.8674 26.1723ZM14.9997 22.9969L13.8019 21.7991L16.0443 19.5568L17.242 20.7546L14.9997 22.9969ZM33.0497 26.3464C32.843 26.2909 32.63 26.2628 32.416 26.2629C30.8978 26.3854 29.6447 27.4993 29.345 28.9927C29.1074 29.8313 29.1538 30.725 29.4773 31.5344C29.7758 32.3134 30.4231 32.9066 31.2252 33.1361L33.8157 33.8324C31.4534 35.2401 28.3973 34.4662 26.9897 32.104C26.3286 30.9946 26.1244 29.6718 26.4202 28.4147C26.4732 28.1809 26.4022 27.9362 26.2322 27.767L10.536 12.0569C10.3131 11.8475 9.97981 11.808 9.71423 11.9594C8.99514 12.3388 8.1944 12.5373 7.38138 12.5374C5.28626 12.5392 3.41484 11.2275 2.70175 9.25745L4.28948 10.1418C4.65961 10.3491 5.077 10.457 5.50117 10.4552C6.79051 10.381 7.9437 9.62809 8.5304 8.47751C9.47746 6.78532 9.10839 4.7728 7.71564 3.99287L5.68919 2.84385C8.27883 1.91881 11.128 3.26829 12.053 5.85784C12.374 6.75668 12.43 7.72882 12.2142 8.65857C12.1612 8.89237 12.2322 9.13706 12.4022 9.30619L28.1333 25.0303C28.3483 25.2456 28.6782 25.2964 28.9481 25.1556C29.6672 24.7765 30.4679 24.5781 31.2809 24.5777C33.0443 24.5763 34.6765 25.509 35.5706 27.0289L33.0497 26.3464Z" fill="#4f2da7"/>
</svg>
