<svg width="54" height="40" viewBox="0 0 54 40" fill="none" xmlns="http://www.w3.org/2000/svg">
<mask id="path-1-inside-1" fill="#4f2da7">
<path d="M53.8171 18.6197L45.349 6.18217C43.578 3.5813 40.9494 1.63044 37.947 0.688917C34.9446 -0.252395 31.6727 -0.151989 28.7338 0.972207L21.0015 3.92967C20.4574 4.13776 20.1852 4.74737 20.3932 5.29138C20.6013 5.83539 21.211 6.10739 21.755 5.89973L29.4873 2.94227C34.6744 0.958602 40.4799 2.77879 43.6055 7.36933L48.8067 15.0085L39.4727 8.43447C37.5164 7.05662 34.9963 6.69507 32.7314 7.46752L4.64675 17.0455C3.66926 17.3794 2.59474 16.8574 2.25197 15.883C1.81322 14.6358 2.43686 13.2887 3.67179 12.8164L13.3353 9.12023C13.8794 8.91214 14.1516 8.30252 13.9436 7.75851C13.7354 7.2144 13.1256 6.94239 12.5818 7.15017L2.91822 10.8464C0.608127 11.73 -0.558467 14.2497 0.262083 16.5829C0.987078 18.6441 3.2593 19.7474 5.32755 19.0418L33.4124 9.46395C35.0403 8.90866 36.8519 9.16853 38.2583 10.159L52.3383 20.0756C52.5216 20.2047 52.7339 20.268 52.9453 20.268C53.2144 20.268 53.4819 20.1653 53.6854 19.965C54.0484 19.6073 54.104 19.0411 53.8171 18.6197Z"/>
<path d="M18.1762 5.6794C17.9801 5.48217 17.708 5.37038 17.4307 5.37038C17.1533 5.37038 16.8812 5.48217 16.6851 5.6794C16.4889 5.87558 16.3761 6.14674 16.3761 6.42496C16.3761 6.70235 16.4889 6.97446 16.6851 7.17053C16.8813 7.3667 17.1534 7.47955 17.4307 7.47955C17.7081 7.47955 17.9802 7.3667 18.1762 7.17053C18.3724 6.97435 18.4853 6.70224 18.4853 6.42496C18.4853 6.14653 18.3724 5.87558 18.1762 5.6794Z"/>
<path d="M45.5052 28.7223L45.4652 28.71C44.1956 28.3159 43.1028 27.5266 42.3322 26.4602C43.1235 25.8225 43.8865 25.1404 44.6152 24.4116C45.0271 23.9997 45.0271 23.332 44.6152 22.92C44.2035 22.5083 43.5357 22.5083 43.1238 22.92C38.9877 27.0562 33.7046 29.6282 27.9917 30.34C27.9534 30.3426 27.9157 30.347 27.8786 30.3536C26.8392 30.4786 25.7859 30.5426 24.7228 30.5427L24.7211 30.5426L24.7194 30.5427C23.6563 30.5427 22.6031 30.4786 21.5636 30.3536C21.5265 30.3469 21.4888 30.3425 21.4504 30.34C15.7376 29.6282 10.4544 27.0562 6.31834 22.92C5.90648 22.5084 5.23876 22.5083 4.8269 22.92C4.41504 23.3319 4.41504 23.9996 4.8269 24.4116C5.55569 25.1404 6.31865 25.8226 7.10999 26.4602C6.33943 27.5266 5.24688 28.316 3.97829 28.7095L3.93695 28.7223C3.38039 28.8942 3.06862 29.4846 3.24054 30.0412C3.38039 30.4941 3.79752 30.7849 4.24777 30.7849C4.35092 30.7849 4.45575 30.7696 4.55932 30.7376L4.60204 30.7244C6.30094 30.1972 7.76422 29.1436 8.80034 27.721C9.16105 27.9696 9.52671 28.2094 9.89743 28.4401C9.38243 30.0561 8.17702 31.3619 6.57821 31.9962L6.25168 32.1256C5.7102 32.3403 5.44548 32.9533 5.6601 33.4947C5.82421 33.9086 6.22099 34.1607 6.64065 34.1607C6.77006 34.1607 6.90158 34.1367 7.0292 34.0861L7.35605 33.9565C9.40753 33.1426 10.9886 31.5229 11.7614 29.5022C12.1665 29.713 12.5762 29.9135 12.9906 30.1037C12.8698 31.9122 11.8241 33.5265 10.2009 34.3734L10.138 34.4062C9.62153 34.6755 9.42113 35.3124 9.69029 35.8289C9.87834 36.1897 10.2458 36.3962 10.6262 36.3962C10.7904 36.3962 10.9572 36.3577 11.1129 36.2765L11.176 36.2436C13.247 35.1631 14.6479 33.1936 15.015 30.9384C15.4623 31.1024 15.9137 31.2554 16.3694 31.3964C16.3091 33.0692 15.6605 34.6592 14.5249 35.898C14.1313 36.3274 14.1603 36.9943 14.5898 37.3881C14.7923 37.5737 15.0475 37.6652 15.302 37.6652C15.5874 37.6652 15.8718 37.5501 16.0797 37.3232C17.4464 35.8322 18.2709 33.9499 18.4478 31.9531C19.054 32.0905 19.6662 32.2068 20.2834 32.3039C20.1467 33.924 19.6495 35.4995 18.8224 36.9071L18.6805 37.1488C18.3855 37.651 18.5535 38.2972 19.0557 38.5923C19.2235 38.6908 19.4074 38.7378 19.589 38.7378C19.9508 38.7378 20.3028 38.5514 20.4993 38.2169L20.6412 37.9755C21.6159 36.3167 22.207 34.4623 22.3789 32.5542C22.8062 32.5892 23.2355 32.6144 23.6664 32.6302V38.896C23.6664 39.4784 24.1386 39.9505 24.721 39.9505C25.3034 39.9505 25.7756 39.4782 25.7756 38.896V32.6302C26.2067 32.6144 26.6358 32.5892 27.0632 32.5542C27.2351 34.4621 27.826 36.3167 28.8008 37.9753L28.9427 38.2169C29.1392 38.5515 29.4914 38.7378 29.853 38.7378C30.0346 38.7378 30.2185 38.6908 30.3863 38.5923C30.8885 38.2972 31.0564 37.651 30.7616 37.1488L30.6195 36.9069C29.7925 35.4995 29.2953 33.9238 29.1586 32.3039C29.7758 32.2067 30.3881 32.0905 30.9942 31.9531C31.171 33.9498 31.9957 35.8322 33.3623 37.3232C33.5703 37.5501 33.8546 37.6652 34.14 37.6652C34.3947 37.6652 34.6499 37.5736 34.8523 37.3881C35.2816 36.9945 35.3108 36.3274 34.9171 35.898C33.7817 34.6592 33.1329 33.069 33.0726 31.3964C33.5283 31.2554 33.9797 31.1025 34.427 30.9384C34.7942 33.1937 36.1951 35.1632 38.2663 36.2437L38.3292 36.2765C38.485 36.3577 38.6516 36.3962 38.8158 36.3962C39.1963 36.3962 39.5637 36.1896 39.7517 35.8289C40.021 35.3124 39.8206 34.6754 39.304 34.4062L39.2415 34.3735C37.6179 33.5266 36.5723 31.9122 36.4514 30.1037C36.8659 29.9135 37.2756 29.713 37.6806 29.5022C38.4533 31.5229 40.0344 33.1426 42.0861 33.9566L42.4128 34.0862C42.5405 34.1368 42.672 34.1608 42.8014 34.1608C43.2211 34.1608 43.6178 33.9084 43.7819 33.4948C43.9967 32.9533 43.7318 32.3404 43.1904 32.1257L42.8638 31.9962C41.2649 31.3618 40.0594 30.056 39.5445 28.44C39.9152 28.2093 40.2809 27.9695 40.6416 27.7209C41.6777 29.1436 43.1411 30.1972 44.8413 30.7247L44.8826 30.7375C44.9863 30.7696 45.0911 30.7847 45.1942 30.7847C45.6445 30.7847 46.0615 30.4939 46.2014 30.0411C46.3735 29.4846 46.0619 28.8942 45.5052 28.7223Z"/>
</mask>
<path d="M53.8171 18.6197L45.349 6.18217C43.578 3.5813 40.9494 1.63044 37.947 0.688917C34.9446 -0.252395 31.6727 -0.151989 28.7338 0.972207L21.0015 3.92967C20.4574 4.13776 20.1852 4.74737 20.3932 5.29138C20.6013 5.83539 21.211 6.10739 21.755 5.89973L29.4873 2.94227C34.6744 0.958602 40.4799 2.77879 43.6055 7.36933L48.8067 15.0085L39.4727 8.43447C37.5164 7.05662 34.9963 6.69507 32.7314 7.46752L4.64675 17.0455C3.66926 17.3794 2.59474 16.8574 2.25197 15.883C1.81322 14.6358 2.43686 13.2887 3.67179 12.8164L13.3353 9.12023C13.8794 8.91214 14.1516 8.30252 13.9436 7.75851C13.7354 7.2144 13.1256 6.94239 12.5818 7.15017L2.91822 10.8464C0.608127 11.73 -0.558467 14.2497 0.262083 16.5829C0.987078 18.6441 3.2593 19.7474 5.32755 19.0418L33.4124 9.46395C35.0403 8.90866 36.8519 9.16853 38.2583 10.159L52.3383 20.0756C52.5216 20.2047 52.7339 20.268 52.9453 20.268C53.2144 20.268 53.4819 20.1653 53.6854 19.965C54.0484 19.6073 54.104 19.0411 53.8171 18.6197Z" fill="#4f2da7"/>
<path d="M18.1762 5.6794C17.9801 5.48217 17.708 5.37038 17.4307 5.37038C17.1533 5.37038 16.8812 5.48217 16.6851 5.6794C16.4889 5.87558 16.3761 6.14674 16.3761 6.42496C16.3761 6.70235 16.4889 6.97446 16.6851 7.17053C16.8813 7.3667 17.1534 7.47955 17.4307 7.47955C17.7081 7.47955 17.9802 7.3667 18.1762 7.17053C18.3724 6.97435 18.4853 6.70224 18.4853 6.42496C18.4853 6.14653 18.3724 5.87558 18.1762 5.6794Z" fill="#4f2da7"/>
<path d="M45.5052 28.7223L45.4652 28.71C44.1956 28.3159 43.1028 27.5266 42.3322 26.4602C43.1235 25.8225 43.8865 25.1404 44.6152 24.4116C45.0271 23.9997 45.0271 23.332 44.6152 22.92C44.2035 22.5083 43.5357 22.5083 43.1238 22.92C38.9877 27.0562 33.7046 29.6282 27.9917 30.34C27.9534 30.3426 27.9157 30.347 27.8786 30.3536C26.8392 30.4786 25.7859 30.5426 24.7228 30.5427L24.7211 30.5426L24.7194 30.5427C23.6563 30.5427 22.6031 30.4786 21.5636 30.3536C21.5265 30.3469 21.4888 30.3425 21.4504 30.34C15.7376 29.6282 10.4544 27.0562 6.31834 22.92C5.90648 22.5084 5.23876 22.5083 4.8269 22.92C4.41504 23.3319 4.41504 23.9996 4.8269 24.4116C5.55569 25.1404 6.31865 25.8226 7.10999 26.4602C6.33943 27.5266 5.24688 28.316 3.97829 28.7095L3.93695 28.7223C3.38039 28.8942 3.06862 29.4846 3.24054 30.0412C3.38039 30.4941 3.79752 30.7849 4.24777 30.7849C4.35092 30.7849 4.45575 30.7696 4.55932 30.7376L4.60204 30.7244C6.30094 30.1972 7.76422 29.1436 8.80034 27.721C9.16105 27.9696 9.52671 28.2094 9.89743 28.4401C9.38243 30.0561 8.17702 31.3619 6.57821 31.9962L6.25168 32.1256C5.7102 32.3403 5.44548 32.9533 5.6601 33.4947C5.82421 33.9086 6.22099 34.1607 6.64065 34.1607C6.77006 34.1607 6.90158 34.1367 7.0292 34.0861L7.35605 33.9565C9.40753 33.1426 10.9886 31.5229 11.7614 29.5022C12.1665 29.713 12.5762 29.9135 12.9906 30.1037C12.8698 31.9122 11.8241 33.5265 10.2009 34.3734L10.138 34.4062C9.62153 34.6755 9.42113 35.3124 9.69029 35.8289C9.87834 36.1897 10.2458 36.3962 10.6262 36.3962C10.7904 36.3962 10.9572 36.3577 11.1129 36.2765L11.176 36.2436C13.247 35.1631 14.6479 33.1936 15.015 30.9384C15.4623 31.1024 15.9137 31.2554 16.3694 31.3964C16.3091 33.0692 15.6605 34.6592 14.5249 35.898C14.1313 36.3274 14.1603 36.9943 14.5898 37.3881C14.7923 37.5737 15.0475 37.6652 15.302 37.6652C15.5874 37.6652 15.8718 37.5501 16.0797 37.3232C17.4464 35.8322 18.2709 33.9499 18.4478 31.9531C19.054 32.0905 19.6662 32.2068 20.2834 32.3039C20.1467 33.924 19.6495 35.4995 18.8224 36.9071L18.6805 37.1488C18.3855 37.651 18.5535 38.2972 19.0557 38.5923C19.2235 38.6908 19.4074 38.7378 19.589 38.7378C19.9508 38.7378 20.3028 38.5514 20.4993 38.2169L20.6412 37.9755C21.6159 36.3167 22.207 34.4623 22.3789 32.5542C22.8062 32.5892 23.2355 32.6144 23.6664 32.6302V38.896C23.6664 39.4784 24.1386 39.9505 24.721 39.9505C25.3034 39.9505 25.7756 39.4782 25.7756 38.896V32.6302C26.2067 32.6144 26.6358 32.5892 27.0632 32.5542C27.2351 34.4621 27.826 36.3167 28.8008 37.9753L28.9427 38.2169C29.1392 38.5515 29.4914 38.7378 29.853 38.7378C30.0346 38.7378 30.2185 38.6908 30.3863 38.5923C30.8885 38.2972 31.0564 37.651 30.7616 37.1488L30.6195 36.9069C29.7925 35.4995 29.2953 33.9238 29.1586 32.3039C29.7758 32.2067 30.3881 32.0905 30.9942 31.9531C31.171 33.9498 31.9957 35.8322 33.3623 37.3232C33.5703 37.5501 33.8546 37.6652 34.14 37.6652C34.3947 37.6652 34.6499 37.5736 34.8523 37.3881C35.2816 36.9945 35.3108 36.3274 34.9171 35.898C33.7817 34.6592 33.1329 33.069 33.0726 31.3964C33.5283 31.2554 33.9797 31.1025 34.427 30.9384C34.7942 33.1937 36.1951 35.1632 38.2663 36.2437L38.3292 36.2765C38.485 36.3577 38.6516 36.3962 38.8158 36.3962C39.1963 36.3962 39.5637 36.1896 39.7517 35.8289C40.021 35.3124 39.8206 34.6754 39.304 34.4062L39.2415 34.3735C37.6179 33.5266 36.5723 31.9122 36.4514 30.1037C36.8659 29.9135 37.2756 29.713 37.6806 29.5022C38.4533 31.5229 40.0344 33.1426 42.0861 33.9566L42.4128 34.0862C42.5405 34.1368 42.672 34.1608 42.8014 34.1608C43.2211 34.1608 43.6178 33.9084 43.7819 33.4948C43.9967 32.9533 43.7318 32.3404 43.1904 32.1257L42.8638 31.9962C41.2649 31.3618 40.0594 30.056 39.5445 28.44C39.9152 28.2093 40.2809 27.9695 40.6416 27.7209C41.6777 29.1436 43.1411 30.1972 44.8413 30.7247L44.8826 30.7375C44.9863 30.7696 45.0911 30.7847 45.1942 30.7847C45.6445 30.7847 46.0615 30.4939 46.2014 30.0411C46.3735 29.4846 46.0619 28.8942 45.5052 28.7223Z" fill="#4f2da7"/>
</svg>
