<svg width="36" height="36" viewBox="0 0 36 36" fill="none" xmlns="http://www.w3.org/2000/svg">
<path d="M4.38457 19.6115C4.61875 19.8457 4.99837 19.8457 5.23254 19.6115L8.83015 16.0139C8.84416 15.9999 8.85737 15.9852 8.86994 15.9699C8.87559 15.963 8.88052 15.9557 8.8858 15.9487C8.89223 15.9401 8.89888 15.9317 8.90488 15.9228C8.91059 15.9143 8.91545 15.9055 8.92067 15.8968C8.92545 15.8887 8.93052 15.8809 8.93502 15.8726C8.93981 15.8636 8.94381 15.8545 8.9481 15.8453C8.95217 15.8367 8.95646 15.8282 8.96017 15.8193C8.96381 15.8105 8.96681 15.8015 8.97003 15.7925C8.97346 15.783 8.97703 15.7737 8.98003 15.764C8.98274 15.755 8.98475 15.7459 8.98703 15.7368C8.98953 15.7269 8.99232 15.7172 8.99432 15.707C8.99639 15.6967 8.9976 15.6862 8.9991 15.6758C9.00039 15.6668 9.0021 15.658 9.00296 15.649C9.00682 15.6097 9.00682 15.5701 9.00296 15.5308C9.0021 15.5217 9.00039 15.513 8.9991 15.5041C8.9976 15.4937 8.99639 15.4832 8.99432 15.4728C8.99232 15.4627 8.98953 15.4529 8.98703 15.443C8.98475 15.4339 8.98274 15.4248 8.98003 15.4159C8.9771 15.4061 8.97346 15.3969 8.97003 15.3874C8.96681 15.3784 8.96389 15.3694 8.96017 15.3605C8.95653 15.3516 8.95217 15.3431 8.9481 15.3345C8.94381 15.3254 8.93974 15.3162 8.93502 15.3073C8.93059 15.299 8.92552 15.2911 8.92067 15.2831C8.91545 15.2743 8.91052 15.2656 8.90488 15.2571C8.89888 15.2481 8.89223 15.2397 8.8858 15.2311C8.88052 15.2241 8.87559 15.2168 8.86994 15.21C8.84487 15.1794 8.81687 15.1514 8.78629 15.1263C8.77943 15.1207 8.77215 15.1158 8.76507 15.1105C8.7565 15.104 8.74807 15.0974 8.73921 15.0915C8.73071 15.0857 8.72185 15.0808 8.71307 15.0756C8.70499 15.0708 8.69714 15.0657 8.68885 15.0613C8.67992 15.0565 8.67078 15.0525 8.6617 15.0482C8.65306 15.0442 8.64456 15.0399 8.6357 15.0362C8.62677 15.0325 8.6177 15.0295 8.6087 15.0263C8.59927 15.023 8.58998 15.0193 8.58034 15.0164C8.57126 15.0137 8.56212 15.0117 8.55297 15.0093C8.54319 15.0068 8.53347 15.0041 8.52347 15.0021C8.5129 15 8.50225 14.9987 8.49161 14.9972C8.48289 14.996 8.47432 14.9943 8.46546 14.9935C8.44582 14.9915 8.42603 14.9905 8.40631 14.9905H6.25617L8.83022 12.4164C9.0644 12.1822 9.0644 11.8026 8.83022 11.5684C8.59605 11.3343 8.21643 11.3343 7.98226 11.5684L4.38464 15.166C4.37064 15.18 4.35743 15.1948 4.34485 15.2101C4.33921 15.2169 4.33428 15.2242 4.32899 15.2312C4.32256 15.2398 4.31592 15.2482 4.30992 15.2571C4.3042 15.2656 4.29935 15.2744 4.29413 15.2831C4.28934 15.2912 4.28427 15.2991 4.27977 15.3074C4.27499 15.3163 4.27099 15.3254 4.2667 15.3346C4.26263 15.3432 4.25834 15.3517 4.25463 15.3606C4.25098 15.3694 4.24798 15.3784 4.24477 15.3874C4.24134 15.3969 4.23777 15.4062 4.23477 15.4159C4.23205 15.4249 4.23005 15.434 4.22777 15.4431C4.22527 15.453 4.22248 15.4627 4.22048 15.4729C4.21841 15.4832 4.21719 15.4937 4.21569 15.5042C4.21441 15.5131 4.21269 15.5219 4.21183 15.5309C4.20798 15.5702 4.20798 15.6098 4.21183 15.6491C4.21269 15.6582 4.21441 15.6669 4.21569 15.6758C4.21719 15.6863 4.21841 15.6968 4.22048 15.7071C4.22248 15.7172 4.22527 15.727 4.22777 15.7369C4.23005 15.746 4.23205 15.7551 4.23477 15.7641C4.2377 15.7738 4.24134 15.7831 4.24477 15.7926C4.24798 15.8016 4.25091 15.8106 4.25463 15.8194C4.25827 15.8283 4.26263 15.8368 4.2667 15.8454C4.27099 15.8545 4.27506 15.8637 4.27977 15.8726C4.2842 15.8809 4.28927 15.8889 4.29413 15.8969C4.29935 15.9056 4.30428 15.9144 4.30992 15.9229C4.31592 15.9318 4.32256 15.9402 4.32899 15.9488C4.33428 15.9559 4.33921 15.9631 4.34485 15.9699C4.36993 16.0005 4.39793 16.0285 4.42851 16.0536C4.43536 16.0592 4.44265 16.0642 4.44972 16.0695C4.4583 16.0759 4.46673 16.0825 4.47558 16.0885C4.48408 16.0942 4.49294 16.0991 4.50173 16.1043C4.5098 16.1091 4.51766 16.1142 4.52595 16.1186C4.53481 16.1233 4.54395 16.1274 4.55302 16.1316C4.56174 16.1357 4.57024 16.14 4.57917 16.1437C4.58803 16.1474 4.59703 16.1504 4.60603 16.1536C4.61553 16.157 4.62482 16.1606 4.63453 16.1636C4.64361 16.1663 4.65275 16.1683 4.66189 16.1707C4.67168 16.1732 4.6814 16.1759 4.6914 16.1779C4.70197 16.18 4.71261 16.1813 4.72326 16.1828C4.73197 16.184 4.74055 16.1857 4.74941 16.1865C4.76905 16.1885 4.78884 16.1895 4.80856 16.1895H6.95862L4.38457 18.7636C4.1504 18.9977 4.1504 19.3773 4.38457 19.6115Z" fill="#4f2da7"/>
<path d="M22.1973 19.1952C21.8661 19.1952 21.5977 19.4636 21.5977 19.7947C21.5977 21.0118 21.3422 21.7482 20.8104 22.4904C20.7392 22.5899 20.3702 23.0705 20.2731 23.2112C20.0879 23.4796 19.9581 23.7332 19.8813 24H19.7454C19.7088 23.3941 19.7622 22.9047 19.8936 22.2711C19.8913 22.2823 19.9552 21.9787 19.9721 21.894C20.0017 21.7463 20.0233 21.6231 20.0399 21.5019C20.13 20.8441 20.0559 20.2649 19.7495 19.5566C19.618 19.2527 19.265 19.1129 18.9611 19.2444C18.6572 19.3759 18.5174 19.7289 18.6489 20.0328C18.8668 20.5366 18.9127 20.8948 18.8518 21.3391C18.839 21.4327 18.8214 21.533 18.7963 21.6586C18.7807 21.7363 18.7182 22.0332 18.7195 22.0274C18.5726 22.7351 18.5087 23.3109 18.5442 23.9999H18.3119C18.0815 23.6486 17.9964 23.3211 17.9876 22.8933C17.9849 22.7565 17.9879 22.6458 17.9995 22.3731C18.0519 21.1428 17.9351 20.4573 17.3063 19.4721C17.1281 19.193 16.7573 19.1111 16.4782 19.2893C16.1991 19.4675 16.1173 19.8382 16.2954 20.1173C16.7658 20.8542 16.8443 21.3149 16.8014 22.3221C16.7887 22.6203 16.7853 22.7472 16.7887 22.9178C16.8029 23.6152 16.9733 24.1954 17.4004 24.7904V28.8046C17.4004 30.788 15.7861 32.4023 13.8027 32.4023H12.0039C10.0206 32.4023 8.40625 30.788 8.40625 28.8046V27.582C9.06848 27.582 9.60548 27.0455 9.60548 26.3828V23.9844H12.0039C12.6662 23.9844 13.2032 23.4478 13.2032 22.7851V8.39453C13.2032 7.73187 12.6662 7.1953 12.0039 7.1953H11.4044V1.79881C11.4044 0.805677 10.5987 0 9.60555 0H3.60933C2.6162 0 1.81053 0.805677 1.81053 1.79881V7.1953H1.21095C0.548718 7.1953 0.0117188 7.73187 0.0117188 8.39453V22.7852C0.0117188 23.4479 0.548718 23.9844 1.21095 23.9844H3.6094V26.3829C3.6094 27.0455 4.1464 27.5821 4.80863 27.5821V28.8047C4.80863 32.7725 8.0362 36 12.0039 36H13.8027C17.7705 36 20.998 32.7724 20.998 28.8047V24.5996C20.998 24.5983 20.9978 24.597 20.9978 24.5956C20.9978 24.5943 20.998 24.593 20.998 24.5916C20.998 24.3565 21.0716 24.1655 21.26 23.8924C21.3357 23.7827 21.696 23.3134 21.7852 23.1889C22.4576 22.2503 22.7968 21.2728 22.7968 19.7948C22.7969 19.4636 22.5285 19.1952 22.1973 19.1952ZM3.00975 1.79881C3.00975 1.46798 3.27858 1.19923 3.60933 1.19923H9.6054C9.93623 1.19923 10.205 1.46805 10.205 1.79881V7.1953H3.00975V1.79881ZM1.21095 8.39453H12.0039V22.7852H1.21095V8.39453ZM8.40625 23.9844V26.3829H4.80863V23.9844H8.40625ZM19.7988 28.8047C19.7988 32.1102 17.1082 34.8008 13.8027 34.8008H12.0039C8.69843 34.8008 6.00786 32.1101 6.00786 28.8047V27.5821H7.20709V28.8047C7.20709 31.4503 9.3583 33.6016 12.004 33.6016H13.8028C16.4484 33.6016 18.5997 31.4504 18.5997 28.8047V25.1992H19.799L19.7988 28.8047Z" fill="#4f2da7"/>
<path d="M28.793 0.0158576H25.1953C21.2275 0.0158576 18 3.24342 18 7.21116V11.9996C18 12.2347 17.9265 12.4259 17.738 12.699C17.6623 12.8087 17.302 13.278 17.2128 13.4025C16.5404 14.3411 16.2012 15.3186 16.2012 16.7966C16.2012 17.1278 16.4697 17.3962 16.8008 17.3962C17.1319 17.3962 17.4003 17.1277 17.4003 16.7966C17.4003 15.5795 17.6559 14.8432 18.1876 14.1009C18.2588 14.0015 18.6279 13.5208 18.7249 13.3802C18.9084 13.1144 19.0372 12.8631 19.1143 12.5991H19.2531C19.2888 13.2017 19.2353 13.6896 19.1044 14.3204C19.1067 14.3095 19.0428 14.613 19.0259 14.6976C18.9963 14.8453 18.9747 14.9685 18.9581 15.0897C18.868 15.7473 18.9422 16.3264 19.2485 17.0347C19.38 17.3386 19.7329 17.4784 20.0369 17.3469C20.3409 17.2155 20.4806 16.8624 20.3492 16.5585C20.1312 16.0547 20.0853 15.6966 20.1462 15.2524C20.1591 15.1588 20.1766 15.0585 20.2018 14.9329C20.2174 14.8552 20.2798 14.5585 20.2787 14.5641C20.425 13.8591 20.489 13.2849 20.4543 12.5991H20.6911C20.9178 12.9473 21.0017 13.273 21.0105 13.6975C21.0133 13.8345 21.0103 13.9453 20.9986 14.2184C20.9462 15.4487 21.063 16.1342 21.6919 17.1192C21.8701 17.3983 22.2408 17.4801 22.5199 17.3018C22.7991 17.1236 22.8809 16.7529 22.7026 16.4738C22.2323 15.7372 22.1538 15.2766 22.1967 14.2694C22.2094 13.9707 22.2129 13.8437 22.2093 13.6728C22.195 12.9758 22.0246 12.3959 21.5976 11.8013V7.21094C21.5976 5.22761 23.212 3.61326 25.1953 3.61326H28.793C30.7763 3.61326 32.3907 5.22761 32.3907 7.21094V35.3926C32.3907 35.7238 32.6591 35.9922 32.9902 35.9922H35.3887C35.7199 35.9922 35.9883 35.7237 35.9883 35.3926V7.21116C35.9883 3.24335 32.7608 0.0158576 28.793 0.0158576ZM34.7891 34.7932H33.5898V7.21116C33.5898 4.56552 31.4386 2.41424 28.7929 2.41424H25.1952C22.5496 2.41424 20.3983 4.56545 20.3983 7.21116V11.4001H19.1991V7.21116C19.1991 3.90565 21.8897 1.21509 25.1952 1.21509H28.7928C32.0983 1.21509 34.7889 3.90572 34.7889 7.21116L34.7891 34.7932Z" fill="#4f2da7"/>
</svg>
