<svg width="39" height="39" viewBox="0 0 39 39" fill="none" xmlns="http://www.w3.org/2000/svg">
<path d="M6.17498 13.9749C1.51451 21.9699 8.45002 37.936 8.7437 38.6099C8.84725 38.8468 9.08082 39 9.33909 39H29.6609C29.9192 39 30.1528 38.8468 30.2563 38.6099C30.5533 37.936 37.4855 21.9699 32.825 13.9749C28.4701 6.51359 29.6335 0.845032 29.6451 0.791176C29.688 0.598663 29.641 0.397224 29.5178 0.243393C29.3943 0.0895614 29.208 0 29.0108 0H9.98923C9.79225 0 9.60599 0.0892639 9.48281 0.2425C9.35932 0.395737 9.31201 0.596878 9.35427 0.789093C9.36646 0.845032 10.5299 6.51359 6.17498 13.9749ZM9.77024 37.7C8.9987 35.8332 5.77657 27.612 5.87416 20.7565C8.57231 20.5881 13.0632 20.6869 15.2665 22.0083C15.8854 22.3776 16.4403 22.6942 16.9494 22.9736C16.9566 22.9923 16.9554 23.0125 16.9643 23.0316C17.754 24.8115 18.3884 26.6563 18.8612 28.5454C18.8564 28.5633 18.8525 28.5817 18.8499 28.5999V37.7H9.77024ZM19.5 26.0716C19.1938 25.1082 18.9019 24.3113 18.6675 23.7165C19.2152 23.84 19.7839 23.84 20.3319 23.7165C20.0975 24.3101 19.8056 25.1087 19.5 26.0716ZM29.2298 37.7H20.1501V28.5999C20.1475 28.5817 20.1436 28.5633 20.1388 28.5454C20.6113 26.6563 21.2457 24.8115 22.0351 23.0316C22.044 23.0125 22.0428 22.9932 22.05 22.9742C22.5362 22.709 23.0973 22.3868 23.7335 22.0077C26.1936 20.5316 31.2085 20.6479 33.1241 20.7545C33.2222 27.6087 30.0013 35.8326 29.2298 37.7ZM33.0583 19.4485C30.7508 19.325 25.7583 19.2777 23.0667 20.8916C22.283 21.3597 21.6114 21.7405 21.0514 22.0342L21.0047 22.0598L20.8532 22.1377C20.7916 22.1696 20.733 22.2026 20.6616 22.2345C19.9285 22.6019 19.065 22.6019 18.3318 22.2345L18.2235 22.1806C18.1149 22.1267 17.9965 22.0681 17.8742 22.0024C17.3101 21.6989 16.6563 21.3257 15.9315 20.8937C13.1724 19.2399 7.9436 19.342 5.94022 19.4527C6.03008 17.7623 6.49455 16.1136 7.3 14.625C7.35684 14.5283 7.40415 14.4352 7.45889 14.3391C8.34737 14.4902 9.21293 14.7538 10.0348 15.1243C10.2895 15.2275 10.5424 15.3296 10.7926 15.4245C11.2398 15.5947 11.687 15.7756 12.136 15.9568C13.095 16.3469 14.0861 16.7459 15.0942 17.0438C16.5305 17.4142 18.0111 17.5844 19.494 17.5499H19.506C20.9883 17.5853 22.4689 17.4157 23.9052 17.0461C24.9139 16.7486 25.905 16.3475 26.864 15.9595C27.313 15.778 27.7602 15.5974 28.2074 15.4272C28.4576 15.3323 28.7105 15.232 28.9658 15.1267C29.7871 14.7565 30.6523 14.4926 31.5405 14.3417C31.5953 14.4378 31.6426 14.5307 31.6991 14.6277C32.5031 16.1142 32.9675 17.7608 33.0583 19.4485ZM10.742 1.29998H28.258C28.0735 3.04003 28.0116 7.47496 30.882 13.1203C30.0575 13.3131 29.2527 13.5815 28.4773 13.9216C28.2309 14.0213 27.9863 14.1168 27.7453 14.2117C27.2904 14.3846 26.8351 14.5697 26.3751 14.7544C25.445 15.1308 24.4836 15.5194 23.5353 15.7994C22.2169 16.1321 20.8592 16.2838 19.5 16.2499C18.1402 16.2838 16.7819 16.1324 15.4629 15.7994C14.5152 15.5194 13.5538 15.1308 12.6237 14.7544C12.1688 14.5697 11.7096 14.3846 11.2535 14.2117C11.0122 14.1201 10.7679 14.0213 10.5215 13.9216C9.74613 13.5815 8.94097 13.3131 8.11647 13.1197C10.9884 7.47496 10.9265 3.04003 10.742 1.29998Z" fill="#4f2da7"/>
<path d="M19.5 12.35C20.5768 12.35 21.4501 11.477 21.4501 10.4001C21.4501 10.041 21.1591 9.75 20.8 9.75C20.4411 9.75 20.1501 10.041 20.1501 10.4001C20.1501 10.759 19.8588 11.05 19.5 11.05C19.1412 11.05 18.8499 10.759 18.8499 10.4001C18.8499 10.041 18.5589 9.75 18.2 9.75C17.8409 9.75 17.5499 10.041 17.5499 10.4001C17.5499 11.477 18.4232 12.35 19.5 12.35Z" fill="#4f2da7"/>
<path d="M0.650139 7.15005H3.2501V8.45003C3.2501 8.70205 3.3959 8.93146 3.62441 9.03828C3.85263 9.1454 4.12221 9.11058 4.31591 8.94931L8.21615 5.69921C8.36403 5.57573 8.44972 5.39274 8.44972 5.19993C8.44972 5.00712 8.36403 4.82443 8.21615 4.70094L4.31591 1.45085C4.12221 1.28958 3.85263 1.25476 3.62441 1.36158C3.3959 1.4684 3.2501 1.69781 3.2501 1.95013V3.25011H0.650139C0.291 3.25011 0 3.54111 0 3.89995V6.49991C0 6.85905 0.291 7.15005 0.650139 7.15005ZM1.29998 4.55009H3.89994C4.25908 4.55009 4.55008 4.25909 4.55008 3.89995V3.33788L6.78465 5.19993L4.55008 7.06227V6.49991C4.55008 6.14107 4.25908 5.85007 3.89994 5.85007H1.29998V4.55009Z" fill="#4f2da7"/>
<path d="M38.3499 3.25011H35.7499V1.95013C35.7502 1.69751 35.6041 1.4681 35.3756 1.36099C35.1471 1.25387 34.8772 1.28898 34.6835 1.45085L30.7833 4.70094C30.6354 4.82443 30.5497 5.00712 30.5497 5.19993C30.5497 5.39274 30.6354 5.57573 30.7833 5.69921L34.6835 8.94931C34.8772 9.11088 35.1471 9.14599 35.3756 9.03917C35.6041 8.93205 35.7502 8.70235 35.7499 8.45003V7.15005H38.3499C38.709 7.15005 39 6.85905 39 6.49991V3.89995C39 3.54111 38.709 3.25011 38.3499 3.25011ZM37.7 5.85007H35.1001C34.7409 5.85007 34.4499 6.14107 34.4499 6.49991V7.06227L32.2159 5.19993L34.4499 3.33788V3.89995C34.4499 4.25909 34.7409 4.55009 35.1001 4.55009H37.7V5.85007Z" fill="#4f2da7"/>
</svg>
