<svg width="43" height="43" viewBox="0 0 43 43" fill="none" xmlns="http://www.w3.org/2000/svg">
<path d="M40.2258 11.0968H32.5267C32.3554 10.2555 31.8706 9.53421 31.2097 9.03416V6.93548H33.9839V2.77419H31.2097V2.08065C31.2097 0.933516 30.2762 0 29.129 0H27.7419C26.5948 0 25.6613 0.933516 25.6613 2.08065V2.77419H21.5V6.93548H25.6613V9.03416C25.0003 9.53421 24.5155 10.2562 24.3442 11.0968H19.4194V15.2581H15.9516V13.1774C15.9516 12.0303 15.0181 11.0968 13.871 11.0968H13.1774V6.93548H7.62903V11.0968H6.93548C5.78835 11.0968 4.85484 12.0303 4.85484 13.1774V15.2581H2.77419C1.24423 15.2581 0 16.5023 0 18.0323C0 19.5622 1.24423 20.8065 2.77419 20.8065H2.79223C2.35182 21.3876 2.08065 22.1034 2.08065 22.8871V39.5323C2.08065 41.4444 3.63627 43 5.54839 43H15.2581C17.1702 43 18.7258 41.4444 18.7258 39.5323V22.8871C18.7258 22.1034 18.4546 21.3876 18.0142 20.8065H24.2742V29.8226C24.2742 30.9607 24.8332 31.9643 25.6828 32.5968H25.6613V38.8387H31.2097V32.5968H31.1882C32.0378 31.9643 32.5968 30.9607 32.5968 29.8226V20.708C33.7897 20.398 34.6774 19.3209 34.6774 18.0323C34.6774 17.5246 34.5304 17.055 34.2918 16.6452H40.2258C41.7558 16.6452 43 15.4009 43 13.871C43 12.341 41.7558 11.0968 40.2258 11.0968ZM31.2097 4.16129H32.5968V5.54839H31.2097V4.16129ZM27.0484 2.08065C27.0484 1.6985 27.3598 1.3871 27.7419 1.3871H29.129C29.5112 1.3871 29.8226 1.6985 29.8226 2.08065V8.39263C29.5986 8.34685 29.3662 8.32258 29.129 8.32258H27.7419C27.5047 8.32258 27.2724 8.34685 27.0484 8.39263V2.08065ZM22.8871 5.54839V4.16129H25.6613V5.54839H22.8871ZM25.6613 11.7903C25.6613 10.6432 26.5948 9.70968 27.7419 9.70968H29.129C30.2762 9.70968 31.2097 10.6432 31.2097 11.7903V15.2581H25.6613V11.7903ZM20.8065 12.4839H24.2742V15.2581H20.8065V12.4839ZM9.01613 8.32258H11.7903V11.0968H9.01613V8.32258ZM6.24194 13.1774C6.24194 12.7953 6.55334 12.4839 6.93548 12.4839H13.871C14.2531 12.4839 14.5645 12.7953 14.5645 13.1774V15.2581H6.24194V13.1774ZM17.3387 39.5323C17.3387 40.6794 16.4052 41.6129 15.2581 41.6129H5.54839C4.40126 41.6129 3.46774 40.6794 3.46774 39.5323V22.8871C3.46774 21.74 4.40126 20.8065 5.54839 20.8065H15.2581C16.4052 20.8065 17.3387 21.74 17.3387 22.8871V39.5323ZM29.8226 37.4516H27.0484V33.2203C27.2724 33.266 27.5047 33.2903 27.7419 33.2903H29.129C29.3662 33.2903 29.5986 33.266 29.8226 33.2203V37.4516ZM31.2097 22.1935H29.8226V23.5806H31.2097V29.8226C31.2097 30.9697 30.2762 31.9032 29.129 31.9032H27.7419C26.5948 31.9032 25.6613 30.9697 25.6613 29.8226V23.5806H28.4355V22.1935H25.6613V20.8065H31.2097V22.1935ZM31.9032 19.4194H2.77419C2.00921 19.4194 1.3871 18.7972 1.3871 18.0323C1.3871 17.2673 2.00921 16.6452 2.77419 16.6452H31.9032C32.6682 16.6452 33.2903 17.2673 33.2903 18.0323C33.2903 18.7972 32.6682 19.4194 31.9032 19.4194ZM36.0645 15.2581H32.5968V12.4839H36.0645V15.2581ZM38.8387 15.2581H37.4516V12.4839H38.8387V15.2581ZM40.2258 15.2581V12.4839C40.9908 12.4839 41.6129 13.106 41.6129 13.871C41.6129 14.636 40.9908 15.2581 40.2258 15.2581Z" fill="#4f2da7"/>
<path d="M4.85483 38.1452H15.9516V22.8871H4.85483V38.1452ZM6.24193 24.2742H14.5645V36.7581H6.24193V24.2742Z" fill="#4f2da7"/>
</svg>
