<svg width="33" height="33" viewBox="0 0 33 33" fill="none" xmlns="http://www.w3.org/2000/svg">
<path d="M22.752 5.67832V3.26133C22.752 1.8498 21.6111 0.708984 20.1996 0.708984H12.9357C11.5242 0.708984 10.3834 1.8498 10.3834 3.26133V5.67832H0.708984V14.618C0.708984 14.618 1.47598 14.8049 1.8498 14.8887V32.291H31.2791V14.85C31.5691 14.7855 32.2846 14.618 32.2846 14.618V5.67832H22.752ZM11.6596 3.26133C11.6596 2.52012 12.2654 1.98516 12.9357 1.98516H20.1932C20.9344 1.98516 21.4693 2.59102 21.4693 3.26133V5.67832H11.6596V3.26133ZM2.12051 7.02539H30.8795V13.6125C29.3197 13.9863 24.4406 15.0047 20.1932 15.4688V13.7479H13.0066V15.4945C8.52715 14.9918 3.66094 13.9348 2.12051 13.6125V7.02539ZM18.7816 15.024V19.323H14.2764V15.024H18.7816ZM30.0094 30.9439H3.13242V15.1723C5.40117 15.6686 9.36504 16.4549 13.0131 16.7965V20.6637H20.1996V16.7449C23.751 16.3389 27.7729 15.5654 30.0094 15.1078V30.9439Z" fill="#4f2da7"/>
</svg>
