<svg width="31" height="39" viewBox="0 0 31 39" fill="none" xmlns="http://www.w3.org/2000/svg">
<path d="M24.8611 25.1521L19.0385 23.95V20.9876C21.1888 19.8759 22.7538 17.7845 23.1388 15.3077H23.3462C24.5126 15.3077 25.4615 14.3588 25.4615 13.1924V12.1924C25.4615 11.026 24.5126 10.077 23.3462 10.077H23.2093C23.0582 8.03971 22.1142 6.21966 20.6856 4.9252C20.624 3.71757 20.147 2.61833 19.3962 1.76574C20.4982 2.14226 21.5043 2.69146 22.4066 3.41197C24.8043 5.32655 26.1795 8.22649 26.1795 11.3682V23.8461C26.1795 24.1648 26.4378 24.4231 26.7564 24.4231C27.075 24.4231 27.3333 24.1648 27.3333 23.8461V11.368C27.3333 7.87343 25.8 4.64488 23.1265 2.51017C21.0405 0.844517 18.4745 0 15.5 0C12.5254 0 9.9595 0.844517 7.87353 2.51017C5.19998 4.64488 3.66664 7.87343 3.66664 11.368V23.8461C3.66664 24.1648 3.92494 24.4231 4.24356 24.4231C4.56219 24.4231 4.82049 24.1648 4.82049 23.8461V11.368C4.82049 8.22633 6.1957 5.32639 8.59351 3.41181C9.49584 2.6913 10.5018 2.14218 11.6039 1.76559C10.8531 2.61826 10.376 3.71742 10.3145 4.92512C8.88578 6.21959 7.94178 8.03964 7.79081 10.0769H7.65393C6.48751 10.0769 5.53856 11.0259 5.53856 12.1923V13.1923C5.53856 14.3587 6.48751 15.3077 7.65393 15.3077H7.86127C8.24632 17.7844 9.81135 19.8758 11.9616 20.9875V23.9499L6.13902 25.152C3.02755 25.7945 0.769287 28.5667 0.769287 31.7437V38.423C0.769287 38.7416 1.02759 38.9999 1.34621 38.9999H29.6539C29.9725 38.9999 30.2308 38.7416 30.2308 38.423V31.7437C30.2308 28.5667 27.9725 25.7945 24.8611 25.1521ZM24.3077 12.1923V13.1923C24.3077 13.7224 23.8763 14.1538 23.3462 14.1538H23.2308V11.2308H23.3462C23.8764 11.2308 24.3077 11.6621 24.3077 12.1923ZM15.5 1.15385C17.2921 1.15385 18.8146 2.32766 19.3409 3.94654C18.2087 3.29565 16.8971 2.9231 15.5 2.9231C14.1029 2.9231 12.7913 3.29565 11.6591 3.94654C12.1855 2.32766 13.7078 1.15385 15.5 1.15385ZM15.5 4.07695C19.1265 4.07695 22.0769 7.02731 22.0769 10.6539V11.5384H19.9002C18.3833 11.5384 17.0085 10.7013 16.3122 9.35368L16.0125 8.77363C15.9134 8.5819 15.7157 8.46155 15.4999 8.46155C15.2841 8.46155 15.0864 8.5819 14.9874 8.77363L14.6876 9.35375C13.9914 10.7013 12.6166 11.5384 11.0998 11.5384H8.92303V10.6539C8.92311 7.02731 11.8735 4.07695 15.5 4.07695ZM7.76925 14.1539H7.65385C7.12362 14.1539 6.69234 13.7225 6.69234 13.1924V12.1924C6.69234 11.6621 7.1237 11.2309 7.65385 11.2309H7.76925V14.1539ZM8.92311 14.1154V12.6924H11.0999C12.9057 12.6924 14.5549 11.7694 15.5 10.2572C16.445 11.7694 18.0944 12.6924 19.9002 12.6924H22.0769V14.1154C22.0769 17.742 19.1265 20.6923 15.5 20.6923C11.8735 20.6923 8.92311 17.742 8.92311 14.1154ZM6.37234 26.2821L12.6551 24.9849C12.9231 24.9295 13.1154 24.6936 13.1154 24.4199V21.4693C13.8668 21.7136 14.6681 21.8462 15.5 21.8462C16.3319 21.8462 17.1332 21.7136 17.8847 21.4693V24.4199C17.8847 24.6936 18.0769 24.9295 18.3449 24.9849L24.6277 26.2821C27.2057 26.8144 29.0769 29.1114 29.0769 31.7438V32.7001C28.7645 32.8871 28.0538 33.2115 26.8846 33.2115C26.462 33.2115 26.0384 33.0771 25.6256 32.8119C25.3282 32.6208 25.0157 32.4562 24.6923 32.3172V31.4359C24.6923 31.1173 24.434 30.859 24.1154 30.859C23.7967 30.859 23.5384 31.1173 23.5384 31.4359V31.9446C23.0652 31.8392 22.5771 31.7847 22.0818 31.7847C21.5201 31.7847 20.958 31.8546 20.4109 31.9924C17.7533 32.662 16.211 33.94 15.5 34.6833C14.789 33.9399 13.2467 32.662 10.5892 31.9924C10.0421 31.8546 9.47992 31.7847 8.91831 31.7847C8.42296 31.7847 7.93485 31.8392 7.4616 31.9447V31.436C7.4616 31.1174 7.2033 30.8591 6.88467 30.8591C6.56604 30.8591 6.30774 31.1174 6.30774 31.436V32.3173C5.98424 32.4563 5.67186 32.6208 5.37441 32.8119C4.96171 33.0771 4.53812 33.2115 4.11544 33.2115C2.94224 33.2115 2.23461 32.8881 1.92314 32.7008V31.7438C1.92306 29.1114 3.79422 26.8144 6.37234 26.2821ZM1.92306 36.9389C2.43357 37.1235 3.1575 37.2885 4.11537 37.2885C5.02379 37.2885 5.77408 37.1007 6.30767 36.9062V37.8461H1.92306V36.9389ZM7.46152 37.8461V36C7.46152 35.7887 7.34475 35.5951 7.15919 35.4941C6.97356 35.393 6.74649 35.4023 6.56894 35.517C6.55942 35.5232 5.59599 36.1346 4.11529 36.1346C2.96898 36.1346 2.25129 35.8511 1.92299 35.6804V33.9757C2.43905 34.1813 3.16619 34.3653 4.11529 34.3653C4.76275 34.3653 5.3962 34.1693 5.99795 33.7826C6.85748 33.2304 7.86721 32.9385 8.91815 32.9385C9.38478 32.9385 9.8521 32.9966 10.3071 33.1112C13.6592 33.9557 15.0089 35.881 15.0207 35.8981C15.1278 36.0579 15.3075 36.1538 15.4999 36.1538C15.6923 36.1538 15.872 36.0579 15.9791 35.8981C15.992 35.8789 17.3084 33.9639 20.6927 33.1112C21.1476 32.9966 21.6149 32.9385 22.0817 32.9385C23.1327 32.9385 24.1424 33.2304 25.0018 33.7826C25.6037 34.1693 26.2371 34.3653 26.8845 34.3653C27.8337 34.3653 28.5607 34.1813 29.0768 33.9757V35.6797C28.7457 35.8521 28.0285 36.1345 26.8845 36.1345C25.4038 36.1345 24.4405 35.5231 24.4333 35.5186C24.256 35.4014 24.0289 35.3913 23.842 35.4918C23.655 35.5924 23.5384 35.7876 23.5384 35.9999V37.8461L7.46152 37.8461ZM24.6923 37.8461V36.9062C25.2259 37.1007 25.9762 37.2885 26.8846 37.2885C27.8424 37.2885 28.5664 37.1235 29.0769 36.9389V37.8461H24.6923Z" fill="white"/>
<path d="M12.9841 31.4464C14.3803 31.8981 14.9609 33.2561 14.9656 33.2674C15.054 33.4848 15.2652 33.6269 15.5 33.6269C15.7347 33.6269 15.946 33.4848 16.0344 33.2674C16.04 33.2538 16.6033 31.9033 18.016 31.4464C18.319 31.3483 18.4854 31.0231 18.3873 30.7199C18.2893 30.4167 17.9642 30.2505 17.6608 30.3486C16.6196 30.6854 15.9237 31.3662 15.5001 31.9304C15.0765 31.3662 14.3805 30.6853 13.3393 30.3486C13.0361 30.2503 12.7109 30.4168 12.6129 30.7199C12.5147 31.0231 12.681 31.3483 12.9841 31.4464Z" fill="white"/>
</svg>
