<svg width="43" height="43" viewBox="0 0 43 43" fill="none" xmlns="http://www.w3.org/2000/svg">
<path d="M35.5799 13.3916L42.7539 6.21756C43.0797 5.89487 43.0823 5.36917 42.7596 5.04327C42.6105 4.89267 42.4094 4.80476 42.1976 4.7977L42.2225 4.84752L38.32 4.71467L38.1871 0.812135C38.1717 0.353795 37.7876 -0.00521776 37.3293 0.0102471C37.1175 0.0174086 36.9163 0.105216 36.7673 0.255816L29.6016 7.38832C29.4398 7.55106 29.3527 7.77349 29.3608 8.00276V8.83309C20.8411 2.96403 9.17688 5.11281 3.30782 13.6324C-2.56124 22.1519 -0.41256 33.8162 8.10711 39.6853C16.6267 45.5544 28.291 43.4056 34.16 34.886C38.5681 28.4872 38.5681 20.0313 34.16 13.6324H34.9904C35.211 13.6336 35.4232 13.5469 35.5799 13.3916ZM35.829 24.2688C35.8415 33.7063 28.2009 41.367 18.7634 41.3795C9.32592 41.3919 1.66523 33.7514 1.65277 24.3139C1.64032 14.8764 9.28088 7.21571 18.7184 7.20326C22.626 7.19807 26.4172 8.5324 29.4604 10.9836L29.5019 12.3703L26.1806 15.6916C21.4559 11.5506 14.269 12.0239 10.128 16.7486C5.98708 21.4732 6.46036 28.6602 11.185 32.8012C15.9097 36.9421 23.0967 36.4688 27.2376 31.7442C30.9581 27.4991 31.003 21.168 27.3431 16.8706L30.6644 13.5493L32.0344 13.5992C34.4764 16.6204 35.8149 20.3842 35.829 24.2688ZM18.2095 24.8252C18.5333 25.1471 19.0564 25.1471 19.3802 24.8252L21.0409 23.1645C21.2027 23.4985 21.2878 23.8645 21.29 24.2356C21.29 25.6114 20.1748 26.7266 18.799 26.7266C17.4233 26.7266 16.308 25.6114 16.308 24.2356C16.308 22.8599 17.4233 21.7447 18.799 21.7447C19.1702 21.7468 19.5361 21.8319 19.8701 21.9938L18.2095 23.6544C17.8875 23.9782 17.8875 24.5013 18.2095 24.8252ZM21.0824 20.7732C19.1704 19.5078 16.5945 20.0319 15.3291 21.9439C14.0637 23.856 14.5878 26.4318 16.4998 27.6973C18.4119 28.9627 20.9877 28.4385 22.2532 26.5265C23.1725 25.1373 23.1725 23.3331 22.2532 21.9439L26.1889 18.0082C29.6392 22.105 29.115 28.2232 25.0182 31.6735C20.9213 35.1238 14.8032 34.5996 11.3529 30.5027C7.90253 26.4059 8.42678 20.2877 12.5236 16.8374C16.1337 13.7972 21.4081 13.7972 25.0182 16.8374L21.0824 20.7732ZM31.1792 11.8555L31.0629 8.31828L36.6261 2.7551L36.7174 5.52008C36.7174 5.97863 37.0892 6.35041 37.5478 6.35041L40.3128 6.44175L34.7164 11.9717L31.1792 11.8555Z" fill="white"/>
</svg>
