<svg width="35" height="35" viewBox="0 0 35 35" fill="none" xmlns="http://www.w3.org/2000/svg">
<path d="M25.7236 0.150391C25.6279 0.0546875 25.496 0 25.3613 0H12.373C12.2377 0 12.1058 0.0546875 12.0107 0.150391C11.915 0.24541 11.8604 0.377275 11.8604 0.512695V2.82598C11.8604 3.10898 12.09 3.33936 12.373 3.33936C12.6554 3.33936 12.8857 3.10898 12.8857 2.82598V1.02539H24.8486V10.9382H18.5254C18.4604 10.9382 18.3948 10.9512 18.3354 10.9751L15.6201 12.06V11.4509C15.6201 11.3162 15.5654 11.1843 15.4697 11.0886C15.3747 10.9929 15.2421 10.9382 15.1074 10.9382H12.8857V4.87676C12.8857 4.59443 12.6554 4.36475 12.373 4.36475C12.09 4.36475 11.8604 4.59443 11.8604 4.87676V11.4509C11.8604 11.5862 11.915 11.7182 12.0107 11.8139C12.1057 11.9089 12.2377 11.9636 12.373 11.9636H14.5947V12.8174C14.5947 12.9876 14.6787 13.1462 14.8196 13.2419C14.905 13.2993 15.0041 13.3301 15.1074 13.3301C15.173 13.3301 15.2372 13.3177 15.2974 13.2932L18.6238 11.9636H25.3613C25.496 11.9636 25.6279 11.9089 25.7236 11.8139C25.8193 11.7182 25.874 11.5863 25.874 11.4509V0.512695C25.874 0.377275 25.8193 0.24541 25.7236 0.150391Z" fill="white"/>
<path d="M31.5136 29.1896H29.9758L29.9763 28.0545C31.2318 26.9575 32.0263 25.3458 32.0263 23.5519V21.5849C32.4269 19.5698 32.2431 18.0755 31.4793 17.1438C30.9978 16.5564 30.4011 16.3326 29.9755 16.2488V13.9797C29.9755 13.6965 29.746 13.467 29.4628 13.467C29.2683 13.467 29.0689 13.4659 28.866 13.4649C28.6539 13.4637 28.4378 13.4626 28.2193 13.4626C25.7459 13.4626 22.9691 13.6191 21.3196 15.4876C20.1331 16.8316 19.7222 18.8165 20.0633 21.5555V23.552C20.0633 25.3464 20.8582 26.9585 22.1143 28.0554V29.1897H20.5762C19.1626 29.1897 18.0127 30.3397 18.0127 31.7532V34.4873C18.0127 34.7705 18.2422 35 18.5254 35H33.5644C33.8476 35 34.0771 34.7705 34.0771 34.4873V31.7557C34.0771 31.7548 34.0771 31.754 34.0771 31.7531C34.0771 30.3395 32.9271 29.1896 31.5136 29.1896ZM22.0884 16.1661C23.4554 14.6176 25.9699 14.4879 28.2194 14.4879C28.4361 14.4879 28.6504 14.489 28.8607 14.4901C28.8907 14.4903 28.9205 14.4904 28.9503 14.4906V16.714C28.9503 16.8555 29.0063 16.9909 29.1094 17.0879C29.2126 17.1848 29.3489 17.235 29.49 17.2259C29.5366 17.2232 30.2126 17.2159 30.6865 17.7938C31.0364 18.2207 31.211 18.8757 31.2071 19.725L30.9842 19.2794C30.8714 19.0535 30.6106 18.9433 30.37 19.0202C30.3395 19.0299 27.3018 19.9913 25.5495 19.9913C23.8686 19.9913 22.3478 19.08 22.3332 19.0712C22.1078 18.9332 21.8144 18.9895 21.6558 19.201L20.9791 20.1032C20.9378 18.3697 21.3092 17.0487 22.0884 16.1661ZM21.0889 23.5519V21.6659L22.2113 20.1693C22.8435 20.4837 24.1257 21.0167 25.5495 21.0167C27.068 21.0167 29.3288 20.3999 30.2607 20.1251L31.001 21.6057V23.5519C31.001 26.2836 28.7777 28.506 26.0449 28.506C23.3121 28.506 21.0889 26.2836 21.0889 23.5519ZM28.9506 28.7767L28.9503 29.4278L27.3759 30.4776L26.5575 30.0688V29.5092C27.42 29.4356 28.2308 29.1783 28.9506 28.7767ZM25.5322 29.5092V30.0387L24.4234 30.4823L23.1398 29.4558V28.777C23.8594 29.1785 24.6699 29.4357 25.5322 29.5092ZM23.4814 33.9746H21.0889V32.9492H23.4814V33.9746ZM33.0517 31.7531V33.9746H24.5068V32.4365C24.5068 32.1533 24.2774 31.9238 23.9941 31.9238H20.5763C20.2931 31.9238 20.0636 32.1533 20.0636 32.4365V33.9746H19.0382V31.7531C19.0382 30.905 19.7282 30.215 20.5763 30.215H22.4473L24.0163 31.4696C24.0208 31.4732 24.0259 31.4756 24.0305 31.4791C24.045 31.4898 24.0598 31.4998 24.0752 31.509C24.0845 31.5145 24.0937 31.5199 24.1032 31.5247C24.1179 31.5322 24.133 31.5386 24.1482 31.5446C24.1583 31.5487 24.1684 31.553 24.1787 31.5564C24.1956 31.5619 24.2129 31.5658 24.2303 31.5695C24.239 31.5713 24.2475 31.5739 24.2562 31.5753C24.2826 31.5796 24.3094 31.582 24.3366 31.582C24.3545 31.582 24.3723 31.5808 24.3904 31.579C24.3935 31.5785 24.3966 31.5779 24.3999 31.5775C24.4139 31.5758 24.4279 31.5735 24.442 31.5705C24.4478 31.5693 24.4534 31.5678 24.4592 31.5664C24.4702 31.5636 24.4812 31.5606 24.4921 31.5571C24.4992 31.5548 24.5064 31.5524 24.5135 31.5498C24.5178 31.5482 24.5224 31.547 24.5268 31.5452L26.0215 30.9473L27.1837 31.5278C27.1916 31.5318 27.1997 31.5346 27.2076 31.5381C27.2169 31.5421 27.226 31.5465 27.2354 31.55C27.2483 31.5547 27.2611 31.5583 27.274 31.5619C27.2802 31.5636 27.2863 31.566 27.2925 31.5674C27.3107 31.5718 27.3288 31.575 27.3472 31.5774C27.3487 31.5775 27.3502 31.5779 27.3517 31.5782C27.3719 31.5806 27.3922 31.582 27.4124 31.582C27.4365 31.582 27.4604 31.5802 27.4841 31.5768C27.4944 31.5753 27.5047 31.5725 27.515 31.5703C27.528 31.5677 27.5412 31.5654 27.554 31.5618C27.5644 31.5587 27.5747 31.5545 27.5849 31.5509C27.5977 31.5463 27.6104 31.5419 27.6228 31.5364C27.6318 31.5323 27.6406 31.5273 27.6495 31.5227C27.6628 31.5157 27.676 31.5087 27.6888 31.5005C27.6915 31.4988 27.6945 31.4976 27.6972 31.4958L29.6181 30.215H31.5137C32.3612 30.215 33.0508 30.904 33.0518 31.7514C33.0518 31.7519 33.0517 31.7525 33.0517 31.7531Z" fill="white"/>
<path d="M14.4238 29.1896H12.2024L12.2027 28.5709C13.8467 27.5041 14.9365 25.6529 14.9365 23.5518V22.422L15.6185 22.6656C15.6745 22.6856 15.7328 22.6954 15.7909 22.6954C15.8953 22.6954 15.9987 22.6635 16.0863 22.6019C16.2226 22.5058 16.3036 22.3495 16.3036 22.1827C16.3036 19.1058 15.7112 16.821 14.5428 15.3921C13.583 14.2182 12.2636 13.623 10.6212 13.623C8.7068 13.623 6.91277 14.4454 6.27532 14.7724L5.07384 14.2004C4.92126 14.1277 4.7427 14.1349 4.59662 14.2195C4.391 14.3385 2.60128 15.5152 2.97356 20.151V23.5518C2.97356 25.6531 4.06362 27.5045 5.70794 28.5713V29.1896H3.48633C2.07279 29.1896 0.922852 30.3395 0.922852 31.7531V34.4873C0.922852 34.7705 1.1524 35 1.43555 35H16.4745C16.7576 35 16.9872 34.7705 16.9872 34.4873V31.7557C16.9872 31.7548 16.9873 31.754 16.9873 31.7531C16.9872 30.3395 15.8373 29.1896 14.4238 29.1896ZM4.93698 15.2709L6.06867 15.8097C6.2205 15.8821 6.39851 15.875 6.54438 15.7914C6.56435 15.7799 8.56242 14.6484 10.6213 14.6484C13.5568 14.6484 15.1177 16.9363 15.2666 21.451L6.39311 18.282C6.33719 18.262 6.27888 18.2522 6.2207 18.2522C6.14188 18.2522 6.06334 18.2703 5.99143 18.3063L3.95438 19.3248C3.87967 16.7562 4.59006 15.6531 4.93698 15.2709ZM3.99902 23.5518V20.4487L6.25434 19.3212L13.9111 22.0557V23.5518C13.9111 26.2836 11.6879 28.506 8.95508 28.506C6.22228 28.506 3.99902 26.2836 3.99902 23.5518ZM11.177 29.1033L11.1767 29.702C11.1767 30.9271 10.18 31.9239 8.95501 31.9239C7.73001 31.9239 6.73333 30.9273 6.73333 29.7022V29.1035C7.42062 29.3792 8.17038 29.5314 8.95501 29.5314C9.73984 29.5314 10.4897 29.3791 11.177 29.1033ZM15.9618 31.7531V33.9746H1.94824V31.7531C1.94824 30.905 2.63819 30.215 3.48633 30.215H5.74889C5.99553 31.7626 7.33913 32.9493 8.95508 32.9493C10.571 32.9493 11.9146 31.7626 12.1613 30.215H14.4238C15.2713 30.215 15.9609 30.904 15.9618 31.7514C15.9618 31.7519 15.9618 31.7525 15.9618 31.7531Z" fill="white"/>
<path d="M20.438 2.70088C20.0183 2.28184 19.4605 2.05079 18.8672 2.0501C18.2731 2.05079 17.7153 2.28184 17.2963 2.70088C16.8766 3.12061 16.6455 3.67842 16.6455 4.27178C16.6455 4.55479 16.8752 4.78448 17.1582 4.78448C17.4405 4.78448 17.6709 4.55479 17.6709 4.27178C17.6716 3.95254 17.796 3.65238 18.0216 3.42679C18.2472 3.20121 18.5472 3.07611 18.8672 3.07543C19.1864 3.07611 19.4865 3.20121 19.712 3.42679C19.9383 3.65238 20.0628 3.95241 20.0635 4.27171C20.0628 4.59164 19.9384 4.89167 19.712 5.11725C19.488 5.34126 19.1905 5.46602 18.8737 5.46835C18.8715 5.46828 18.8693 5.468 18.8671 5.468C18.584 5.468 18.3544 5.69831 18.3544 5.98138V7.34857C18.3544 7.63089 18.584 7.86126 18.8671 7.86126C19.1494 7.86126 19.3798 7.63089 19.3798 7.34857V6.43378C19.7771 6.34034 20.142 6.13861 20.438 5.84268C20.8571 5.42364 21.0882 4.86583 21.0889 4.27178C21.0882 3.67836 20.8571 3.12054 20.438 2.70088Z" fill="white"/>
<path d="M18.8672 8.20312C18.5841 8.20312 18.3545 8.43274 18.3545 8.71582V9.39873C18.3545 9.68174 18.5841 9.91143 18.8672 9.91143C19.1495 9.91143 19.3799 9.68174 19.3799 9.39873V8.71582C19.3799 8.43274 19.1494 8.20312 18.8672 8.20312Z" fill="white"/>
</svg>
